<svg id="Ebene_1" data-name="Ebene 1" xmlns="http://www.w3.org/2000/svg" viewBox="0 0 150.98 66.35"><defs><style>.cls-1,.cls-2{fill:#ba1e1a;stroke-width:0.5px;}.cls-1{stroke:#1d1d1b;stroke-linecap:round;stroke-linejoin:round;}.cls-2{stroke:#1d1e1b;stroke-miterlimit:10;}</style></defs><title>Fhoch3_logo</title><path class="cls-1" d="M56,.38H53.56l-.39,2.51h3.25Zm4.71,2.51A2.29,2.29,0,0,1,63,4.58c.16.8.37,2.07.37,2.07H46.25s.21-1.27.36-2.07a2.3,2.3,0,0,1,2.24-1.69Zm-21.43,17,5.63,9.22-1.33.55-5.68-8.95Zm4.3,9.77-1.47.62-5.4-8.86,1.19-.71Zm26.66-9.77-5.62,9.22,1.32.55h0l5.67-8.95ZM66,29.63l1.46.62,5.41-8.86-1.2-.71ZM45.37,14.37h0Zm16.11,43h0Zm3-40.92L63.34,6.65H46.25l-1.12,9.77c3.51,3,3.8,8.22,1.41,12,0,0,2.11,23.14,2.19,25s0,5-3.43,6.25h19c-3.42-1.2-3.51-4.37-3.42-6.25s2.19-25,2.19-25C60.66,24.64,60.94,19.42,64.46,16.42Zm0,0c-3.52,3-3.8,8.22-1.41,12l1.6.68h0l5.62-9.22ZM45.3,66.19h19V59.68h-19Zm-.17-49.77-5.82,3.44,5.63,9.22,1.6-.68C48.93,24.64,48.64,19.42,45.13,16.42Zm-6.65,7.83s-1.55,1.6-1.27,2,.78,1.25,1,1.56,2.16-.5,2.16-.5Zm32.63,0s1.55,1.6,1.27,2-.78,1.25-1,1.56-2.17-.5-2.17-.5Z" transform="translate(0 -0.09)"/><path class="cls-2" d="M.25.34h34V10.72H12.52V27H33.2V37.32H12.52V66.19H.25Z" transform="translate(0 -0.09)"/><path class="cls-2" d="M90.1,28.14a11,11,0,0,0-4.32-.89,5.7,5.7,0,0,0-6.07,6.07c0,3.41,2.11,6,5.69,6a8.85,8.85,0,0,0,2.21-.24V34.69H84.05V32.05h6.77v9a21.06,21.06,0,0,1-5.42.86c-5.42,0-9.19-2.71-9.19-8.37s3.5-8.94,9.19-8.94a16.63,16.63,0,0,1,4.92.69Z" transform="translate(0 -0.09)"/><path class="cls-2" d="M94.36,24.9h3.35v6.77h6.72V24.9h3.36V41.65h-3.36V34.31H97.71v7.34H94.36Z" transform="translate(0 -0.09)"/><path class="cls-2" d="M114.73,27.54h-4.8V24.9h12.95v2.64h-4.79V41.65h-3.36Z" transform="translate(0 -0.09)"/><path class="cls-2" d="M125,24.9h9.88v2.64h-6.52v4.13h6v2.64h-6V39H135v2.64H125Z" transform="translate(0 -0.09)"/><path class="cls-2" d="M138.08,24.9h3.63c3.59,0,7.89-.12,7.89,4.54a3.83,3.83,0,0,1-3.46,3.88v0c.91.07,1.44,1,1.78,1.73l2.68,6.55h-3.74l-2-5.23c-.48-1.25-.91-1.73-2.33-1.73h-1.08v7h-3.36Zm3.36,7.15h1.11c1.65,0,3.54-.24,3.54-2.33s-1.87-2.18-3.54-2.18h-1.11Z" transform="translate(0 -0.09)"/><path class="cls-2" d="M76.21,49.45h4.13L86.72,62h0V49.45H90V66.19h-4.1L79.47,53.67h0V66.19H76.21Z" transform="translate(0 -0.09)"/><path class="cls-2" d="M93.71,49.45h4.58c5.13,0,9.67,1.73,9.67,8.37s-4.54,8.37-9.67,8.37H93.71Zm3.35,14.11h1.88a5.74,5.74,0,0,0,0-11.47H97.06Z" transform="translate(0 -0.09)"/><path class="cls-2" d="M111,49.45h9.89v2.64h-6.53v4.13h6v2.63h-6v4.71H121v2.63H111Z" transform="translate(0 -0.09)"/><path class="cls-2" d="M124.09,49.45h3.62c3.6,0,7.89-.12,7.89,4.54a3.82,3.82,0,0,1-3.45,3.88v.05c.91.07,1.44,1,1.78,1.73l2.68,6.54h-3.74l-2-5.22c-.48-1.25-.92-1.73-2.33-1.73h-1.08v6.95h-3.36Zm3.36,7.15h1.1c1.66,0,3.55-.24,3.55-2.33s-1.87-2.18-3.55-2.18h-1.1Z" transform="translate(0 -0.09)"/><path class="cls-2" d="M76.21.38h3.62c3.6,0,7.89-.12,7.89,4.53A3.83,3.83,0,0,1,84.27,8.8v0c.91.08,1.44,1,1.78,1.73l2.68,6.55H85l-2-5.23c-.48-1.25-.92-1.73-2.33-1.73H79.57v7H76.21Zm3.36,7.14h1.1c1.66,0,3.55-.24,3.55-2.32S82.35,3,80.67,3h-1.1Z" transform="translate(0 -0.09)"/><path class="cls-2" d="M91.16.38h9.89V3H94.52V7.14h6V9.78h-6v4.7h6.57v2.64H91.16Z" transform="translate(0 -0.09)"/></svg>