<svg xmlns="http://www.w3.org/2000/svg" xmlns:xlink="http://www.w3.org/1999/xlink" data-v-223f4b97="" version="1.2" width="210mm" height="110mm">
   <svg width="46mm" height="46mm" x="67mm" y="22mm"><path transform="scale(-1,1) translate(-175,0)" d="M0,0 V2.85 H2.85 V0 H0 Z M0,2.85 V5.70 H2.85 V2.85 H0 Z M0,5.70 V8.55 H2.85 V5.70 H0 Z M0,8.55 V11.40 H2.85 V8.55 H0 Z M0,11.40 V14.25 H2.85 V11.40 H0 Z M0,14.25 V17.10 H2.85 V14.25 H0 Z M0,17.10 V19.95 H2.85 V17.10 H0 Z M0,22.80 V25.65 H2.85 V22.80 H0 Z M0,28.50 V31.35 H2.85 V28.50 H0 Z M0,31.35 V34.20 H2.85 V31.35 H0 Z M0,34.20 V37.05 H2.85 V34.20 H0 Z M0,39.90 V42.75 H2.85 V39.90 H0 Z M0,42.75 V45.60 H2.85 V42.75 H0 Z M0,51.30 V54.15 H2.85 V51.30 H0 Z M0,54.15 V57.00 H2.85 V54.15 H0 Z M0,62.70 V65.55 H2.85 V62.70 H0 Z M0,65.55 V68.40 H2.85 V65.55 H0 Z M0,68.40 V71.25 H2.85 V68.40 H0 Z M0,71.25 V74.10 H2.85 V71.25 H0 Z M0,74.10 V76.95 H2.85 V74.10 H0 Z M0,79.80 V82.65 H2.85 V79.80 H0 Z M0,82.65 V85.50 H2.85 V82.65 H0 Z M0,85.50 V88.36 H2.85 V85.50 H0 Z M0,96.91 V99.76 H2.85 V96.91 H0 Z M0,99.76 V102.61 H2.85 V99.76 H0 Z M0,102.61 V105.46 H2.85 V102.61 H0 Z M0,105.46 V108.31 H2.85 V105.46 H0 Z M0,108.31 V111.16 H2.85 V108.31 H0 Z M0,111.16 V114.01 H2.85 V111.16 H0 Z M0,116.86 V119.71 H2.85 V116.86 H0 Z M0,119.71 V122.56 H2.85 V119.71 H0 Z M0,122.56 V125.41 H2.85 V122.56 H0 Z M0,136.81 V139.66 H2.85 V136.81 H0 Z M0,145.36 V148.21 H2.85 V145.36 H0 Z M0,148.21 V151.06 H2.85 V148.21 H0 Z M0,153.91 V156.76 H2.85 V153.91 H0 Z M0,156.76 V159.61 H2.85 V156.76 H0 Z M0,159.61 V162.46 H2.85 V159.61 H0 Z M0,162.46 V165.31 H2.85 V162.46 H0 Z M0,165.31 V168.16 H2.85 V165.31 H0 Z M0,168.16 V171.01 H2.85 V168.16 H0 Z M0,171.01 V173.86 H2.85 V171.01 H0 Z M2.85,0 V2.85 H5.70 V0 H2.85 Z M2.85,17.10 V19.95 H5.70 V17.10 H2.85 Z M2.85,28.50 V31.35 H5.70 V28.50 H2.85 Z M2.85,48.45 V51.30 H5.70 V48.45 H2.85 Z M2.85,54.15 V57.00 H5.70 V54.15 H2.85 Z M2.85,59.85 V62.70 H5.70 V59.85 H2.85 Z M2.85,68.40 V71.25 H5.70 V68.40 H2.85 Z M2.85,85.50 V88.36 H5.70 V85.50 H2.85 Z M2.85,88.36 V91.21 H5.70 V88.36 H2.85 Z M2.85,102.61 V105.46 H5.70 V102.61 H2.85 Z M2.85,108.31 V111.16 H5.70 V108.31 H2.85 Z M2.85,116.86 V119.71 H5.70 V116.86 H2.85 Z M2.85,119.71 V122.56 H5.70 V119.71 H2.85 Z M2.85,122.56 V125.41 H5.70 V122.56 H2.85 Z M2.85,128.26 V131.11 H5.70 V128.26 H2.85 Z M2.85,145.36 V148.21 H5.70 V145.36 H2.85 Z M2.85,148.21 V151.06 H5.70 V148.21 H2.85 Z M2.85,153.91 V156.76 H5.70 V153.91 H2.85 Z M2.85,171.01 V173.86 H5.70 V171.01 H2.85 Z M5.70,0 V2.85 H8.55 V0 H5.70 Z M5.70,5.70 V8.55 H8.55 V5.70 H5.70 Z M5.70,8.55 V11.40 H8.55 V8.55 H5.70 Z M5.70,11.40 V14.25 H8.55 V11.40 H5.70 Z M5.70,17.10 V19.95 H8.55 V17.10 H5.70 Z M5.70,22.80 V25.65 H8.55 V22.80 H5.70 Z M5.70,37.05 V39.90 H8.55 V37.05 H5.70 Z M5.70,45.60 V48.45 H8.55 V45.60 H5.70 Z M5.70,48.45 V51.30 H8.55 V48.45 H5.70 Z M5.70,54.15 V57.00 H8.55 V54.15 H5.70 Z M5.70,57.00 V59.85 H8.55 V57.00 H5.70 Z M5.70,62.70 V65.55 H8.55 V62.70 H5.70 Z M5.70,65.55 V68.40 H8.55 V65.55 H5.70 Z M5.70,71.25 V74.10 H8.55 V71.25 H5.70 Z M5.70,79.80 V82.65 H8.55 V79.80 H5.70 Z M5.70,91.21 V94.06 H8.55 V91.21 H5.70 Z M5.70,96.91 V99.76 H8.55 V96.91 H5.70 Z M5.70,99.76 V102.61 H8.55 V99.76 H5.70 Z M5.70,102.61 V105.46 H8.55 V102.61 H5.70 Z M5.70,105.46 V108.31 H8.55 V105.46 H5.70 Z M5.70,111.16 V114.01 H8.55 V111.16 H5.70 Z M5.70,114.01 V116.86 H8.55 V114.01 H5.70 Z M5.70,122.56 V125.41 H8.55 V122.56 H5.70 Z M5.70,125.41 V128.26 H8.55 V125.41 H5.70 Z M5.70,136.81 V139.66 H8.55 V136.81 H5.70 Z M5.70,142.51 V145.36 H8.55 V142.51 H5.70 Z M5.70,145.36 V148.21 H8.55 V145.36 H5.70 Z M5.70,148.21 V151.06 H8.55 V148.21 H5.70 Z M5.70,153.91 V156.76 H8.55 V153.91 H5.70 Z M5.70,159.61 V162.46 H8.55 V159.61 H5.70 Z M5.70,162.46 V165.31 H8.55 V162.46 H5.70 Z M5.70,165.31 V168.16 H8.55 V165.31 H5.70 Z M5.70,171.01 V173.86 H8.55 V171.01 H5.70 Z M8.55,0 V2.85 H11.40 V0 H8.55 Z M8.55,5.70 V8.55 H11.40 V5.70 H8.55 Z M8.55,8.55 V11.40 H11.40 V8.55 H8.55 Z M8.55,11.40 V14.25 H11.40 V11.40 H8.55 Z M8.55,17.10 V19.95 H11.40 V17.10 H8.55 Z M8.55,22.80 V25.65 H11.40 V22.80 H8.55 Z M8.55,31.35 V34.20 H11.40 V31.35 H8.55 Z M8.55,37.05 V39.90 H11.40 V37.05 H8.55 Z M8.55,39.90 V42.75 H11.40 V39.90 H8.55 Z M8.55,79.80 V82.65 H11.40 V79.80 H8.55 Z M8.55,88.36 V91.21 H11.40 V88.36 H8.55 Z M8.55,91.21 V94.06 H11.40 V91.21 H8.55 Z M8.55,94.06 V96.91 H11.40 V94.06 H8.55 Z M8.55,108.31 V111.16 H11.40 V108.31 H8.55 Z M8.55,111.16 V114.01 H11.40 V111.16 H8.55 Z M8.55,122.56 V125.41 H11.40 V122.56 H8.55 Z M8.55,125.41 V128.26 H11.40 V125.41 H8.55 Z M8.55,131.11 V133.96 H11.40 V131.11 H8.55 Z M8.55,139.66 V142.51 H11.40 V139.66 H8.55 Z M8.55,142.51 V145.36 H11.40 V142.51 H8.55 Z M8.55,148.21 V151.06 H11.40 V148.21 H8.55 Z M8.55,153.91 V156.76 H11.40 V153.91 H8.55 Z M8.55,159.61 V162.46 H11.40 V159.61 H8.55 Z M8.55,162.46 V165.31 H11.40 V162.46 H8.55 Z M8.55,165.31 V168.16 H11.40 V165.31 H8.55 Z M8.55,171.01 V173.86 H11.40 V171.01 H8.55 Z M11.40,0 V2.85 H14.25 V0 H11.40 Z M11.40,5.70 V8.55 H14.25 V5.70 H11.40 Z M11.40,8.55 V11.40 H14.25 V8.55 H11.40 Z M11.40,11.40 V14.25 H14.25 V11.40 H11.40 Z M11.40,17.10 V19.95 H14.25 V17.10 H11.40 Z M11.40,28.50 V31.35 H14.25 V28.50 H11.40 Z M11.40,31.35 V34.20 H14.25 V31.35 H11.40 Z M11.40,37.05 V39.90 H14.25 V37.05 H11.40 Z M11.40,42.75 V45.60 H14.25 V42.75 H11.40 Z M11.40,45.60 V48.45 H14.25 V45.60 H11.40 Z M11.40,51.30 V54.15 H14.25 V51.30 H11.40 Z M11.40,59.85 V62.70 H14.25 V59.85 H11.40 Z M11.40,65.55 V68.40 H14.25 V65.55 H11.40 Z M11.40,74.10 V76.95 H14.25 V74.10 H11.40 Z M11.40,76.95 V79.80 H14.25 V76.95 H11.40 Z M11.40,79.80 V82.65 H14.25 V79.80 H11.40 Z M11.40,82.65 V85.50 H14.25 V82.65 H11.40 Z M11.40,85.50 V88.36 H14.25 V85.50 H11.40 Z M11.40,88.36 V91.21 H14.25 V88.36 H11.40 Z M11.40,91.21 V94.06 H14.25 V91.21 H11.40 Z M11.40,94.06 V96.91 H14.25 V94.06 H11.40 Z M11.40,96.91 V99.76 H14.25 V96.91 H11.40 Z M11.40,99.76 V102.61 H14.25 V99.76 H11.40 Z M11.40,102.61 V105.46 H14.25 V102.61 H11.40 Z M11.40,105.46 V108.31 H14.25 V105.46 H11.40 Z M11.40,108.31 V111.16 H14.25 V108.31 H11.40 Z M11.40,131.11 V133.96 H14.25 V131.11 H11.40 Z M11.40,133.96 V136.81 H14.25 V133.96 H11.40 Z M11.40,136.81 V139.66 H14.25 V136.81 H11.40 Z M11.40,142.51 V145.36 H14.25 V142.51 H11.40 Z M11.40,145.36 V148.21 H14.25 V145.36 H11.40 Z M11.40,153.91 V156.76 H14.25 V153.91 H11.40 Z M11.40,159.61 V162.46 H14.25 V159.61 H11.40 Z M11.40,162.46 V165.31 H14.25 V162.46 H11.40 Z M11.40,165.31 V168.16 H14.25 V165.31 H11.40 Z M11.40,171.01 V173.86 H14.25 V171.01 H11.40 Z M14.25,0 V2.85 H17.10 V0 H14.25 Z M14.25,17.10 V19.95 H17.10 V17.10 H14.25 Z M14.25,22.80 V25.65 H17.10 V22.80 H14.25 Z M14.25,28.50 V31.35 H17.10 V28.50 H14.25 Z M14.25,39.90 V42.75 H17.10 V39.90 H14.25 Z M14.25,42.75 V45.60 H17.10 V42.75 H14.25 Z M14.25,57.00 V59.85 H17.10 V57.00 H14.25 Z M14.25,59.85 V62.70 H17.10 V59.85 H14.25 Z M14.25,68.40 V71.25 H17.10 V68.40 H14.25 Z M14.25,76.95 V79.80 H17.10 V76.95 H14.25 Z M14.25,79.80 V82.65 H17.10 V79.80 H14.25 Z M14.25,91.21 V94.06 H17.10 V91.21 H14.25 Z M14.25,94.06 V96.91 H17.10 V94.06 H14.25 Z M14.25,102.61 V105.46 H17.10 V102.61 H14.25 Z M14.25,108.31 V111.16 H17.10 V108.31 H14.25 Z M14.25,125.41 V128.26 H17.10 V125.41 H14.25 Z M14.25,131.11 V133.96 H17.10 V131.11 H14.25 Z M14.25,142.51 V145.36 H17.10 V142.51 H14.25 Z M14.25,153.91 V156.76 H17.10 V153.91 H14.25 Z M14.25,171.01 V173.86 H17.10 V171.01 H14.25 Z M17.10,0 V2.85 H19.95 V0 H17.10 Z M17.10,2.85 V5.70 H19.95 V2.85 H17.10 Z M17.10,5.70 V8.55 H19.95 V5.70 H17.10 Z M17.10,8.55 V11.40 H19.95 V8.55 H17.10 Z M17.10,11.40 V14.25 H19.95 V11.40 H17.10 Z M17.10,14.25 V17.10 H19.95 V14.25 H17.10 Z M17.10,17.10 V19.95 H19.95 V17.10 H17.10 Z M17.10,22.80 V25.65 H19.95 V22.80 H17.10 Z M17.10,28.50 V31.35 H19.95 V28.50 H17.10 Z M17.10,34.20 V37.05 H19.95 V34.20 H17.10 Z M17.10,39.90 V42.75 H19.95 V39.90 H17.10 Z M17.10,45.60 V48.45 H19.95 V45.60 H17.10 Z M17.10,51.30 V54.15 H19.95 V51.30 H17.10 Z M17.10,57.00 V59.85 H19.95 V57.00 H17.10 Z M17.10,62.70 V65.55 H19.95 V62.70 H17.10 Z M17.10,68.40 V71.25 H19.95 V68.40 H17.10 Z M17.10,74.10 V76.95 H19.95 V74.10 H17.10 Z M17.10,79.80 V82.65 H19.95 V79.80 H17.10 Z M17.10,85.50 V88.36 H19.95 V85.50 H17.10 Z M17.10,91.21 V94.06 H19.95 V91.21 H17.10 Z M17.10,96.91 V99.76 H19.95 V96.91 H17.10 Z M17.10,102.61 V105.46 H19.95 V102.61 H17.10 Z M17.10,108.31 V111.16 H19.95 V108.31 H17.10 Z M17.10,114.01 V116.86 H19.95 V114.01 H17.10 Z M17.10,119.71 V122.56 H19.95 V119.71 H17.10 Z M17.10,125.41 V128.26 H19.95 V125.41 H17.10 Z M17.10,131.11 V133.96 H19.95 V131.11 H17.10 Z M17.10,136.81 V139.66 H19.95 V136.81 H17.10 Z M17.10,142.51 V145.36 H19.95 V142.51 H17.10 Z M17.10,148.21 V151.06 H19.95 V148.21 H17.10 Z M17.10,153.91 V156.76 H19.95 V153.91 H17.10 Z M17.10,156.76 V159.61 H19.95 V156.76 H17.10 Z M17.10,159.61 V162.46 H19.95 V159.61 H17.10 Z M17.10,162.46 V165.31 H19.95 V162.46 H17.10 Z M17.10,165.31 V168.16 H19.95 V165.31 H17.10 Z M17.10,168.16 V171.01 H19.95 V168.16 H17.10 Z M17.10,171.01 V173.86 H19.95 V171.01 H17.10 Z M19.95,22.80 V25.65 H22.80 V22.80 H19.95 Z M19.95,37.05 V39.90 H22.80 V37.05 H19.95 Z M19.95,39.90 V42.75 H22.80 V39.90 H19.95 Z M19.95,45.60 V48.45 H22.80 V45.60 H19.95 Z M19.95,51.30 V54.15 H22.80 V51.30 H19.95 Z M19.95,71.25 V74.10 H22.80 V71.25 H19.95 Z M19.95,74.10 V76.95 H22.80 V74.10 H19.95 Z M19.95,76.95 V79.80 H22.80 V76.95 H19.95 Z M19.95,79.80 V82.65 H22.80 V79.80 H19.95 Z M19.95,91.21 V94.06 H22.80 V91.21 H19.95 Z M19.95,96.91 V99.76 H22.80 V96.91 H19.95 Z M19.95,105.46 V108.31 H22.80 V105.46 H19.95 Z M19.95,111.16 V114.01 H22.80 V111.16 H19.95 Z M19.95,114.01 V116.86 H22.80 V114.01 H19.95 Z M19.95,116.86 V119.71 H22.80 V116.86 H19.95 Z M19.95,119.71 V122.56 H22.80 V119.71 H19.95 Z M19.95,125.41 V128.26 H22.80 V125.41 H19.95 Z M19.95,128.26 V131.11 H22.80 V128.26 H19.95 Z M19.95,133.96 V136.81 H22.80 V133.96 H19.95 Z M19.95,148.21 V151.06 H22.80 V148.21 H19.95 Z M22.80,0 V2.85 H25.65 V0 H22.80 Z M22.80,2.85 V5.70 H25.65 V2.85 H22.80 Z M22.80,8.55 V11.40 H25.65 V8.55 H22.80 Z M22.80,17.10 V19.95 H25.65 V17.10 H22.80 Z M22.80,19.95 V22.80 H25.65 V19.95 H22.80 Z M22.80,28.50 V31.35 H25.65 V28.50 H22.80 Z M22.80,34.20 V37.05 H25.65 V34.20 H22.80 Z M22.80,37.05 V39.90 H25.65 V37.05 H22.80 Z M22.80,39.90 V42.75 H25.65 V39.90 H22.80 Z M22.80,45.60 V48.45 H25.65 V45.60 H22.80 Z M22.80,48.45 V51.30 H25.65 V48.45 H22.80 Z M22.80,51.30 V54.15 H25.65 V51.30 H22.80 Z M22.80,54.15 V57.00 H25.65 V54.15 H22.80 Z M22.80,57.00 V59.85 H25.65 V57.00 H22.80 Z M22.80,62.70 V65.55 H25.65 V62.70 H22.80 Z M22.80,65.55 V68.40 H25.65 V65.55 H22.80 Z M22.80,71.25 V74.10 H25.65 V71.25 H22.80 Z M22.80,79.80 V82.65 H25.65 V79.80 H22.80 Z M22.80,82.65 V85.50 H25.65 V82.65 H22.80 Z M22.80,85.50 V88.36 H25.65 V85.50 H22.80 Z M22.80,88.36 V91.21 H25.65 V88.36 H22.80 Z M22.80,91.21 V94.06 H25.65 V91.21 H22.80 Z M22.80,96.91 V99.76 H25.65 V96.91 H22.80 Z M22.80,102.61 V105.46 H25.65 V102.61 H22.80 Z M22.80,105.46 V108.31 H25.65 V105.46 H22.80 Z M22.80,108.31 V111.16 H25.65 V108.31 H22.80 Z M22.80,114.01 V116.86 H25.65 V114.01 H22.80 Z M22.80,139.66 V142.51 H25.65 V139.66 H22.80 Z M22.80,148.21 V151.06 H25.65 V148.21 H22.80 Z M22.80,151.06 V153.91 H25.65 V151.06 H22.80 Z M22.80,153.91 V156.76 H25.65 V153.91 H22.80 Z M22.80,156.76 V159.61 H25.65 V156.76 H22.80 Z M22.80,162.46 V165.31 H25.65 V162.46 H22.80 Z M22.80,165.31 V168.16 H25.65 V165.31 H22.80 Z M22.80,171.01 V173.86 H25.65 V171.01 H22.80 Z M25.65,0 V2.85 H28.50 V0 H25.65 Z M25.65,5.70 V8.55 H28.50 V5.70 H25.65 Z M25.65,8.55 V11.40 H28.50 V8.55 H25.65 Z M25.65,11.40 V14.25 H28.50 V11.40 H25.65 Z M25.65,19.95 V22.80 H28.50 V19.95 H25.65 Z M25.65,34.20 V37.05 H28.50 V34.20 H25.65 Z M25.65,42.75 V45.60 H28.50 V42.75 H25.65 Z M25.65,48.45 V51.30 H28.50 V48.45 H25.65 Z M25.65,51.30 V54.15 H28.50 V51.30 H25.65 Z M25.65,54.15 V57.00 H28.50 V54.15 H25.65 Z M25.65,68.40 V71.25 H28.50 V68.40 H25.65 Z M25.65,74.10 V76.95 H28.50 V74.10 H25.65 Z M25.65,79.80 V82.65 H28.50 V79.80 H25.65 Z M25.65,82.65 V85.50 H28.50 V82.65 H25.65 Z M25.65,85.50 V88.36 H28.50 V85.50 H25.65 Z M25.65,88.36 V91.21 H28.50 V88.36 H25.65 Z M25.65,94.06 V96.91 H28.50 V94.06 H25.65 Z M25.65,102.61 V105.46 H28.50 V102.61 H25.65 Z M25.65,105.46 V108.31 H28.50 V105.46 H25.65 Z M25.65,122.56 V125.41 H28.50 V122.56 H25.65 Z M25.65,128.26 V131.11 H28.50 V128.26 H25.65 Z M25.65,136.81 V139.66 H28.50 V136.81 H25.65 Z M25.65,142.51 V145.36 H28.50 V142.51 H25.65 Z M25.65,145.36 V148.21 H28.50 V145.36 H25.65 Z M25.65,156.76 V159.61 H28.50 V156.76 H25.65 Z M25.65,162.46 V165.31 H28.50 V162.46 H25.65 Z M25.65,168.16 V171.01 H28.50 V168.16 H25.65 Z M25.65,171.01 V173.86 H28.50 V171.01 H25.65 Z M28.50,8.55 V11.40 H31.35 V8.55 H28.50 Z M28.50,11.40 V14.25 H31.35 V11.40 H28.50 Z M28.50,17.10 V19.95 H31.35 V17.10 H28.50 Z M28.50,22.80 V25.65 H31.35 V22.80 H28.50 Z M28.50,31.35 V34.20 H31.35 V31.35 H28.50 Z M28.50,34.20 V37.05 H31.35 V34.20 H28.50 Z M28.50,37.05 V39.90 H31.35 V37.05 H28.50 Z M28.50,39.90 V42.75 H31.35 V39.90 H28.50 Z M28.50,42.75 V45.60 H31.35 V42.75 H28.50 Z M28.50,45.60 V48.45 H31.35 V45.60 H28.50 Z M28.50,48.45 V51.30 H31.35 V48.45 H28.50 Z M28.50,51.30 V54.15 H31.35 V51.30 H28.50 Z M28.50,54.15 V57.00 H31.35 V54.15 H28.50 Z M28.50,59.85 V62.70 H31.35 V59.85 H28.50 Z M28.50,76.95 V79.80 H31.35 V76.95 H28.50 Z M28.50,79.80 V82.65 H31.35 V79.80 H28.50 Z M28.50,91.21 V94.06 H31.35 V91.21 H28.50 Z M28.50,94.06 V96.91 H31.35 V94.06 H28.50 Z M28.50,96.91 V99.76 H31.35 V96.91 H28.50 Z M28.50,99.76 V102.61 H31.35 V99.76 H28.50 Z M28.50,108.31 V111.16 H31.35 V108.31 H28.50 Z M28.50,111.16 V114.01 H31.35 V111.16 H28.50 Z M28.50,119.71 V122.56 H31.35 V119.71 H28.50 Z M28.50,122.56 V125.41 H31.35 V122.56 H28.50 Z M28.50,131.11 V133.96 H31.35 V131.11 H28.50 Z M28.50,136.81 V139.66 H31.35 V136.81 H28.50 Z M28.50,142.51 V145.36 H31.35 V142.51 H28.50 Z M28.50,145.36 V148.21 H31.35 V145.36 H28.50 Z M28.50,148.21 V151.06 H31.35 V148.21 H28.50 Z M28.50,151.06 V153.91 H31.35 V151.06 H28.50 Z M28.50,153.91 V156.76 H31.35 V153.91 H28.50 Z M28.50,162.46 V165.31 H31.35 V162.46 H28.50 Z M28.50,165.31 V168.16 H31.35 V165.31 H28.50 Z M31.35,2.85 V5.70 H34.20 V2.85 H31.35 Z M31.35,5.70 V8.55 H34.20 V5.70 H31.35 Z M31.35,8.55 V11.40 H34.20 V8.55 H31.35 Z M31.35,14.25 V17.10 H34.20 V14.25 H31.35 Z M31.35,19.95 V22.80 H34.20 V19.95 H31.35 Z M31.35,22.80 V25.65 H34.20 V22.80 H31.35 Z M31.35,25.65 V28.50 H34.20 V25.65 H31.35 Z M31.35,31.35 V34.20 H34.20 V31.35 H31.35 Z M31.35,34.20 V37.05 H34.20 V34.20 H31.35 Z M31.35,37.05 V39.90 H34.20 V37.05 H31.35 Z M31.35,45.60 V48.45 H34.20 V45.60 H31.35 Z M31.35,51.30 V54.15 H34.20 V51.30 H31.35 Z M31.35,54.15 V57.00 H34.20 V54.15 H31.35 Z M31.35,59.85 V62.70 H34.20 V59.85 H31.35 Z M31.35,71.25 V74.10 H34.20 V71.25 H31.35 Z M31.35,74.10 V76.95 H34.20 V74.10 H31.35 Z M31.35,79.80 V82.65 H34.20 V79.80 H31.35 Z M31.35,82.65 V85.50 H34.20 V82.65 H31.35 Z M31.35,91.21 V94.06 H34.20 V91.21 H31.35 Z M31.35,99.76 V102.61 H34.20 V99.76 H31.35 Z M31.35,108.31 V111.16 H34.20 V108.31 H31.35 Z M31.35,114.01 V116.86 H34.20 V114.01 H31.35 Z M31.35,119.71 V122.56 H34.20 V119.71 H31.35 Z M31.35,122.56 V125.41 H34.20 V122.56 H31.35 Z M31.35,125.41 V128.26 H34.20 V125.41 H31.35 Z M31.35,128.26 V131.11 H34.20 V128.26 H31.35 Z M31.35,131.11 V133.96 H34.20 V131.11 H31.35 Z M31.35,133.96 V136.81 H34.20 V133.96 H31.35 Z M31.35,139.66 V142.51 H34.20 V139.66 H31.35 Z M31.35,145.36 V148.21 H34.20 V145.36 H31.35 Z M31.35,151.06 V153.91 H34.20 V151.06 H31.35 Z M31.35,153.91 V156.76 H34.20 V153.91 H31.35 Z M31.35,156.76 V159.61 H34.20 V156.76 H31.35 Z M31.35,162.46 V165.31 H34.20 V162.46 H31.35 Z M31.35,165.31 V168.16 H34.20 V165.31 H31.35 Z M31.35,171.01 V173.86 H34.20 V171.01 H31.35 Z M34.20,11.40 V14.25 H37.05 V11.40 H34.20 Z M34.20,14.25 V17.10 H37.05 V14.25 H34.20 Z M34.20,17.10 V19.95 H37.05 V17.10 H34.20 Z M34.20,25.65 V28.50 H37.05 V25.65 H34.20 Z M34.20,31.35 V34.20 H37.05 V31.35 H34.20 Z M34.20,34.20 V37.05 H37.05 V34.20 H34.20 Z M34.20,37.05 V39.90 H37.05 V37.05 H34.20 Z M34.20,39.90 V42.75 H37.05 V39.90 H34.20 Z M34.20,42.75 V45.60 H37.05 V42.75 H34.20 Z M34.20,48.45 V51.30 H37.05 V48.45 H34.20 Z M34.20,57.00 V59.85 H37.05 V57.00 H34.20 Z M34.20,62.70 V65.55 H37.05 V62.70 H34.20 Z M34.20,65.55 V68.40 H37.05 V65.55 H34.20 Z M34.20,68.40 V71.25 H37.05 V68.40 H34.20 Z M34.20,71.25 V74.10 H37.05 V71.25 H34.20 Z M34.20,74.10 V76.95 H37.05 V74.10 H34.20 Z M34.20,79.80 V82.65 H37.05 V79.80 H34.20 Z M34.20,91.21 V94.06 H37.05 V91.21 H34.20 Z M34.20,96.91 V99.76 H37.05 V96.91 H34.20 Z M34.20,99.76 V102.61 H37.05 V99.76 H34.20 Z M34.20,102.61 V105.46 H37.05 V102.61 H34.20 Z M34.20,105.46 V108.31 H37.05 V105.46 H34.20 Z M34.20,108.31 V111.16 H37.05 V108.31 H34.20 Z M34.20,116.86 V119.71 H37.05 V116.86 H34.20 Z M34.20,119.71 V122.56 H37.05 V119.71 H34.20 Z M34.20,128.26 V131.11 H37.05 V128.26 H34.20 Z M34.20,131.11 V133.96 H37.05 V131.11 H34.20 Z M34.20,139.66 V142.51 H37.05 V139.66 H34.20 Z M34.20,142.51 V145.36 H37.05 V142.51 H34.20 Z M34.20,145.36 V148.21 H37.05 V145.36 H34.20 Z M34.20,151.06 V153.91 H37.05 V151.06 H34.20 Z M34.20,153.91 V156.76 H37.05 V153.91 H34.20 Z M34.20,162.46 V165.31 H37.05 V162.46 H34.20 Z M34.20,168.16 V171.01 H37.05 V168.16 H34.20 Z M37.05,2.85 V5.70 H39.90 V2.85 H37.05 Z M37.05,14.25 V17.10 H39.90 V14.25 H37.05 Z M37.05,19.95 V22.80 H39.90 V19.95 H37.05 Z M37.05,22.80 V25.65 H39.90 V22.80 H37.05 Z M37.05,28.50 V31.35 H39.90 V28.50 H37.05 Z M37.05,31.35 V34.20 H39.90 V31.35 H37.05 Z M37.05,34.20 V37.05 H39.90 V34.20 H37.05 Z M37.05,37.05 V39.90 H39.90 V37.05 H37.05 Z M37.05,45.60 V48.45 H39.90 V45.60 H37.05 Z M37.05,48.45 V51.30 H39.90 V48.45 H37.05 Z M37.05,54.15 V57.00 H39.90 V54.15 H37.05 Z M37.05,57.00 V59.85 H39.90 V57.00 H37.05 Z M37.05,62.70 V65.55 H39.90 V62.70 H37.05 Z M37.05,71.25 V74.10 H39.90 V71.25 H37.05 Z M37.05,76.95 V79.80 H39.90 V76.95 H37.05 Z M37.05,79.80 V82.65 H39.90 V79.80 H37.05 Z M37.05,82.65 V85.50 H39.90 V82.65 H37.05 Z M37.05,88.36 V91.21 H39.90 V88.36 H37.05 Z M37.05,96.91 V99.76 H39.90 V96.91 H37.05 Z M37.05,99.76 V102.61 H39.90 V99.76 H37.05 Z M37.05,105.46 V108.31 H39.90 V105.46 H37.05 Z M37.05,111.16 V114.01 H39.90 V111.16 H37.05 Z M37.05,116.86 V119.71 H39.90 V116.86 H37.05 Z M37.05,119.71 V122.56 H39.90 V119.71 H37.05 Z M37.05,125.41 V128.26 H39.90 V125.41 H37.05 Z M37.05,133.96 V136.81 H39.90 V133.96 H37.05 Z M37.05,139.66 V142.51 H39.90 V139.66 H37.05 Z M37.05,145.36 V148.21 H39.90 V145.36 H37.05 Z M37.05,148.21 V151.06 H39.90 V148.21 H37.05 Z M37.05,156.76 V159.61 H39.90 V156.76 H37.05 Z M37.05,168.16 V171.01 H39.90 V168.16 H37.05 Z M39.90,0 V2.85 H42.75 V0 H39.90 Z M39.90,5.70 V8.55 H42.75 V5.70 H39.90 Z M39.90,14.25 V17.10 H42.75 V14.25 H39.90 Z M39.90,17.10 V19.95 H42.75 V17.10 H39.90 Z M39.90,22.80 V25.65 H42.75 V22.80 H39.90 Z M39.90,28.50 V31.35 H42.75 V28.50 H39.90 Z M39.90,48.45 V51.30 H42.75 V48.45 H39.90 Z M39.90,57.00 V59.85 H42.75 V57.00 H39.90 Z M39.90,88.36 V91.21 H42.75 V88.36 H39.90 Z M39.90,96.91 V99.76 H42.75 V96.91 H39.90 Z M39.90,99.76 V102.61 H42.75 V99.76 H39.90 Z M39.90,108.31 V111.16 H42.75 V108.31 H39.90 Z M39.90,114.01 V116.86 H42.75 V114.01 H39.90 Z M39.90,116.86 V119.71 H42.75 V116.86 H39.90 Z M39.90,119.71 V122.56 H42.75 V119.71 H39.90 Z M39.90,125.41 V128.26 H42.75 V125.41 H39.90 Z M39.90,131.11 V133.96 H42.75 V131.11 H39.90 Z M39.90,133.96 V136.81 H42.75 V133.96 H39.90 Z M39.90,136.81 V139.66 H42.75 V136.81 H39.90 Z M39.90,139.66 V142.51 H42.75 V139.66 H39.90 Z M39.90,142.51 V145.36 H42.75 V142.51 H39.90 Z M39.90,148.21 V151.06 H42.75 V148.21 H39.90 Z M39.90,153.91 V156.76 H42.75 V153.91 H39.90 Z M39.90,162.46 V165.31 H42.75 V162.46 H39.90 Z M39.90,171.01 V173.86 H42.75 V171.01 H39.90 Z M42.75,2.85 V5.70 H45.60 V2.85 H42.75 Z M42.75,5.70 V8.55 H45.60 V5.70 H42.75 Z M42.75,8.55 V11.40 H45.60 V8.55 H42.75 Z M42.75,25.65 V28.50 H45.60 V25.65 H42.75 Z M42.75,28.50 V31.35 H45.60 V28.50 H42.75 Z M42.75,31.35 V34.20 H45.60 V31.35 H42.75 Z M42.75,37.05 V39.90 H45.60 V37.05 H42.75 Z M42.75,57.00 V59.85 H45.60 V57.00 H42.75 Z M42.75,62.70 V65.55 H45.60 V62.70 H42.75 Z M42.75,65.55 V68.40 H45.60 V65.55 H42.75 Z M42.75,88.36 V91.21 H45.60 V88.36 H42.75 Z M42.75,96.91 V99.76 H45.60 V96.91 H42.75 Z M42.75,99.76 V102.61 H45.60 V99.76 H42.75 Z M42.75,119.71 V122.56 H45.60 V119.71 H42.75 Z M42.75,122.56 V125.41 H45.60 V122.56 H42.75 Z M42.75,125.41 V128.26 H45.60 V125.41 H42.75 Z M42.75,128.26 V131.11 H45.60 V128.26 H42.75 Z M42.75,133.96 V136.81 H45.60 V133.96 H42.75 Z M42.75,136.81 V139.66 H45.60 V136.81 H42.75 Z M42.75,145.36 V148.21 H45.60 V145.36 H42.75 Z M42.75,151.06 V153.91 H45.60 V151.06 H42.75 Z M42.75,156.76 V159.61 H45.60 V156.76 H42.75 Z M42.75,159.61 V162.46 H45.60 V159.61 H42.75 Z M42.75,162.46 V165.31 H45.60 V162.46 H42.75 Z M42.75,165.31 V168.16 H45.60 V165.31 H42.75 Z M42.75,168.16 V171.01 H45.60 V168.16 H42.75 Z M45.60,0 V2.85 H48.45 V0 H45.60 Z M45.60,5.70 V8.55 H48.45 V5.70 H45.60 Z M45.60,11.40 V14.25 H48.45 V11.40 H45.60 Z M45.60,17.10 V19.95 H48.45 V17.10 H45.60 Z M45.60,19.95 V22.80 H48.45 V19.95 H45.60 Z M45.60,22.80 V25.65 H48.45 V22.80 H45.60 Z M45.60,25.65 V28.50 H48.45 V25.65 H45.60 Z M45.60,28.50 V31.35 H48.45 V28.50 H45.60 Z M45.60,34.20 V37.05 H48.45 V34.20 H45.60 Z M45.60,45.60 V48.45 H48.45 V45.60 H45.60 Z M45.60,54.15 V57.00 H48.45 V54.15 H45.60 Z M45.60,68.40 V71.25 H48.45 V68.40 H45.60 Z M45.60,71.25 V74.10 H48.45 V71.25 H45.60 Z M45.60,74.10 V76.95 H48.45 V74.10 H45.60 Z M45.60,76.95 V79.80 H48.45 V76.95 H45.60 Z M45.60,82.65 V85.50 H48.45 V82.65 H45.60 Z M45.60,85.50 V88.36 H48.45 V85.50 H45.60 Z M45.60,88.36 V91.21 H48.45 V88.36 H45.60 Z M45.60,91.21 V94.06 H48.45 V91.21 H45.60 Z M45.60,94.06 V96.91 H48.45 V94.06 H45.60 Z M45.60,102.61 V105.46 H48.45 V102.61 H45.60 Z M45.60,114.01 V116.86 H48.45 V114.01 H45.60 Z M45.60,122.56 V125.41 H48.45 V122.56 H45.60 Z M45.60,125.41 V128.26 H48.45 V125.41 H45.60 Z M45.60,128.26 V131.11 H48.45 V128.26 H45.60 Z M45.60,131.11 V133.96 H48.45 V131.11 H45.60 Z M45.60,136.81 V139.66 H48.45 V136.81 H45.60 Z M45.60,139.66 V142.51 H48.45 V139.66 H45.60 Z M45.60,148.21 V151.06 H48.45 V148.21 H45.60 Z M45.60,151.06 V153.91 H48.45 V151.06 H45.60 Z M45.60,153.91 V156.76 H48.45 V153.91 H45.60 Z M45.60,156.76 V159.61 H48.45 V156.76 H45.60 Z M48.45,0 V2.85 H51.30 V0 H48.45 Z M48.45,8.55 V11.40 H51.30 V8.55 H48.45 Z M48.45,28.50 V31.35 H51.30 V28.50 H48.45 Z M48.45,34.20 V37.05 H51.30 V34.20 H48.45 Z M48.45,37.05 V39.90 H51.30 V37.05 H48.45 Z M48.45,42.75 V45.60 H51.30 V42.75 H48.45 Z M48.45,54.15 V57.00 H51.30 V54.15 H48.45 Z M48.45,57.00 V59.85 H51.30 V57.00 H48.45 Z M48.45,59.85 V62.70 H51.30 V59.85 H48.45 Z M48.45,65.55 V68.40 H51.30 V65.55 H48.45 Z M48.45,71.25 V74.10 H51.30 V71.25 H48.45 Z M48.45,74.10 V76.95 H51.30 V74.10 H48.45 Z M48.45,76.95 V79.80 H51.30 V76.95 H48.45 Z M48.45,82.65 V85.50 H51.30 V82.65 H48.45 Z M48.45,85.50 V88.36 H51.30 V85.50 H48.45 Z M48.45,94.06 V96.91 H51.30 V94.06 H48.45 Z M48.45,96.91 V99.76 H51.30 V96.91 H48.45 Z M48.45,99.76 V102.61 H51.30 V99.76 H48.45 Z M48.45,111.16 V114.01 H51.30 V111.16 H48.45 Z M48.45,119.71 V122.56 H51.30 V119.71 H48.45 Z M48.45,125.41 V128.26 H51.30 V125.41 H48.45 Z M48.45,128.26 V131.11 H51.30 V128.26 H48.45 Z M48.45,131.11 V133.96 H51.30 V131.11 H48.45 Z M48.45,136.81 V139.66 H51.30 V136.81 H48.45 Z M48.45,139.66 V142.51 H51.30 V139.66 H48.45 Z M48.45,145.36 V148.21 H51.30 V145.36 H48.45 Z M48.45,148.21 V151.06 H51.30 V148.21 H48.45 Z M48.45,151.06 V153.91 H51.30 V151.06 H48.45 Z M48.45,162.46 V165.31 H51.30 V162.46 H48.45 Z M48.45,165.31 V168.16 H51.30 V165.31 H48.45 Z M48.45,171.01 V173.86 H51.30 V171.01 H48.45 Z M51.30,0 V2.85 H54.15 V0 H51.30 Z M51.30,17.10 V19.95 H54.15 V17.10 H51.30 Z M51.30,28.50 V31.35 H54.15 V28.50 H51.30 Z M51.30,31.35 V34.20 H54.15 V31.35 H51.30 Z M51.30,34.20 V37.05 H54.15 V34.20 H51.30 Z M51.30,39.90 V42.75 H54.15 V39.90 H51.30 Z M51.30,42.75 V45.60 H54.15 V42.75 H51.30 Z M51.30,48.45 V51.30 H54.15 V48.45 H51.30 Z M51.30,51.30 V54.15 H54.15 V51.30 H51.30 Z M51.30,54.15 V57.00 H54.15 V54.15 H51.30 Z M51.30,65.55 V68.40 H54.15 V65.55 H51.30 Z M51.30,71.25 V74.10 H54.15 V71.25 H51.30 Z M51.30,74.10 V76.95 H54.15 V74.10 H51.30 Z M51.30,79.80 V82.65 H54.15 V79.80 H51.30 Z M51.30,82.65 V85.50 H54.15 V82.65 H51.30 Z M51.30,85.50 V88.36 H54.15 V85.50 H51.30 Z M51.30,91.21 V94.06 H54.15 V91.21 H51.30 Z M51.30,96.91 V99.76 H54.15 V96.91 H51.30 Z M51.30,102.61 V105.46 H54.15 V102.61 H51.30 Z M51.30,105.46 V108.31 H54.15 V105.46 H51.30 Z M51.30,108.31 V111.16 H54.15 V108.31 H51.30 Z M51.30,116.86 V119.71 H54.15 V116.86 H51.30 Z M51.30,119.71 V122.56 H54.15 V119.71 H51.30 Z M51.30,139.66 V142.51 H54.15 V139.66 H51.30 Z M51.30,142.51 V145.36 H54.15 V142.51 H51.30 Z M51.30,145.36 V148.21 H54.15 V145.36 H51.30 Z M51.30,151.06 V153.91 H54.15 V151.06 H51.30 Z M51.30,162.46 V165.31 H54.15 V162.46 H51.30 Z M51.30,168.16 V171.01 H54.15 V168.16 H51.30 Z M51.30,171.01 V173.86 H54.15 V171.01 H51.30 Z M54.15,0 V2.85 H57.00 V0 H54.15 Z M54.15,5.70 V8.55 H57.00 V5.70 H54.15 Z M54.15,8.55 V11.40 H57.00 V8.55 H54.15 Z M54.15,11.40 V14.25 H57.00 V11.40 H54.15 Z M54.15,14.25 V17.10 H57.00 V14.25 H54.15 Z M54.15,25.65 V28.50 H57.00 V25.65 H54.15 Z M54.15,28.50 V31.35 H57.00 V28.50 H54.15 Z M54.15,31.35 V34.20 H57.00 V31.35 H54.15 Z M54.15,34.20 V37.05 H57.00 V34.20 H54.15 Z M54.15,37.05 V39.90 H57.00 V37.05 H54.15 Z M54.15,48.45 V51.30 H57.00 V48.45 H54.15 Z M54.15,51.30 V54.15 H57.00 V51.30 H54.15 Z M54.15,57.00 V59.85 H57.00 V57.00 H54.15 Z M54.15,62.70 V65.55 H57.00 V62.70 H54.15 Z M54.15,65.55 V68.40 H57.00 V65.55 H54.15 Z M54.15,74.10 V76.95 H57.00 V74.10 H54.15 Z M54.15,76.95 V79.80 H57.00 V76.95 H54.15 Z M54.15,79.80 V82.65 H57.00 V79.80 H54.15 Z M54.15,85.50 V88.36 H57.00 V85.50 H54.15 Z M54.15,88.36 V91.21 H57.00 V88.36 H54.15 Z M54.15,94.06 V96.91 H57.00 V94.06 H54.15 Z M54.15,96.91 V99.76 H57.00 V96.91 H54.15 Z M54.15,99.76 V102.61 H57.00 V99.76 H54.15 Z M54.15,102.61 V105.46 H57.00 V102.61 H54.15 Z M54.15,105.46 V108.31 H57.00 V105.46 H54.15 Z M54.15,108.31 V111.16 H57.00 V108.31 H54.15 Z M54.15,122.56 V125.41 H57.00 V122.56 H54.15 Z M54.15,125.41 V128.26 H57.00 V125.41 H54.15 Z M54.15,128.26 V131.11 H57.00 V128.26 H54.15 Z M54.15,133.96 V136.81 H57.00 V133.96 H54.15 Z M54.15,136.81 V139.66 H57.00 V136.81 H54.15 Z M54.15,139.66 V142.51 H57.00 V139.66 H54.15 Z M54.15,142.51 V145.36 H57.00 V142.51 H54.15 Z M54.15,145.36 V148.21 H57.00 V145.36 H54.15 Z M54.15,148.21 V151.06 H57.00 V148.21 H54.15 Z M54.15,151.06 V153.91 H57.00 V151.06 H54.15 Z M54.15,162.46 V165.31 H57.00 V162.46 H54.15 Z M54.15,165.31 V168.16 H57.00 V165.31 H54.15 Z M54.15,171.01 V173.86 H57.00 V171.01 H54.15 Z M57.00,0 V2.85 H59.85 V0 H57.00 Z M57.00,5.70 V8.55 H59.85 V5.70 H57.00 Z M57.00,11.40 V14.25 H59.85 V11.40 H57.00 Z M57.00,14.25 V17.10 H59.85 V14.25 H57.00 Z M57.00,17.10 V19.95 H59.85 V17.10 H57.00 Z M57.00,25.65 V28.50 H59.85 V25.65 H57.00 Z M57.00,28.50 V31.35 H59.85 V28.50 H57.00 Z M57.00,31.35 V34.20 H59.85 V31.35 H57.00 Z M57.00,39.90 V42.75 H59.85 V39.90 H57.00 Z M57.00,45.60 V48.45 H59.85 V45.60 H57.00 Z M57.00,51.30 V54.15 H59.85 V51.30 H57.00 Z M57.00,54.15 V57.00 H59.85 V54.15 H57.00 Z M57.00,62.70 V65.55 H59.85 V62.70 H57.00 Z M57.00,65.55 V68.40 H59.85 V65.55 H57.00 Z M57.00,68.40 V71.25 H59.85 V68.40 H57.00 Z M57.00,71.25 V74.10 H59.85 V71.25 H57.00 Z M57.00,76.95 V79.80 H59.85 V76.95 H57.00 Z M57.00,88.36 V91.21 H59.85 V88.36 H57.00 Z M57.00,102.61 V105.46 H59.85 V102.61 H57.00 Z M57.00,105.46 V108.31 H59.85 V105.46 H57.00 Z M57.00,108.31 V111.16 H59.85 V108.31 H57.00 Z M57.00,111.16 V114.01 H59.85 V111.16 H57.00 Z M57.00,119.71 V122.56 H59.85 V119.71 H57.00 Z M57.00,122.56 V125.41 H59.85 V122.56 H57.00 Z M57.00,128.26 V131.11 H59.85 V128.26 H57.00 Z M57.00,136.81 V139.66 H59.85 V136.81 H57.00 Z M57.00,139.66 V142.51 H59.85 V139.66 H57.00 Z M57.00,145.36 V148.21 H59.85 V145.36 H57.00 Z M57.00,153.91 V156.76 H59.85 V153.91 H57.00 Z M57.00,156.76 V159.61 H59.85 V156.76 H57.00 Z M57.00,165.31 V168.16 H59.85 V165.31 H57.00 Z M57.00,171.01 V173.86 H59.85 V171.01 H57.00 Z M59.85,0 V2.85 H62.70 V0 H59.85 Z M59.85,11.40 V14.25 H62.70 V11.40 H59.85 Z M59.85,22.80 V25.65 H62.70 V22.80 H59.85 Z M59.85,25.65 V28.50 H62.70 V25.65 H59.85 Z M59.85,28.50 V31.35 H62.70 V28.50 H59.85 Z M59.85,37.05 V39.90 H62.70 V37.05 H59.85 Z M59.85,39.90 V42.75 H62.70 V39.90 H59.85 Z M59.85,42.75 V45.60 H62.70 V42.75 H59.85 Z M59.85,51.30 V54.15 H62.70 V51.30 H59.85 Z M59.85,57.00 V59.85 H62.70 V57.00 H59.85 Z M59.85,65.55 V68.40 H62.70 V65.55 H59.85 Z M59.85,71.25 V74.10 H62.70 V71.25 H59.85 Z M59.85,76.95 V79.80 H62.70 V76.95 H59.85 Z M59.85,82.65 V85.50 H62.70 V82.65 H59.85 Z M59.85,94.06 V96.91 H62.70 V94.06 H59.85 Z M59.85,96.91 V99.76 H62.70 V96.91 H59.85 Z M59.85,105.46 V108.31 H62.70 V105.46 H59.85 Z M59.85,108.31 V111.16 H62.70 V108.31 H59.85 Z M59.85,111.16 V114.01 H62.70 V111.16 H59.85 Z M59.85,116.86 V119.71 H62.70 V116.86 H59.85 Z M59.85,119.71 V122.56 H62.70 V119.71 H59.85 Z M59.85,122.56 V125.41 H62.70 V122.56 H59.85 Z M59.85,136.81 V139.66 H62.70 V136.81 H59.85 Z M59.85,156.76 V159.61 H62.70 V156.76 H59.85 Z M59.85,159.61 V162.46 H62.70 V159.61 H59.85 Z M59.85,165.31 V168.16 H62.70 V165.31 H59.85 Z M62.70,5.70 V8.55 H65.55 V5.70 H62.70 Z M62.70,14.25 V17.10 H65.55 V14.25 H62.70 Z M62.70,17.10 V19.95 H65.55 V17.10 H62.70 Z M62.70,37.05 V39.90 H65.55 V37.05 H62.70 Z M62.70,39.90 V42.75 H65.55 V39.90 H62.70 Z M62.70,42.75 V45.60 H65.55 V42.75 H62.70 Z M62.70,54.15 V57.00 H65.55 V54.15 H62.70 Z M62.70,57.00 V59.85 H65.55 V57.00 H62.70 Z M62.70,59.85 V62.70 H65.55 V59.85 H62.70 Z M62.70,65.55 V68.40 H65.55 V65.55 H62.70 Z M62.70,68.40 V71.25 H65.55 V68.40 H62.70 Z M62.70,71.25 V74.10 H65.55 V71.25 H62.70 Z M62.70,74.10 V76.95 H65.55 V74.10 H62.70 Z M62.70,76.95 V79.80 H65.55 V76.95 H62.70 Z M62.70,79.80 V82.65 H65.55 V79.80 H62.70 Z M62.70,85.50 V88.36 H65.55 V85.50 H62.70 Z M62.70,91.21 V94.06 H65.55 V91.21 H62.70 Z M62.70,105.46 V108.31 H65.55 V105.46 H62.70 Z M62.70,111.16 V114.01 H65.55 V111.16 H62.70 Z M62.70,119.71 V122.56 H65.55 V119.71 H62.70 Z M62.70,125.41 V128.26 H65.55 V125.41 H62.70 Z M62.70,128.26 V131.11 H65.55 V128.26 H62.70 Z M62.70,133.96 V136.81 H65.55 V133.96 H62.70 Z M62.70,136.81 V139.66 H65.55 V136.81 H62.70 Z M62.70,142.51 V145.36 H65.55 V142.51 H62.70 Z M62.70,151.06 V153.91 H65.55 V151.06 H62.70 Z M62.70,153.91 V156.76 H65.55 V153.91 H62.70 Z M62.70,168.16 V171.01 H65.55 V168.16 H62.70 Z M65.55,2.85 V5.70 H68.40 V2.85 H65.55 Z M65.55,11.40 V14.25 H68.40 V11.40 H65.55 Z M65.55,19.95 V22.80 H68.40 V19.95 H65.55 Z M65.55,22.80 V25.65 H68.40 V22.80 H65.55 Z M65.55,28.50 V31.35 H68.40 V28.50 H65.55 Z M65.55,31.35 V34.20 H68.40 V31.35 H65.55 Z M65.55,34.20 V37.05 H68.40 V34.20 H65.55 Z M65.55,37.05 V39.90 H68.40 V37.05 H65.55 Z M65.55,39.90 V42.75 H68.40 V39.90 H65.55 Z M65.55,54.15 V57.00 H68.40 V54.15 H65.55 Z M65.55,62.70 V65.55 H68.40 V62.70 H65.55 Z M65.55,65.55 V68.40 H68.40 V65.55 H65.55 Z M65.55,68.40 V71.25 H68.40 V68.40 H65.55 Z M65.55,71.25 V74.10 H68.40 V71.25 H65.55 Z M65.55,74.10 V76.95 H68.40 V74.10 H65.55 Z M65.55,79.80 V82.65 H68.40 V79.80 H65.55 Z M65.55,82.65 V85.50 H68.40 V82.65 H65.55 Z M65.55,85.50 V88.36 H68.40 V85.50 H65.55 Z M65.55,94.06 V96.91 H68.40 V94.06 H65.55 Z M65.55,96.91 V99.76 H68.40 V96.91 H65.55 Z M65.55,108.31 V111.16 H68.40 V108.31 H65.55 Z M65.55,114.01 V116.86 H68.40 V114.01 H65.55 Z M65.55,116.86 V119.71 H68.40 V116.86 H65.55 Z M65.55,128.26 V131.11 H68.40 V128.26 H65.55 Z M65.55,131.11 V133.96 H68.40 V131.11 H65.55 Z M65.55,133.96 V136.81 H68.40 V133.96 H65.55 Z M65.55,139.66 V142.51 H68.40 V139.66 H65.55 Z M65.55,148.21 V151.06 H68.40 V148.21 H65.55 Z M65.55,151.06 V153.91 H68.40 V151.06 H65.55 Z M65.55,156.76 V159.61 H68.40 V156.76 H65.55 Z M65.55,162.46 V165.31 H68.40 V162.46 H65.55 Z M65.55,165.31 V168.16 H68.40 V165.31 H65.55 Z M65.55,168.16 V171.01 H68.40 V168.16 H65.55 Z M65.55,171.01 V173.86 H68.40 V171.01 H65.55 Z M68.40,0 V2.85 H71.25 V0 H68.40 Z M68.40,5.70 V8.55 H71.25 V5.70 H68.40 Z M68.40,11.40 V14.25 H71.25 V11.40 H68.40 Z M68.40,17.10 V19.95 H71.25 V17.10 H68.40 Z M68.40,22.80 V25.65 H71.25 V22.80 H68.40 Z M68.40,34.20 V37.05 H71.25 V34.20 H68.40 Z M68.40,37.05 V39.90 H71.25 V37.05 H68.40 Z M68.40,48.45 V51.30 H71.25 V48.45 H68.40 Z M68.40,51.30 V54.15 H71.25 V51.30 H68.40 Z M68.40,54.15 V57.00 H71.25 V54.15 H68.40 Z M68.40,62.70 V65.55 H71.25 V62.70 H68.40 Z M68.40,68.40 V71.25 H71.25 V68.40 H68.40 Z M68.40,76.95 V79.80 H71.25 V76.95 H68.40 Z M68.40,79.80 V82.65 H71.25 V79.80 H68.40 Z M68.40,85.50 V88.36 H71.25 V85.50 H68.40 Z M68.40,94.06 V96.91 H71.25 V94.06 H68.40 Z M68.40,96.91 V99.76 H71.25 V96.91 H68.40 Z M68.40,99.76 V102.61 H71.25 V99.76 H68.40 Z M68.40,102.61 V105.46 H71.25 V102.61 H68.40 Z M68.40,108.31 V111.16 H71.25 V108.31 H68.40 Z M68.40,111.16 V114.01 H71.25 V111.16 H68.40 Z M68.40,116.86 V119.71 H71.25 V116.86 H68.40 Z M68.40,122.56 V125.41 H71.25 V122.56 H68.40 Z M68.40,125.41 V128.26 H71.25 V125.41 H68.40 Z M68.40,128.26 V131.11 H71.25 V128.26 H68.40 Z M68.40,136.81 V139.66 H71.25 V136.81 H68.40 Z M68.40,142.51 V145.36 H71.25 V142.51 H68.40 Z M68.40,145.36 V148.21 H71.25 V145.36 H68.40 Z M68.40,156.76 V159.61 H71.25 V156.76 H68.40 Z M68.40,159.61 V162.46 H71.25 V159.61 H68.40 Z M68.40,162.46 V165.31 H71.25 V162.46 H68.40 Z M68.40,168.16 V171.01 H71.25 V168.16 H68.40 Z M68.40,171.01 V173.86 H71.25 V171.01 H68.40 Z M71.25,2.85 V5.70 H74.10 V2.85 H71.25 Z M71.25,8.55 V11.40 H74.10 V8.55 H71.25 Z M71.25,11.40 V14.25 H74.10 V11.40 H71.25 Z M71.25,22.80 V25.65 H74.10 V22.80 H71.25 Z M71.25,25.65 V28.50 H74.10 V25.65 H71.25 Z M71.25,31.35 V34.20 H74.10 V31.35 H71.25 Z M71.25,42.75 V45.60 H74.10 V42.75 H71.25 Z M71.25,45.60 V48.45 H74.10 V45.60 H71.25 Z M71.25,48.45 V51.30 H74.10 V48.45 H71.25 Z M71.25,54.15 V57.00 H74.10 V54.15 H71.25 Z M71.25,57.00 V59.85 H74.10 V57.00 H71.25 Z M71.25,59.85 V62.70 H74.10 V59.85 H71.25 Z M71.25,62.70 V65.55 H74.10 V62.70 H71.25 Z M71.25,65.55 V68.40 H74.10 V65.55 H71.25 Z M71.25,68.40 V71.25 H74.10 V68.40 H71.25 Z M71.25,74.10 V76.95 H74.10 V74.10 H71.25 Z M71.25,96.91 V99.76 H74.10 V96.91 H71.25 Z M71.25,99.76 V102.61 H74.10 V99.76 H71.25 Z M71.25,102.61 V105.46 H74.10 V102.61 H71.25 Z M71.25,114.01 V116.86 H74.10 V114.01 H71.25 Z M71.25,116.86 V119.71 H74.10 V116.86 H71.25 Z M71.25,133.96 V136.81 H74.10 V133.96 H71.25 Z M71.25,145.36 V148.21 H74.10 V145.36 H71.25 Z M71.25,148.21 V151.06 H74.10 V148.21 H71.25 Z M71.25,153.91 V156.76 H74.10 V153.91 H71.25 Z M71.25,162.46 V165.31 H74.10 V162.46 H71.25 Z M74.10,5.70 V8.55 H76.95 V5.70 H74.10 Z M74.10,14.25 V17.10 H76.95 V14.25 H74.10 Z M74.10,17.10 V19.95 H76.95 V17.10 H74.10 Z M74.10,25.65 V28.50 H76.95 V25.65 H74.10 Z M74.10,45.60 V48.45 H76.95 V45.60 H74.10 Z M74.10,48.45 V51.30 H76.95 V48.45 H74.10 Z M74.10,54.15 V57.00 H76.95 V54.15 H74.10 Z M74.10,62.70 V65.55 H76.95 V62.70 H74.10 Z M74.10,79.80 V82.65 H76.95 V79.80 H74.10 Z M74.10,82.65 V85.50 H76.95 V82.65 H74.10 Z M74.10,88.36 V91.21 H76.95 V88.36 H74.10 Z M74.10,108.31 V111.16 H76.95 V108.31 H74.10 Z M74.10,111.16 V114.01 H76.95 V111.16 H74.10 Z M74.10,119.71 V122.56 H76.95 V119.71 H74.10 Z M74.10,122.56 V125.41 H76.95 V122.56 H74.10 Z M74.10,128.26 V131.11 H76.95 V128.26 H74.10 Z M74.10,131.11 V133.96 H76.95 V131.11 H74.10 Z M74.10,139.66 V142.51 H76.95 V139.66 H74.10 Z M74.10,145.36 V148.21 H76.95 V145.36 H74.10 Z M74.10,148.21 V151.06 H76.95 V148.21 H74.10 Z M74.10,153.91 V156.76 H76.95 V153.91 H74.10 Z M74.10,156.76 V159.61 H76.95 V156.76 H74.10 Z M74.10,162.46 V165.31 H76.95 V162.46 H74.10 Z M74.10,165.31 V168.16 H76.95 V165.31 H74.10 Z M76.95,5.70 V8.55 H79.80 V5.70 H76.95 Z M76.95,8.55 V11.40 H79.80 V8.55 H76.95 Z M76.95,11.40 V14.25 H79.80 V11.40 H76.95 Z M76.95,28.50 V31.35 H79.80 V28.50 H76.95 Z M76.95,31.35 V34.20 H79.80 V31.35 H76.95 Z M76.95,42.75 V45.60 H79.80 V42.75 H76.95 Z M76.95,51.30 V54.15 H79.80 V51.30 H76.95 Z M76.95,54.15 V57.00 H79.80 V54.15 H76.95 Z M76.95,59.85 V62.70 H79.80 V59.85 H76.95 Z M76.95,62.70 V65.55 H79.80 V62.70 H76.95 Z M76.95,74.10 V76.95 H79.80 V74.10 H76.95 Z M76.95,79.80 V82.65 H79.80 V79.80 H76.95 Z M76.95,82.65 V85.50 H79.80 V82.65 H76.95 Z M76.95,85.50 V88.36 H79.80 V85.50 H76.95 Z M76.95,102.61 V105.46 H79.80 V102.61 H76.95 Z M76.95,105.46 V108.31 H79.80 V105.46 H76.95 Z M76.95,119.71 V122.56 H79.80 V119.71 H76.95 Z M76.95,128.26 V131.11 H79.80 V128.26 H76.95 Z M76.95,131.11 V133.96 H79.80 V131.11 H76.95 Z M76.95,133.96 V136.81 H79.80 V133.96 H76.95 Z M76.95,139.66 V142.51 H79.80 V139.66 H76.95 Z M76.95,156.76 V159.61 H79.80 V156.76 H76.95 Z M76.95,162.46 V165.31 H79.80 V162.46 H76.95 Z M76.95,165.31 V168.16 H79.80 V165.31 H76.95 Z M76.95,168.16 V171.01 H79.80 V168.16 H76.95 Z M76.95,171.01 V173.86 H79.80 V171.01 H76.95 Z M79.80,0 V2.85 H82.65 V0 H79.80 Z M79.80,2.85 V5.70 H82.65 V2.85 H79.80 Z M79.80,8.55 V11.40 H82.65 V8.55 H79.80 Z M79.80,11.40 V14.25 H82.65 V11.40 H79.80 Z M79.80,14.25 V17.10 H82.65 V14.25 H79.80 Z M79.80,17.10 V19.95 H82.65 V17.10 H79.80 Z M79.80,19.95 V22.80 H82.65 V19.95 H79.80 Z M79.80,22.80 V25.65 H82.65 V22.80 H79.80 Z M79.80,28.50 V31.35 H82.65 V28.50 H79.80 Z M79.80,31.35 V34.20 H82.65 V31.35 H79.80 Z M79.80,48.45 V51.30 H82.65 V48.45 H79.80 Z M79.80,51.30 V54.15 H82.65 V51.30 H79.80 Z M79.80,65.55 V68.40 H82.65 V65.55 H79.80 Z M79.80,79.80 V82.65 H82.65 V79.80 H79.80 Z M79.80,82.65 V85.50 H82.65 V82.65 H79.80 Z M79.80,85.50 V88.36 H82.65 V85.50 H79.80 Z M79.80,88.36 V91.21 H82.65 V88.36 H79.80 Z M79.80,91.21 V94.06 H82.65 V91.21 H79.80 Z M79.80,94.06 V96.91 H82.65 V94.06 H79.80 Z M79.80,96.91 V99.76 H82.65 V96.91 H79.80 Z M79.80,99.76 V102.61 H82.65 V99.76 H79.80 Z M79.80,102.61 V105.46 H82.65 V102.61 H79.80 Z M79.80,108.31 V111.16 H82.65 V108.31 H79.80 Z M79.80,114.01 V116.86 H82.65 V114.01 H79.80 Z M79.80,125.41 V128.26 H82.65 V125.41 H79.80 Z M79.80,128.26 V131.11 H82.65 V128.26 H79.80 Z M79.80,136.81 V139.66 H82.65 V136.81 H79.80 Z M79.80,139.66 V142.51 H82.65 V139.66 H79.80 Z M79.80,142.51 V145.36 H82.65 V142.51 H79.80 Z M79.80,148.21 V151.06 H82.65 V148.21 H79.80 Z M79.80,151.06 V153.91 H82.65 V151.06 H79.80 Z M79.80,153.91 V156.76 H82.65 V153.91 H79.80 Z M79.80,156.76 V159.61 H82.65 V156.76 H79.80 Z M79.80,159.61 V162.46 H82.65 V159.61 H79.80 Z M79.80,165.31 V168.16 H82.65 V165.31 H79.80 Z M82.65,0 V2.85 H85.50 V0 H82.65 Z M82.65,2.85 V5.70 H85.50 V2.85 H82.65 Z M82.65,5.70 V8.55 H85.50 V5.70 H82.65 Z M82.65,11.40 V14.25 H85.50 V11.40 H82.65 Z M82.65,22.80 V25.65 H85.50 V22.80 H82.65 Z M82.65,28.50 V31.35 H85.50 V28.50 H82.65 Z M82.65,37.05 V39.90 H85.50 V37.05 H82.65 Z M82.65,45.60 V48.45 H85.50 V45.60 H82.65 Z M82.65,59.85 V62.70 H85.50 V59.85 H82.65 Z M82.65,62.70 V65.55 H85.50 V62.70 H82.65 Z M82.65,65.55 V68.40 H85.50 V65.55 H82.65 Z M82.65,74.10 V76.95 H85.50 V74.10 H82.65 Z M82.65,76.95 V79.80 H85.50 V76.95 H82.65 Z M82.65,79.80 V82.65 H85.50 V79.80 H82.65 Z M82.65,91.21 V94.06 H85.50 V91.21 H82.65 Z M82.65,94.06 V96.91 H85.50 V94.06 H82.65 Z M82.65,96.91 V99.76 H85.50 V96.91 H82.65 Z M82.65,105.46 V108.31 H85.50 V105.46 H82.65 Z M82.65,119.71 V122.56 H85.50 V119.71 H82.65 Z M82.65,125.41 V128.26 H85.50 V125.41 H82.65 Z M82.65,128.26 V131.11 H85.50 V128.26 H82.65 Z M82.65,131.11 V133.96 H85.50 V131.11 H82.65 Z M82.65,133.96 V136.81 H85.50 V133.96 H82.65 Z M82.65,148.21 V151.06 H85.50 V148.21 H82.65 Z M82.65,159.61 V162.46 H85.50 V159.61 H82.65 Z M82.65,165.31 V168.16 H85.50 V165.31 H82.65 Z M85.50,0 V2.85 H88.36 V0 H85.50 Z M85.50,11.40 V14.25 H88.36 V11.40 H85.50 Z M85.50,17.10 V19.95 H88.36 V17.10 H85.50 Z M85.50,22.80 V25.65 H88.36 V22.80 H85.50 Z M85.50,28.50 V31.35 H88.36 V28.50 H85.50 Z M85.50,34.20 V37.05 H88.36 V34.20 H85.50 Z M85.50,42.75 V45.60 H88.36 V42.75 H85.50 Z M85.50,51.30 V54.15 H88.36 V51.30 H85.50 Z M85.50,57.00 V59.85 H88.36 V57.00 H85.50 Z M85.50,62.70 V65.55 H88.36 V62.70 H85.50 Z M85.50,65.55 V68.40 H88.36 V65.55 H85.50 Z M85.50,68.40 V71.25 H88.36 V68.40 H85.50 Z M85.50,76.95 V79.80 H88.36 V76.95 H85.50 Z M85.50,79.80 V82.65 H88.36 V79.80 H85.50 Z M85.50,85.50 V88.36 H88.36 V85.50 H85.50 Z M85.50,91.21 V94.06 H88.36 V91.21 H85.50 Z M85.50,96.91 V99.76 H88.36 V96.91 H85.50 Z M85.50,99.76 V102.61 H88.36 V99.76 H85.50 Z M85.50,102.61 V105.46 H88.36 V102.61 H85.50 Z M85.50,108.31 V111.16 H88.36 V108.31 H85.50 Z M85.50,119.71 V122.56 H88.36 V119.71 H85.50 Z M85.50,136.81 V139.66 H88.36 V136.81 H85.50 Z M85.50,148.21 V151.06 H88.36 V148.21 H85.50 Z M85.50,153.91 V156.76 H88.36 V153.91 H85.50 Z M85.50,159.61 V162.46 H88.36 V159.61 H85.50 Z M85.50,162.46 V165.31 H88.36 V162.46 H85.50 Z M85.50,165.31 V168.16 H88.36 V165.31 H85.50 Z M85.50,168.16 V171.01 H88.36 V168.16 H85.50 Z M88.36,0 V2.85 H91.21 V0 H88.36 Z M88.36,11.40 V14.25 H91.21 V11.40 H88.36 Z M88.36,22.80 V25.65 H91.21 V22.80 H88.36 Z M88.36,31.35 V34.20 H91.21 V31.35 H88.36 Z M88.36,34.20 V37.05 H91.21 V34.20 H88.36 Z M88.36,37.05 V39.90 H91.21 V37.05 H88.36 Z M88.36,39.90 V42.75 H91.21 V39.90 H88.36 Z M88.36,48.45 V51.30 H91.21 V48.45 H88.36 Z M88.36,57.00 V59.85 H91.21 V57.00 H88.36 Z M88.36,59.85 V62.70 H91.21 V59.85 H88.36 Z M88.36,62.70 V65.55 H91.21 V62.70 H88.36 Z M88.36,65.55 V68.40 H91.21 V65.55 H88.36 Z M88.36,68.40 V71.25 H91.21 V68.40 H88.36 Z M88.36,79.80 V82.65 H91.21 V79.80 H88.36 Z M88.36,91.21 V94.06 H91.21 V91.21 H88.36 Z M88.36,94.06 V96.91 H91.21 V94.06 H88.36 Z M88.36,96.91 V99.76 H91.21 V96.91 H88.36 Z M88.36,102.61 V105.46 H91.21 V102.61 H88.36 Z M88.36,116.86 V119.71 H91.21 V116.86 H88.36 Z M88.36,125.41 V128.26 H91.21 V125.41 H88.36 Z M88.36,136.81 V139.66 H91.21 V136.81 H88.36 Z M88.36,148.21 V151.06 H91.21 V148.21 H88.36 Z M88.36,159.61 V162.46 H91.21 V159.61 H88.36 Z M88.36,162.46 V165.31 H91.21 V162.46 H88.36 Z M88.36,171.01 V173.86 H91.21 V171.01 H88.36 Z M91.21,2.85 V5.70 H94.06 V2.85 H91.21 Z M91.21,11.40 V14.25 H94.06 V11.40 H91.21 Z M91.21,14.25 V17.10 H94.06 V14.25 H91.21 Z M91.21,17.10 V19.95 H94.06 V17.10 H91.21 Z M91.21,19.95 V22.80 H94.06 V19.95 H91.21 Z M91.21,22.80 V25.65 H94.06 V22.80 H91.21 Z M91.21,25.65 V28.50 H94.06 V25.65 H91.21 Z M91.21,28.50 V31.35 H94.06 V28.50 H91.21 Z M91.21,45.60 V48.45 H94.06 V45.60 H91.21 Z M91.21,57.00 V59.85 H94.06 V57.00 H91.21 Z M91.21,59.85 V62.70 H94.06 V59.85 H91.21 Z M91.21,62.70 V65.55 H94.06 V62.70 H91.21 Z M91.21,68.40 V71.25 H94.06 V68.40 H91.21 Z M91.21,71.25 V74.10 H94.06 V71.25 H91.21 Z M91.21,74.10 V76.95 H94.06 V74.10 H91.21 Z M91.21,76.95 V79.80 H94.06 V76.95 H91.21 Z M91.21,79.80 V82.65 H94.06 V79.80 H91.21 Z M91.21,82.65 V85.50 H94.06 V82.65 H91.21 Z M91.21,85.50 V88.36 H94.06 V85.50 H91.21 Z M91.21,88.36 V91.21 H94.06 V88.36 H91.21 Z M91.21,91.21 V94.06 H94.06 V91.21 H91.21 Z M91.21,94.06 V96.91 H94.06 V94.06 H91.21 Z M91.21,102.61 V105.46 H94.06 V102.61 H91.21 Z M91.21,105.46 V108.31 H94.06 V105.46 H91.21 Z M91.21,108.31 V111.16 H94.06 V108.31 H91.21 Z M91.21,114.01 V116.86 H94.06 V114.01 H91.21 Z M91.21,122.56 V125.41 H94.06 V122.56 H91.21 Z M91.21,125.41 V128.26 H94.06 V125.41 H91.21 Z M91.21,128.26 V131.11 H94.06 V128.26 H91.21 Z M91.21,139.66 V142.51 H94.06 V139.66 H91.21 Z M91.21,148.21 V151.06 H94.06 V148.21 H91.21 Z M91.21,151.06 V153.91 H94.06 V151.06 H91.21 Z M91.21,153.91 V156.76 H94.06 V153.91 H91.21 Z M91.21,156.76 V159.61 H94.06 V156.76 H91.21 Z M91.21,159.61 V162.46 H94.06 V159.61 H91.21 Z M91.21,165.31 V168.16 H94.06 V165.31 H91.21 Z M91.21,168.16 V171.01 H94.06 V168.16 H91.21 Z M94.06,5.70 V8.55 H96.91 V5.70 H94.06 Z M94.06,8.55 V11.40 H96.91 V8.55 H94.06 Z M94.06,11.40 V14.25 H96.91 V11.40 H94.06 Z M94.06,22.80 V25.65 H96.91 V22.80 H94.06 Z M94.06,25.65 V28.50 H96.91 V25.65 H94.06 Z M94.06,34.20 V37.05 H96.91 V34.20 H94.06 Z M94.06,45.60 V48.45 H96.91 V45.60 H94.06 Z M94.06,51.30 V54.15 H96.91 V51.30 H94.06 Z M94.06,54.15 V57.00 H96.91 V54.15 H94.06 Z M94.06,57.00 V59.85 H96.91 V57.00 H94.06 Z M94.06,74.10 V76.95 H96.91 V74.10 H94.06 Z M94.06,76.95 V79.80 H96.91 V76.95 H94.06 Z M94.06,82.65 V85.50 H96.91 V82.65 H94.06 Z M94.06,94.06 V96.91 H96.91 V94.06 H94.06 Z M94.06,102.61 V105.46 H96.91 V102.61 H94.06 Z M94.06,108.31 V111.16 H96.91 V108.31 H94.06 Z M94.06,116.86 V119.71 H96.91 V116.86 H94.06 Z M94.06,119.71 V122.56 H96.91 V119.71 H94.06 Z M94.06,122.56 V125.41 H96.91 V122.56 H94.06 Z M94.06,133.96 V136.81 H96.91 V133.96 H94.06 Z M94.06,139.66 V142.51 H96.91 V139.66 H94.06 Z M94.06,145.36 V148.21 H96.91 V145.36 H94.06 Z M94.06,153.91 V156.76 H96.91 V153.91 H94.06 Z M94.06,162.46 V165.31 H96.91 V162.46 H94.06 Z M94.06,165.31 V168.16 H96.91 V165.31 H94.06 Z M94.06,171.01 V173.86 H96.91 V171.01 H94.06 Z M96.91,2.85 V5.70 H99.76 V2.85 H96.91 Z M96.91,8.55 V11.40 H99.76 V8.55 H96.91 Z M96.91,11.40 V14.25 H99.76 V11.40 H96.91 Z M96.91,14.25 V17.10 H99.76 V14.25 H96.91 Z M96.91,17.10 V19.95 H99.76 V17.10 H96.91 Z M96.91,34.20 V37.05 H99.76 V34.20 H96.91 Z M96.91,39.90 V42.75 H99.76 V39.90 H96.91 Z M96.91,48.45 V51.30 H99.76 V48.45 H96.91 Z M96.91,57.00 V59.85 H99.76 V57.00 H96.91 Z M96.91,62.70 V65.55 H99.76 V62.70 H96.91 Z M96.91,65.55 V68.40 H99.76 V65.55 H96.91 Z M96.91,74.10 V76.95 H99.76 V74.10 H96.91 Z M96.91,76.95 V79.80 H99.76 V76.95 H96.91 Z M96.91,79.80 V82.65 H99.76 V79.80 H96.91 Z M96.91,82.65 V85.50 H99.76 V82.65 H96.91 Z M96.91,88.36 V91.21 H99.76 V88.36 H96.91 Z M96.91,102.61 V105.46 H99.76 V102.61 H96.91 Z M96.91,111.16 V114.01 H99.76 V111.16 H96.91 Z M96.91,116.86 V119.71 H99.76 V116.86 H96.91 Z M96.91,119.71 V122.56 H99.76 V119.71 H96.91 Z M96.91,122.56 V125.41 H99.76 V122.56 H96.91 Z M96.91,128.26 V131.11 H99.76 V128.26 H96.91 Z M96.91,133.96 V136.81 H99.76 V133.96 H96.91 Z M96.91,136.81 V139.66 H99.76 V136.81 H96.91 Z M96.91,145.36 V148.21 H99.76 V145.36 H96.91 Z M96.91,148.21 V151.06 H99.76 V148.21 H96.91 Z M96.91,151.06 V153.91 H99.76 V151.06 H96.91 Z M96.91,156.76 V159.61 H99.76 V156.76 H96.91 Z M96.91,159.61 V162.46 H99.76 V159.61 H96.91 Z M96.91,165.31 V168.16 H99.76 V165.31 H96.91 Z M96.91,168.16 V171.01 H99.76 V168.16 H96.91 Z M96.91,171.01 V173.86 H99.76 V171.01 H96.91 Z M99.76,0 V2.85 H102.61 V0 H99.76 Z M99.76,2.85 V5.70 H102.61 V2.85 H99.76 Z M99.76,5.70 V8.55 H102.61 V5.70 H99.76 Z M99.76,14.25 V17.10 H102.61 V14.25 H99.76 Z M99.76,19.95 V22.80 H102.61 V19.95 H99.76 Z M99.76,28.50 V31.35 H102.61 V28.50 H99.76 Z M99.76,31.35 V34.20 H102.61 V31.35 H99.76 Z M99.76,34.20 V37.05 H102.61 V34.20 H99.76 Z M99.76,37.05 V39.90 H102.61 V37.05 H99.76 Z M99.76,42.75 V45.60 H102.61 V42.75 H99.76 Z M99.76,45.60 V48.45 H102.61 V45.60 H99.76 Z M99.76,48.45 V51.30 H102.61 V48.45 H99.76 Z M99.76,57.00 V59.85 H102.61 V57.00 H99.76 Z M99.76,62.70 V65.55 H102.61 V62.70 H99.76 Z M99.76,65.55 V68.40 H102.61 V65.55 H99.76 Z M99.76,71.25 V74.10 H102.61 V71.25 H99.76 Z M99.76,82.65 V85.50 H102.61 V82.65 H99.76 Z M99.76,88.36 V91.21 H102.61 V88.36 H99.76 Z M99.76,96.91 V99.76 H102.61 V96.91 H99.76 Z M99.76,102.61 V105.46 H102.61 V102.61 H99.76 Z M99.76,105.46 V108.31 H102.61 V105.46 H99.76 Z M99.76,108.31 V111.16 H102.61 V108.31 H99.76 Z M99.76,114.01 V116.86 H102.61 V114.01 H99.76 Z M99.76,122.56 V125.41 H102.61 V122.56 H99.76 Z M99.76,128.26 V131.11 H102.61 V128.26 H99.76 Z M99.76,136.81 V139.66 H102.61 V136.81 H99.76 Z M99.76,139.66 V142.51 H102.61 V139.66 H99.76 Z M99.76,145.36 V148.21 H102.61 V145.36 H99.76 Z M99.76,148.21 V151.06 H102.61 V148.21 H99.76 Z M99.76,162.46 V165.31 H102.61 V162.46 H99.76 Z M99.76,165.31 V168.16 H102.61 V165.31 H99.76 Z M99.76,168.16 V171.01 H102.61 V168.16 H99.76 Z M99.76,171.01 V173.86 H102.61 V171.01 H99.76 Z M102.61,5.70 V8.55 H105.46 V5.70 H102.61 Z M102.61,8.55 V11.40 H105.46 V8.55 H102.61 Z M102.61,17.10 V19.95 H105.46 V17.10 H102.61 Z M102.61,25.65 V28.50 H105.46 V25.65 H102.61 Z M102.61,28.50 V31.35 H105.46 V28.50 H102.61 Z M102.61,34.20 V37.05 H105.46 V34.20 H102.61 Z M102.61,37.05 V39.90 H105.46 V37.05 H102.61 Z M102.61,39.90 V42.75 H105.46 V39.90 H102.61 Z M102.61,42.75 V45.60 H105.46 V42.75 H102.61 Z M102.61,51.30 V54.15 H105.46 V51.30 H102.61 Z M102.61,54.15 V57.00 H105.46 V54.15 H102.61 Z M102.61,59.85 V62.70 H105.46 V59.85 H102.61 Z M102.61,65.55 V68.40 H105.46 V65.55 H102.61 Z M102.61,68.40 V71.25 H105.46 V68.40 H102.61 Z M102.61,71.25 V74.10 H105.46 V71.25 H102.61 Z M102.61,74.10 V76.95 H105.46 V74.10 H102.61 Z M102.61,76.95 V79.80 H105.46 V76.95 H102.61 Z M102.61,82.65 V85.50 H105.46 V82.65 H102.61 Z M102.61,85.50 V88.36 H105.46 V85.50 H102.61 Z M102.61,94.06 V96.91 H105.46 V94.06 H102.61 Z M102.61,105.46 V108.31 H105.46 V105.46 H102.61 Z M102.61,108.31 V111.16 H105.46 V108.31 H102.61 Z M102.61,116.86 V119.71 H105.46 V116.86 H102.61 Z M102.61,119.71 V122.56 H105.46 V119.71 H102.61 Z M102.61,128.26 V131.11 H105.46 V128.26 H102.61 Z M102.61,136.81 V139.66 H105.46 V136.81 H102.61 Z M102.61,139.66 V142.51 H105.46 V139.66 H102.61 Z M102.61,142.51 V145.36 H105.46 V142.51 H102.61 Z M102.61,153.91 V156.76 H105.46 V153.91 H102.61 Z M102.61,162.46 V165.31 H105.46 V162.46 H102.61 Z M102.61,168.16 V171.01 H105.46 V168.16 H102.61 Z M102.61,171.01 V173.86 H105.46 V171.01 H102.61 Z M105.46,0 V2.85 H108.31 V0 H105.46 Z M105.46,11.40 V14.25 H108.31 V11.40 H105.46 Z M105.46,14.25 V17.10 H108.31 V14.25 H105.46 Z M105.46,28.50 V31.35 H108.31 V28.50 H105.46 Z M105.46,31.35 V34.20 H108.31 V31.35 H105.46 Z M105.46,37.05 V39.90 H108.31 V37.05 H105.46 Z M105.46,42.75 V45.60 H108.31 V42.75 H105.46 Z M105.46,59.85 V62.70 H108.31 V59.85 H105.46 Z M105.46,65.55 V68.40 H108.31 V65.55 H105.46 Z M105.46,68.40 V71.25 H108.31 V68.40 H105.46 Z M105.46,79.80 V82.65 H108.31 V79.80 H105.46 Z M105.46,82.65 V85.50 H108.31 V82.65 H105.46 Z M105.46,85.50 V88.36 H108.31 V85.50 H105.46 Z M105.46,94.06 V96.91 H108.31 V94.06 H105.46 Z M105.46,96.91 V99.76 H108.31 V96.91 H105.46 Z M105.46,99.76 V102.61 H108.31 V99.76 H105.46 Z M105.46,102.61 V105.46 H108.31 V102.61 H105.46 Z M105.46,105.46 V108.31 H108.31 V105.46 H105.46 Z M105.46,108.31 V111.16 H108.31 V108.31 H105.46 Z M105.46,111.16 V114.01 H108.31 V111.16 H105.46 Z M105.46,122.56 V125.41 H108.31 V122.56 H105.46 Z M105.46,125.41 V128.26 H108.31 V125.41 H105.46 Z M105.46,128.26 V131.11 H108.31 V128.26 H105.46 Z M105.46,133.96 V136.81 H108.31 V133.96 H105.46 Z M105.46,151.06 V153.91 H108.31 V151.06 H105.46 Z M105.46,162.46 V165.31 H108.31 V162.46 H105.46 Z M105.46,171.01 V173.86 H108.31 V171.01 H105.46 Z M108.31,5.70 V8.55 H111.16 V5.70 H108.31 Z M108.31,8.55 V11.40 H111.16 V8.55 H108.31 Z M108.31,17.10 V19.95 H111.16 V17.10 H108.31 Z M108.31,19.95 V22.80 H111.16 V19.95 H108.31 Z M108.31,22.80 V25.65 H111.16 V22.80 H108.31 Z M108.31,37.05 V39.90 H111.16 V37.05 H108.31 Z M108.31,42.75 V45.60 H111.16 V42.75 H108.31 Z M108.31,45.60 V48.45 H111.16 V45.60 H108.31 Z M108.31,51.30 V54.15 H111.16 V51.30 H108.31 Z M108.31,71.25 V74.10 H111.16 V71.25 H108.31 Z M108.31,79.80 V82.65 H111.16 V79.80 H108.31 Z M108.31,85.50 V88.36 H111.16 V85.50 H108.31 Z M108.31,88.36 V91.21 H111.16 V88.36 H108.31 Z M108.31,91.21 V94.06 H111.16 V91.21 H108.31 Z M108.31,96.91 V99.76 H111.16 V96.91 H108.31 Z M108.31,105.46 V108.31 H111.16 V105.46 H108.31 Z M108.31,108.31 V111.16 H111.16 V108.31 H108.31 Z M108.31,111.16 V114.01 H111.16 V111.16 H108.31 Z M108.31,119.71 V122.56 H111.16 V119.71 H108.31 Z M108.31,125.41 V128.26 H111.16 V125.41 H108.31 Z M108.31,128.26 V131.11 H111.16 V128.26 H108.31 Z M108.31,131.11 V133.96 H111.16 V131.11 H108.31 Z M108.31,139.66 V142.51 H111.16 V139.66 H108.31 Z M108.31,142.51 V145.36 H111.16 V142.51 H108.31 Z M108.31,145.36 V148.21 H111.16 V145.36 H108.31 Z M108.31,156.76 V159.61 H111.16 V156.76 H108.31 Z M108.31,159.61 V162.46 H111.16 V159.61 H108.31 Z M111.16,2.85 V5.70 H114.01 V2.85 H111.16 Z M111.16,25.65 V28.50 H114.01 V25.65 H111.16 Z M111.16,28.50 V31.35 H114.01 V28.50 H111.16 Z M111.16,31.35 V34.20 H114.01 V31.35 H111.16 Z M111.16,34.20 V37.05 H114.01 V34.20 H111.16 Z M111.16,37.05 V39.90 H114.01 V37.05 H111.16 Z M111.16,42.75 V45.60 H114.01 V42.75 H111.16 Z M111.16,57.00 V59.85 H114.01 V57.00 H111.16 Z M111.16,59.85 V62.70 H114.01 V59.85 H111.16 Z M111.16,65.55 V68.40 H114.01 V65.55 H111.16 Z M111.16,71.25 V74.10 H114.01 V71.25 H111.16 Z M111.16,76.95 V79.80 H114.01 V76.95 H111.16 Z M111.16,79.80 V82.65 H114.01 V79.80 H111.16 Z M111.16,82.65 V85.50 H114.01 V82.65 H111.16 Z M111.16,88.36 V91.21 H114.01 V88.36 H111.16 Z M111.16,94.06 V96.91 H114.01 V94.06 H111.16 Z M111.16,96.91 V99.76 H114.01 V96.91 H111.16 Z M111.16,111.16 V114.01 H114.01 V111.16 H111.16 Z M111.16,125.41 V128.26 H114.01 V125.41 H111.16 Z M111.16,139.66 V142.51 H114.01 V139.66 H111.16 Z M111.16,142.51 V145.36 H114.01 V142.51 H111.16 Z M111.16,153.91 V156.76 H114.01 V153.91 H111.16 Z M111.16,156.76 V159.61 H114.01 V156.76 H111.16 Z M111.16,159.61 V162.46 H114.01 V159.61 H111.16 Z M111.16,165.31 V168.16 H114.01 V165.31 H111.16 Z M111.16,168.16 V171.01 H114.01 V168.16 H111.16 Z M114.01,14.25 V17.10 H116.86 V14.25 H114.01 Z M114.01,17.10 V19.95 H116.86 V17.10 H114.01 Z M114.01,19.95 V22.80 H116.86 V19.95 H114.01 Z M114.01,22.80 V25.65 H116.86 V22.80 H114.01 Z M114.01,25.65 V28.50 H116.86 V25.65 H114.01 Z M114.01,28.50 V31.35 H116.86 V28.50 H114.01 Z M114.01,37.05 V39.90 H116.86 V37.05 H114.01 Z M114.01,39.90 V42.75 H116.86 V39.90 H114.01 Z M114.01,48.45 V51.30 H116.86 V48.45 H114.01 Z M114.01,54.15 V57.00 H116.86 V54.15 H114.01 Z M114.01,57.00 V59.85 H116.86 V57.00 H114.01 Z M114.01,71.25 V74.10 H116.86 V71.25 H114.01 Z M114.01,76.95 V79.80 H116.86 V76.95 H114.01 Z M114.01,82.65 V85.50 H116.86 V82.65 H114.01 Z M114.01,88.36 V91.21 H116.86 V88.36 H114.01 Z M114.01,91.21 V94.06 H116.86 V91.21 H114.01 Z M114.01,94.06 V96.91 H116.86 V94.06 H114.01 Z M114.01,99.76 V102.61 H116.86 V99.76 H114.01 Z M114.01,108.31 V111.16 H116.86 V108.31 H114.01 Z M114.01,111.16 V114.01 H116.86 V111.16 H114.01 Z M114.01,116.86 V119.71 H116.86 V116.86 H114.01 Z M114.01,122.56 V125.41 H116.86 V122.56 H114.01 Z M114.01,125.41 V128.26 H116.86 V125.41 H114.01 Z M114.01,139.66 V142.51 H116.86 V139.66 H114.01 Z M114.01,142.51 V145.36 H116.86 V142.51 H114.01 Z M114.01,145.36 V148.21 H116.86 V145.36 H114.01 Z M114.01,151.06 V153.91 H116.86 V151.06 H114.01 Z M114.01,159.61 V162.46 H116.86 V159.61 H114.01 Z M116.86,2.85 V5.70 H119.71 V2.85 H116.86 Z M116.86,8.55 V11.40 H119.71 V8.55 H116.86 Z M116.86,22.80 V25.65 H119.71 V22.80 H116.86 Z M116.86,31.35 V34.20 H119.71 V31.35 H116.86 Z M116.86,34.20 V37.05 H119.71 V34.20 H116.86 Z M116.86,45.60 V48.45 H119.71 V45.60 H116.86 Z M116.86,48.45 V51.30 H119.71 V48.45 H116.86 Z M116.86,51.30 V54.15 H119.71 V51.30 H116.86 Z M116.86,54.15 V57.00 H119.71 V54.15 H116.86 Z M116.86,59.85 V62.70 H119.71 V59.85 H116.86 Z M116.86,62.70 V65.55 H119.71 V62.70 H116.86 Z M116.86,68.40 V71.25 H119.71 V68.40 H116.86 Z M116.86,71.25 V74.10 H119.71 V71.25 H116.86 Z M116.86,76.95 V79.80 H119.71 V76.95 H116.86 Z M116.86,79.80 V82.65 H119.71 V79.80 H116.86 Z M116.86,85.50 V88.36 H119.71 V85.50 H116.86 Z M116.86,88.36 V91.21 H119.71 V88.36 H116.86 Z M116.86,91.21 V94.06 H119.71 V91.21 H116.86 Z M116.86,94.06 V96.91 H119.71 V94.06 H116.86 Z M116.86,96.91 V99.76 H119.71 V96.91 H116.86 Z M116.86,111.16 V114.01 H119.71 V111.16 H116.86 Z M116.86,116.86 V119.71 H119.71 V116.86 H116.86 Z M116.86,122.56 V125.41 H119.71 V122.56 H116.86 Z M116.86,128.26 V131.11 H119.71 V128.26 H116.86 Z M116.86,131.11 V133.96 H119.71 V131.11 H116.86 Z M116.86,136.81 V139.66 H119.71 V136.81 H116.86 Z M116.86,139.66 V142.51 H119.71 V139.66 H116.86 Z M116.86,142.51 V145.36 H119.71 V142.51 H116.86 Z M116.86,145.36 V148.21 H119.71 V145.36 H116.86 Z M116.86,148.21 V151.06 H119.71 V148.21 H116.86 Z M116.86,151.06 V153.91 H119.71 V151.06 H116.86 Z M116.86,159.61 V162.46 H119.71 V159.61 H116.86 Z M116.86,162.46 V165.31 H119.71 V162.46 H116.86 Z M116.86,165.31 V168.16 H119.71 V165.31 H116.86 Z M116.86,171.01 V173.86 H119.71 V171.01 H116.86 Z M119.71,0 V2.85 H122.56 V0 H119.71 Z M119.71,2.85 V5.70 H122.56 V2.85 H119.71 Z M119.71,5.70 V8.55 H122.56 V5.70 H119.71 Z M119.71,8.55 V11.40 H122.56 V8.55 H119.71 Z M119.71,14.25 V17.10 H122.56 V14.25 H119.71 Z M119.71,17.10 V19.95 H122.56 V17.10 H119.71 Z M119.71,25.65 V28.50 H122.56 V25.65 H119.71 Z M119.71,28.50 V31.35 H122.56 V28.50 H119.71 Z M119.71,39.90 V42.75 H122.56 V39.90 H119.71 Z M119.71,45.60 V48.45 H122.56 V45.60 H119.71 Z M119.71,51.30 V54.15 H122.56 V51.30 H119.71 Z M119.71,59.85 V62.70 H122.56 V59.85 H119.71 Z M119.71,62.70 V65.55 H122.56 V62.70 H119.71 Z M119.71,68.40 V71.25 H122.56 V68.40 H119.71 Z M119.71,76.95 V79.80 H122.56 V76.95 H119.71 Z M119.71,79.80 V82.65 H122.56 V79.80 H119.71 Z M119.71,94.06 V96.91 H122.56 V94.06 H119.71 Z M119.71,96.91 V99.76 H122.56 V96.91 H119.71 Z M119.71,102.61 V105.46 H122.56 V102.61 H119.71 Z M119.71,108.31 V111.16 H122.56 V108.31 H119.71 Z M119.71,122.56 V125.41 H122.56 V122.56 H119.71 Z M119.71,125.41 V128.26 H122.56 V125.41 H119.71 Z M119.71,128.26 V131.11 H122.56 V128.26 H119.71 Z M119.71,142.51 V145.36 H122.56 V142.51 H119.71 Z M119.71,148.21 V151.06 H122.56 V148.21 H119.71 Z M119.71,162.46 V165.31 H122.56 V162.46 H119.71 Z M119.71,165.31 V168.16 H122.56 V165.31 H119.71 Z M119.71,168.16 V171.01 H122.56 V168.16 H119.71 Z M119.71,171.01 V173.86 H122.56 V171.01 H119.71 Z M122.56,2.85 V5.70 H125.41 V2.85 H122.56 Z M122.56,5.70 V8.55 H125.41 V5.70 H122.56 Z M122.56,19.95 V22.80 H125.41 V19.95 H122.56 Z M122.56,39.90 V42.75 H125.41 V39.90 H122.56 Z M122.56,45.60 V48.45 H125.41 V45.60 H122.56 Z M122.56,48.45 V51.30 H125.41 V48.45 H122.56 Z M122.56,51.30 V54.15 H125.41 V51.30 H122.56 Z M122.56,54.15 V57.00 H125.41 V54.15 H122.56 Z M122.56,59.85 V62.70 H125.41 V59.85 H122.56 Z M122.56,65.55 V68.40 H125.41 V65.55 H122.56 Z M122.56,68.40 V71.25 H125.41 V68.40 H122.56 Z M122.56,71.25 V74.10 H125.41 V71.25 H122.56 Z M122.56,74.10 V76.95 H125.41 V74.10 H122.56 Z M122.56,85.50 V88.36 H125.41 V85.50 H122.56 Z M122.56,88.36 V91.21 H125.41 V88.36 H122.56 Z M122.56,91.21 V94.06 H125.41 V91.21 H122.56 Z M122.56,94.06 V96.91 H125.41 V94.06 H122.56 Z M122.56,96.91 V99.76 H125.41 V96.91 H122.56 Z M122.56,99.76 V102.61 H125.41 V99.76 H122.56 Z M122.56,102.61 V105.46 H125.41 V102.61 H122.56 Z M122.56,105.46 V108.31 H125.41 V105.46 H122.56 Z M122.56,111.16 V114.01 H125.41 V111.16 H122.56 Z M122.56,114.01 V116.86 H125.41 V114.01 H122.56 Z M122.56,119.71 V122.56 H125.41 V119.71 H122.56 Z M122.56,131.11 V133.96 H125.41 V131.11 H122.56 Z M122.56,139.66 V142.51 H125.41 V139.66 H122.56 Z M122.56,145.36 V148.21 H125.41 V145.36 H122.56 Z M122.56,156.76 V159.61 H125.41 V156.76 H122.56 Z M122.56,162.46 V165.31 H125.41 V162.46 H122.56 Z M122.56,168.16 V171.01 H125.41 V168.16 H122.56 Z M122.56,171.01 V173.86 H125.41 V171.01 H122.56 Z M125.41,2.85 V5.70 H128.26 V2.85 H125.41 Z M125.41,14.25 V17.10 H128.26 V14.25 H125.41 Z M125.41,17.10 V19.95 H128.26 V17.10 H125.41 Z M125.41,19.95 V22.80 H128.26 V19.95 H125.41 Z M125.41,25.65 V28.50 H128.26 V25.65 H125.41 Z M125.41,31.35 V34.20 H128.26 V31.35 H125.41 Z M125.41,37.05 V39.90 H128.26 V37.05 H125.41 Z M125.41,42.75 V45.60 H128.26 V42.75 H125.41 Z M125.41,45.60 V48.45 H128.26 V45.60 H125.41 Z M125.41,59.85 V62.70 H128.26 V59.85 H125.41 Z M125.41,62.70 V65.55 H128.26 V62.70 H125.41 Z M125.41,65.55 V68.40 H128.26 V65.55 H125.41 Z M125.41,71.25 V74.10 H128.26 V71.25 H125.41 Z M125.41,74.10 V76.95 H128.26 V74.10 H125.41 Z M125.41,79.80 V82.65 H128.26 V79.80 H125.41 Z M125.41,96.91 V99.76 H128.26 V96.91 H125.41 Z M125.41,99.76 V102.61 H128.26 V99.76 H125.41 Z M125.41,105.46 V108.31 H128.26 V105.46 H125.41 Z M125.41,111.16 V114.01 H128.26 V111.16 H125.41 Z M125.41,114.01 V116.86 H128.26 V114.01 H125.41 Z M125.41,133.96 V136.81 H128.26 V133.96 H125.41 Z M125.41,139.66 V142.51 H128.26 V139.66 H125.41 Z M125.41,145.36 V148.21 H128.26 V145.36 H125.41 Z M125.41,148.21 V151.06 H128.26 V148.21 H125.41 Z M125.41,151.06 V153.91 H128.26 V151.06 H125.41 Z M125.41,165.31 V168.16 H128.26 V165.31 H125.41 Z M125.41,168.16 V171.01 H128.26 V168.16 H125.41 Z M128.26,8.55 V11.40 H131.11 V8.55 H128.26 Z M128.26,11.40 V14.25 H131.11 V11.40 H128.26 Z M128.26,25.65 V28.50 H131.11 V25.65 H128.26 Z M128.26,28.50 V31.35 H131.11 V28.50 H128.26 Z M128.26,34.20 V37.05 H131.11 V34.20 H128.26 Z M128.26,39.90 V42.75 H131.11 V39.90 H128.26 Z M128.26,45.60 V48.45 H131.11 V45.60 H128.26 Z M128.26,48.45 V51.30 H131.11 V48.45 H128.26 Z M128.26,54.15 V57.00 H131.11 V54.15 H128.26 Z M128.26,59.85 V62.70 H131.11 V59.85 H128.26 Z M128.26,71.25 V74.10 H131.11 V71.25 H128.26 Z M128.26,94.06 V96.91 H131.11 V94.06 H128.26 Z M128.26,96.91 V99.76 H131.11 V96.91 H128.26 Z M128.26,99.76 V102.61 H131.11 V99.76 H128.26 Z M128.26,102.61 V105.46 H131.11 V102.61 H128.26 Z M128.26,105.46 V108.31 H131.11 V105.46 H128.26 Z M128.26,111.16 V114.01 H131.11 V111.16 H128.26 Z M128.26,116.86 V119.71 H131.11 V116.86 H128.26 Z M128.26,122.56 V125.41 H131.11 V122.56 H128.26 Z M128.26,136.81 V139.66 H131.11 V136.81 H128.26 Z M128.26,142.51 V145.36 H131.11 V142.51 H128.26 Z M128.26,145.36 V148.21 H131.11 V145.36 H128.26 Z M128.26,168.16 V171.01 H131.11 V168.16 H128.26 Z M128.26,171.01 V173.86 H131.11 V171.01 H128.26 Z M131.11,2.85 V5.70 H133.96 V2.85 H131.11 Z M131.11,5.70 V8.55 H133.96 V5.70 H131.11 Z M131.11,14.25 V17.10 H133.96 V14.25 H131.11 Z M131.11,17.10 V19.95 H133.96 V17.10 H131.11 Z M131.11,22.80 V25.65 H133.96 V22.80 H131.11 Z M131.11,28.50 V31.35 H133.96 V28.50 H131.11 Z M131.11,34.20 V37.05 H133.96 V34.20 H131.11 Z M131.11,42.75 V45.60 H133.96 V42.75 H131.11 Z M131.11,45.60 V48.45 H133.96 V45.60 H131.11 Z M131.11,48.45 V51.30 H133.96 V48.45 H131.11 Z M131.11,51.30 V54.15 H133.96 V51.30 H131.11 Z M131.11,54.15 V57.00 H133.96 V54.15 H131.11 Z M131.11,62.70 V65.55 H133.96 V62.70 H131.11 Z M131.11,65.55 V68.40 H133.96 V65.55 H131.11 Z M131.11,68.40 V71.25 H133.96 V68.40 H131.11 Z M131.11,82.65 V85.50 H133.96 V82.65 H131.11 Z M131.11,85.50 V88.36 H133.96 V85.50 H131.11 Z M131.11,88.36 V91.21 H133.96 V88.36 H131.11 Z M131.11,91.21 V94.06 H133.96 V91.21 H131.11 Z M131.11,96.91 V99.76 H133.96 V96.91 H131.11 Z M131.11,99.76 V102.61 H133.96 V99.76 H131.11 Z M131.11,116.86 V119.71 H133.96 V116.86 H131.11 Z M131.11,122.56 V125.41 H133.96 V122.56 H131.11 Z M131.11,125.41 V128.26 H133.96 V125.41 H131.11 Z M131.11,131.11 V133.96 H133.96 V131.11 H131.11 Z M131.11,145.36 V148.21 H133.96 V145.36 H131.11 Z M131.11,151.06 V153.91 H133.96 V151.06 H131.11 Z M131.11,153.91 V156.76 H133.96 V153.91 H131.11 Z M131.11,156.76 V159.61 H133.96 V156.76 H131.11 Z M131.11,159.61 V162.46 H133.96 V159.61 H131.11 Z M131.11,165.31 V168.16 H133.96 V165.31 H131.11 Z M131.11,168.16 V171.01 H133.96 V168.16 H131.11 Z M133.96,0 V2.85 H136.81 V0 H133.96 Z M133.96,2.85 V5.70 H136.81 V2.85 H133.96 Z M133.96,8.55 V11.40 H136.81 V8.55 H133.96 Z M133.96,11.40 V14.25 H136.81 V11.40 H133.96 Z M133.96,19.95 V22.80 H136.81 V19.95 H133.96 Z M133.96,25.65 V28.50 H136.81 V25.65 H133.96 Z M133.96,28.50 V31.35 H136.81 V28.50 H133.96 Z M133.96,31.35 V34.20 H136.81 V31.35 H133.96 Z M133.96,45.60 V48.45 H136.81 V45.60 H133.96 Z M133.96,51.30 V54.15 H136.81 V51.30 H133.96 Z M133.96,54.15 V57.00 H136.81 V54.15 H133.96 Z M133.96,57.00 V59.85 H136.81 V57.00 H133.96 Z M133.96,59.85 V62.70 H136.81 V59.85 H133.96 Z M133.96,65.55 V68.40 H136.81 V65.55 H133.96 Z M133.96,68.40 V71.25 H136.81 V68.40 H133.96 Z M133.96,71.25 V74.10 H136.81 V71.25 H133.96 Z M133.96,76.95 V79.80 H136.81 V76.95 H133.96 Z M133.96,79.80 V82.65 H136.81 V79.80 H133.96 Z M133.96,82.65 V85.50 H136.81 V82.65 H133.96 Z M133.96,94.06 V96.91 H136.81 V94.06 H133.96 Z M133.96,96.91 V99.76 H136.81 V96.91 H133.96 Z M133.96,102.61 V105.46 H136.81 V102.61 H133.96 Z M133.96,108.31 V111.16 H136.81 V108.31 H133.96 Z M133.96,122.56 V125.41 H136.81 V122.56 H133.96 Z M133.96,133.96 V136.81 H136.81 V133.96 H133.96 Z M133.96,139.66 V142.51 H136.81 V139.66 H133.96 Z M133.96,145.36 V148.21 H136.81 V145.36 H133.96 Z M133.96,148.21 V151.06 H136.81 V148.21 H133.96 Z M133.96,156.76 V159.61 H136.81 V156.76 H133.96 Z M133.96,159.61 V162.46 H136.81 V159.61 H133.96 Z M136.81,0 V2.85 H139.66 V0 H136.81 Z M136.81,2.85 V5.70 H139.66 V2.85 H136.81 Z M136.81,5.70 V8.55 H139.66 V5.70 H136.81 Z M136.81,8.55 V11.40 H139.66 V8.55 H136.81 Z M136.81,11.40 V14.25 H139.66 V11.40 H136.81 Z M136.81,17.10 V19.95 H139.66 V17.10 H136.81 Z M136.81,31.35 V34.20 H139.66 V31.35 H136.81 Z M136.81,34.20 V37.05 H139.66 V34.20 H136.81 Z M136.81,39.90 V42.75 H139.66 V39.90 H136.81 Z M136.81,48.45 V51.30 H139.66 V48.45 H136.81 Z M136.81,54.15 V57.00 H139.66 V54.15 H136.81 Z M136.81,59.85 V62.70 H139.66 V59.85 H136.81 Z M136.81,68.40 V71.25 H139.66 V68.40 H136.81 Z M136.81,82.65 V85.50 H139.66 V82.65 H136.81 Z M136.81,85.50 V88.36 H139.66 V85.50 H136.81 Z M136.81,88.36 V91.21 H139.66 V88.36 H136.81 Z M136.81,99.76 V102.61 H139.66 V99.76 H136.81 Z M136.81,102.61 V105.46 H139.66 V102.61 H136.81 Z M136.81,105.46 V108.31 H139.66 V105.46 H136.81 Z M136.81,108.31 V111.16 H139.66 V108.31 H136.81 Z M136.81,119.71 V122.56 H139.66 V119.71 H136.81 Z M136.81,122.56 V125.41 H139.66 V122.56 H136.81 Z M136.81,128.26 V131.11 H139.66 V128.26 H136.81 Z M136.81,133.96 V136.81 H139.66 V133.96 H136.81 Z M136.81,136.81 V139.66 H139.66 V136.81 H136.81 Z M136.81,139.66 V142.51 H139.66 V139.66 H136.81 Z M136.81,142.51 V145.36 H139.66 V142.51 H136.81 Z M136.81,156.76 V159.61 H139.66 V156.76 H136.81 Z M136.81,168.16 V171.01 H139.66 V168.16 H136.81 Z M136.81,171.01 V173.86 H139.66 V171.01 H136.81 Z M139.66,0 V2.85 H142.51 V0 H139.66 Z M139.66,5.70 V8.55 H142.51 V5.70 H139.66 Z M139.66,8.55 V11.40 H142.51 V8.55 H139.66 Z M139.66,11.40 V14.25 H142.51 V11.40 H139.66 Z M139.66,14.25 V17.10 H142.51 V14.25 H139.66 Z M139.66,34.20 V37.05 H142.51 V34.20 H139.66 Z M139.66,37.05 V39.90 H142.51 V37.05 H139.66 Z M139.66,42.75 V45.60 H142.51 V42.75 H139.66 Z M139.66,54.15 V57.00 H142.51 V54.15 H139.66 Z M139.66,59.85 V62.70 H142.51 V59.85 H139.66 Z M139.66,68.40 V71.25 H142.51 V68.40 H139.66 Z M139.66,74.10 V76.95 H142.51 V74.10 H139.66 Z M139.66,94.06 V96.91 H142.51 V94.06 H139.66 Z M139.66,105.46 V108.31 H142.51 V105.46 H139.66 Z M139.66,108.31 V111.16 H142.51 V108.31 H139.66 Z M139.66,114.01 V116.86 H142.51 V114.01 H139.66 Z M139.66,125.41 V128.26 H142.51 V125.41 H139.66 Z M139.66,128.26 V131.11 H142.51 V128.26 H139.66 Z M139.66,131.11 V133.96 H142.51 V131.11 H139.66 Z M139.66,133.96 V136.81 H142.51 V133.96 H139.66 Z M139.66,136.81 V139.66 H142.51 V136.81 H139.66 Z M139.66,139.66 V142.51 H142.51 V139.66 H139.66 Z M139.66,142.51 V145.36 H142.51 V142.51 H139.66 Z M139.66,145.36 V148.21 H142.51 V145.36 H139.66 Z M139.66,148.21 V151.06 H142.51 V148.21 H139.66 Z M139.66,151.06 V153.91 H142.51 V151.06 H139.66 Z M139.66,156.76 V159.61 H142.51 V156.76 H139.66 Z M139.66,162.46 V165.31 H142.51 V162.46 H139.66 Z M139.66,165.31 V168.16 H142.51 V165.31 H139.66 Z M142.51,5.70 V8.55 H145.36 V5.70 H142.51 Z M142.51,8.55 V11.40 H145.36 V8.55 H142.51 Z M142.51,11.40 V14.25 H145.36 V11.40 H142.51 Z M142.51,14.25 V17.10 H145.36 V14.25 H142.51 Z M142.51,17.10 V19.95 H145.36 V17.10 H142.51 Z M142.51,19.95 V22.80 H145.36 V19.95 H142.51 Z M142.51,28.50 V31.35 H145.36 V28.50 H142.51 Z M142.51,37.05 V39.90 H145.36 V37.05 H142.51 Z M142.51,39.90 V42.75 H145.36 V39.90 H142.51 Z M142.51,42.75 V45.60 H145.36 V42.75 H142.51 Z M142.51,45.60 V48.45 H145.36 V45.60 H142.51 Z M142.51,51.30 V54.15 H145.36 V51.30 H142.51 Z M142.51,68.40 V71.25 H145.36 V68.40 H142.51 Z M142.51,71.25 V74.10 H145.36 V71.25 H142.51 Z M142.51,74.10 V76.95 H145.36 V74.10 H142.51 Z M142.51,76.95 V79.80 H145.36 V76.95 H142.51 Z M142.51,88.36 V91.21 H145.36 V88.36 H142.51 Z M142.51,91.21 V94.06 H145.36 V91.21 H142.51 Z M142.51,99.76 V102.61 H145.36 V99.76 H142.51 Z M142.51,105.46 V108.31 H145.36 V105.46 H142.51 Z M142.51,108.31 V111.16 H145.36 V108.31 H142.51 Z M142.51,114.01 V116.86 H145.36 V114.01 H142.51 Z M142.51,119.71 V122.56 H145.36 V119.71 H142.51 Z M142.51,122.56 V125.41 H145.36 V122.56 H142.51 Z M142.51,136.81 V139.66 H145.36 V136.81 H142.51 Z M142.51,139.66 V142.51 H145.36 V139.66 H142.51 Z M142.51,148.21 V151.06 H145.36 V148.21 H142.51 Z M142.51,156.76 V159.61 H145.36 V156.76 H142.51 Z M142.51,168.16 V171.01 H145.36 V168.16 H142.51 Z M145.36,0 V2.85 H148.21 V0 H145.36 Z M145.36,2.85 V5.70 H148.21 V2.85 H145.36 Z M145.36,5.70 V8.55 H148.21 V5.70 H145.36 Z M145.36,11.40 V14.25 H148.21 V11.40 H145.36 Z M145.36,19.95 V22.80 H148.21 V19.95 H145.36 Z M145.36,34.20 V37.05 H148.21 V34.20 H145.36 Z M145.36,37.05 V39.90 H148.21 V37.05 H145.36 Z M145.36,39.90 V42.75 H148.21 V39.90 H145.36 Z M145.36,48.45 V51.30 H148.21 V48.45 H145.36 Z M145.36,57.00 V59.85 H148.21 V57.00 H145.36 Z M145.36,59.85 V62.70 H148.21 V59.85 H145.36 Z M145.36,68.40 V71.25 H148.21 V68.40 H145.36 Z M145.36,71.25 V74.10 H148.21 V71.25 H145.36 Z M145.36,74.10 V76.95 H148.21 V74.10 H145.36 Z M145.36,82.65 V85.50 H148.21 V82.65 H145.36 Z M145.36,85.50 V88.36 H148.21 V85.50 H145.36 Z M145.36,94.06 V96.91 H148.21 V94.06 H145.36 Z M145.36,99.76 V102.61 H148.21 V99.76 H145.36 Z M145.36,102.61 V105.46 H148.21 V102.61 H145.36 Z M145.36,105.46 V108.31 H148.21 V105.46 H145.36 Z M145.36,116.86 V119.71 H148.21 V116.86 H145.36 Z M145.36,119.71 V122.56 H148.21 V119.71 H145.36 Z M145.36,128.26 V131.11 H148.21 V128.26 H145.36 Z M145.36,133.96 V136.81 H148.21 V133.96 H145.36 Z M145.36,136.81 V139.66 H148.21 V136.81 H145.36 Z M145.36,139.66 V142.51 H148.21 V139.66 H145.36 Z M145.36,142.51 V145.36 H148.21 V142.51 H145.36 Z M145.36,151.06 V153.91 H148.21 V151.06 H145.36 Z M145.36,162.46 V165.31 H148.21 V162.46 H145.36 Z M145.36,165.31 V168.16 H148.21 V165.31 H145.36 Z M145.36,171.01 V173.86 H148.21 V171.01 H145.36 Z M148.21,0 V2.85 H151.06 V0 H148.21 Z M148.21,2.85 V5.70 H151.06 V2.85 H148.21 Z M148.21,5.70 V8.55 H151.06 V5.70 H148.21 Z M148.21,8.55 V11.40 H151.06 V8.55 H148.21 Z M148.21,17.10 V19.95 H151.06 V17.10 H148.21 Z M148.21,19.95 V22.80 H151.06 V19.95 H148.21 Z M148.21,31.35 V34.20 H151.06 V31.35 H148.21 Z M148.21,34.20 V37.05 H151.06 V34.20 H148.21 Z M148.21,42.75 V45.60 H151.06 V42.75 H148.21 Z M148.21,45.60 V48.45 H151.06 V45.60 H148.21 Z M148.21,48.45 V51.30 H151.06 V48.45 H148.21 Z M148.21,54.15 V57.00 H151.06 V54.15 H148.21 Z M148.21,62.70 V65.55 H151.06 V62.70 H148.21 Z M148.21,68.40 V71.25 H151.06 V68.40 H148.21 Z M148.21,74.10 V76.95 H151.06 V74.10 H148.21 Z M148.21,79.80 V82.65 H151.06 V79.80 H148.21 Z M148.21,82.65 V85.50 H151.06 V82.65 H148.21 Z M148.21,85.50 V88.36 H151.06 V85.50 H148.21 Z M148.21,88.36 V91.21 H151.06 V88.36 H148.21 Z M148.21,91.21 V94.06 H151.06 V91.21 H148.21 Z M148.21,94.06 V96.91 H151.06 V94.06 H148.21 Z M148.21,102.61 V105.46 H151.06 V102.61 H148.21 Z M148.21,108.31 V111.16 H151.06 V108.31 H148.21 Z M148.21,111.16 V114.01 H151.06 V111.16 H148.21 Z M148.21,114.01 V116.86 H151.06 V114.01 H148.21 Z M148.21,125.41 V128.26 H151.06 V125.41 H148.21 Z M148.21,131.11 V133.96 H151.06 V131.11 H148.21 Z M148.21,139.66 V142.51 H151.06 V139.66 H148.21 Z M148.21,145.36 V148.21 H151.06 V145.36 H148.21 Z M148.21,148.21 V151.06 H151.06 V148.21 H148.21 Z M148.21,151.06 V153.91 H151.06 V151.06 H148.21 Z M148.21,153.91 V156.76 H151.06 V153.91 H148.21 Z M148.21,156.76 V159.61 H151.06 V156.76 H148.21 Z M148.21,159.61 V162.46 H151.06 V159.61 H148.21 Z M148.21,168.16 V171.01 H151.06 V168.16 H148.21 Z M151.06,25.65 V28.50 H153.91 V25.65 H151.06 Z M151.06,28.50 V31.35 H153.91 V28.50 H151.06 Z M151.06,31.35 V34.20 H153.91 V31.35 H151.06 Z M151.06,34.20 V37.05 H153.91 V34.20 H151.06 Z M151.06,45.60 V48.45 H153.91 V45.60 H151.06 Z M151.06,48.45 V51.30 H153.91 V48.45 H151.06 Z M151.06,54.15 V57.00 H153.91 V54.15 H151.06 Z M151.06,57.00 V59.85 H153.91 V57.00 H151.06 Z M151.06,59.85 V62.70 H153.91 V59.85 H151.06 Z M151.06,62.70 V65.55 H153.91 V62.70 H151.06 Z M151.06,71.25 V74.10 H153.91 V71.25 H151.06 Z M151.06,74.10 V76.95 H153.91 V74.10 H151.06 Z M151.06,76.95 V79.80 H153.91 V76.95 H151.06 Z M151.06,79.80 V82.65 H153.91 V79.80 H151.06 Z M151.06,91.21 V94.06 H153.91 V91.21 H151.06 Z M151.06,102.61 V105.46 H153.91 V102.61 H151.06 Z M151.06,114.01 V116.86 H153.91 V114.01 H151.06 Z M151.06,116.86 V119.71 H153.91 V116.86 H151.06 Z M151.06,119.71 V122.56 H153.91 V119.71 H151.06 Z M151.06,139.66 V142.51 H153.91 V139.66 H151.06 Z M151.06,145.36 V148.21 H153.91 V145.36 H151.06 Z M151.06,148.21 V151.06 H153.91 V148.21 H151.06 Z M151.06,159.61 V162.46 H153.91 V159.61 H151.06 Z M151.06,168.16 V171.01 H153.91 V168.16 H151.06 Z M151.06,171.01 V173.86 H153.91 V171.01 H151.06 Z M153.91,0 V2.85 H156.76 V0 H153.91 Z M153.91,2.85 V5.70 H156.76 V2.85 H153.91 Z M153.91,5.70 V8.55 H156.76 V5.70 H153.91 Z M153.91,8.55 V11.40 H156.76 V8.55 H153.91 Z M153.91,11.40 V14.25 H156.76 V11.40 H153.91 Z M153.91,14.25 V17.10 H156.76 V14.25 H153.91 Z M153.91,17.10 V19.95 H156.76 V17.10 H153.91 Z M153.91,22.80 V25.65 H156.76 V22.80 H153.91 Z M153.91,25.65 V28.50 H156.76 V25.65 H153.91 Z M153.91,28.50 V31.35 H156.76 V28.50 H153.91 Z M153.91,31.35 V34.20 H156.76 V31.35 H153.91 Z M153.91,34.20 V37.05 H156.76 V34.20 H153.91 Z M153.91,39.90 V42.75 H156.76 V39.90 H153.91 Z M153.91,45.60 V48.45 H156.76 V45.60 H153.91 Z M153.91,51.30 V54.15 H156.76 V51.30 H153.91 Z M153.91,57.00 V59.85 H156.76 V57.00 H153.91 Z M153.91,59.85 V62.70 H156.76 V59.85 H153.91 Z M153.91,62.70 V65.55 H156.76 V62.70 H153.91 Z M153.91,74.10 V76.95 H156.76 V74.10 H153.91 Z M153.91,79.80 V82.65 H156.76 V79.80 H153.91 Z M153.91,85.50 V88.36 H156.76 V85.50 H153.91 Z M153.91,91.21 V94.06 H156.76 V91.21 H153.91 Z M153.91,94.06 V96.91 H156.76 V94.06 H153.91 Z M153.91,99.76 V102.61 H156.76 V99.76 H153.91 Z M153.91,105.46 V108.31 H156.76 V105.46 H153.91 Z M153.91,114.01 V116.86 H156.76 V114.01 H153.91 Z M153.91,119.71 V122.56 H156.76 V119.71 H153.91 Z M153.91,122.56 V125.41 H156.76 V122.56 H153.91 Z M153.91,125.41 V128.26 H156.76 V125.41 H153.91 Z M153.91,128.26 V131.11 H156.76 V128.26 H153.91 Z M153.91,133.96 V136.81 H156.76 V133.96 H153.91 Z M153.91,136.81 V139.66 H156.76 V136.81 H153.91 Z M153.91,148.21 V151.06 H156.76 V148.21 H153.91 Z M153.91,153.91 V156.76 H156.76 V153.91 H153.91 Z M153.91,159.61 V162.46 H156.76 V159.61 H153.91 Z M156.76,0 V2.85 H159.61 V0 H156.76 Z M156.76,17.10 V19.95 H159.61 V17.10 H156.76 Z M156.76,39.90 V42.75 H159.61 V39.90 H156.76 Z M156.76,45.60 V48.45 H159.61 V45.60 H156.76 Z M156.76,51.30 V54.15 H159.61 V51.30 H156.76 Z M156.76,57.00 V59.85 H159.61 V57.00 H156.76 Z M156.76,65.55 V68.40 H159.61 V65.55 H156.76 Z M156.76,68.40 V71.25 H159.61 V68.40 H156.76 Z M156.76,71.25 V74.10 H159.61 V71.25 H156.76 Z M156.76,76.95 V79.80 H159.61 V76.95 H156.76 Z M156.76,79.80 V82.65 H159.61 V79.80 H156.76 Z M156.76,91.21 V94.06 H159.61 V91.21 H156.76 Z M156.76,94.06 V96.91 H159.61 V94.06 H156.76 Z M156.76,96.91 V99.76 H159.61 V96.91 H156.76 Z M156.76,102.61 V105.46 H159.61 V102.61 H156.76 Z M156.76,108.31 V111.16 H159.61 V108.31 H156.76 Z M156.76,125.41 V128.26 H159.61 V125.41 H156.76 Z M156.76,139.66 V142.51 H159.61 V139.66 H156.76 Z M156.76,142.51 V145.36 H159.61 V142.51 H156.76 Z M156.76,148.21 V151.06 H159.61 V148.21 H156.76 Z M156.76,159.61 V162.46 H159.61 V159.61 H156.76 Z M156.76,165.31 V168.16 H159.61 V165.31 H156.76 Z M156.76,168.16 V171.01 H159.61 V168.16 H156.76 Z M156.76,171.01 V173.86 H159.61 V171.01 H156.76 Z M159.61,0 V2.85 H162.46 V0 H159.61 Z M159.61,5.70 V8.55 H162.46 V5.70 H159.61 Z M159.61,8.55 V11.40 H162.46 V8.55 H159.61 Z M159.61,11.40 V14.25 H162.46 V11.40 H159.61 Z M159.61,17.10 V19.95 H162.46 V17.10 H159.61 Z M159.61,25.65 V28.50 H162.46 V25.65 H159.61 Z M159.61,28.50 V31.35 H162.46 V28.50 H159.61 Z M159.61,31.35 V34.20 H162.46 V31.35 H159.61 Z M159.61,37.05 V39.90 H162.46 V37.05 H159.61 Z M159.61,42.75 V45.60 H162.46 V42.75 H159.61 Z M159.61,45.60 V48.45 H162.46 V45.60 H159.61 Z M159.61,54.15 V57.00 H162.46 V54.15 H159.61 Z M159.61,59.85 V62.70 H162.46 V59.85 H159.61 Z M159.61,65.55 V68.40 H162.46 V65.55 H159.61 Z M159.61,71.25 V74.10 H162.46 V71.25 H159.61 Z M159.61,76.95 V79.80 H162.46 V76.95 H159.61 Z M159.61,79.80 V82.65 H162.46 V79.80 H159.61 Z M159.61,82.65 V85.50 H162.46 V82.65 H159.61 Z M159.61,85.50 V88.36 H162.46 V85.50 H159.61 Z M159.61,88.36 V91.21 H162.46 V88.36 H159.61 Z M159.61,91.21 V94.06 H162.46 V91.21 H159.61 Z M159.61,96.91 V99.76 H162.46 V96.91 H159.61 Z M159.61,102.61 V105.46 H162.46 V102.61 H159.61 Z M159.61,105.46 V108.31 H162.46 V105.46 H159.61 Z M159.61,108.31 V111.16 H162.46 V108.31 H159.61 Z M159.61,111.16 V114.01 H162.46 V111.16 H159.61 Z M159.61,119.71 V122.56 H162.46 V119.71 H159.61 Z M159.61,122.56 V125.41 H162.46 V122.56 H159.61 Z M159.61,133.96 V136.81 H162.46 V133.96 H159.61 Z M159.61,136.81 V139.66 H162.46 V136.81 H159.61 Z M159.61,139.66 V142.51 H162.46 V139.66 H159.61 Z M159.61,142.51 V145.36 H162.46 V142.51 H159.61 Z M159.61,148.21 V151.06 H162.46 V148.21 H159.61 Z M159.61,151.06 V153.91 H162.46 V151.06 H159.61 Z M159.61,153.91 V156.76 H162.46 V153.91 H159.61 Z M159.61,156.76 V159.61 H162.46 V156.76 H159.61 Z M159.61,159.61 V162.46 H162.46 V159.61 H159.61 Z M159.61,162.46 V165.31 H162.46 V162.46 H159.61 Z M159.61,165.31 V168.16 H162.46 V165.31 H159.61 Z M162.46,0 V2.85 H165.31 V0 H162.46 Z M162.46,5.70 V8.55 H165.31 V5.70 H162.46 Z M162.46,8.55 V11.40 H165.31 V8.55 H162.46 Z M162.46,11.40 V14.25 H165.31 V11.40 H162.46 Z M162.46,17.10 V19.95 H165.31 V17.10 H162.46 Z M162.46,22.80 V25.65 H165.31 V22.80 H162.46 Z M162.46,25.65 V28.50 H165.31 V25.65 H162.46 Z M162.46,31.35 V34.20 H165.31 V31.35 H162.46 Z M162.46,34.20 V37.05 H165.31 V34.20 H162.46 Z M162.46,39.90 V42.75 H165.31 V39.90 H162.46 Z M162.46,45.60 V48.45 H165.31 V45.60 H162.46 Z M162.46,54.15 V57.00 H165.31 V54.15 H162.46 Z M162.46,57.00 V59.85 H165.31 V57.00 H162.46 Z M162.46,59.85 V62.70 H165.31 V59.85 H162.46 Z M162.46,65.55 V68.40 H165.31 V65.55 H162.46 Z M162.46,68.40 V71.25 H165.31 V68.40 H162.46 Z M162.46,74.10 V76.95 H165.31 V74.10 H162.46 Z M162.46,76.95 V79.80 H165.31 V76.95 H162.46 Z M162.46,82.65 V85.50 H165.31 V82.65 H162.46 Z M162.46,85.50 V88.36 H165.31 V85.50 H162.46 Z M162.46,88.36 V91.21 H165.31 V88.36 H162.46 Z M162.46,94.06 V96.91 H165.31 V94.06 H162.46 Z M162.46,102.61 V105.46 H165.31 V102.61 H162.46 Z M162.46,116.86 V119.71 H165.31 V116.86 H162.46 Z M162.46,122.56 V125.41 H165.31 V122.56 H162.46 Z M162.46,125.41 V128.26 H165.31 V125.41 H162.46 Z M162.46,128.26 V131.11 H165.31 V128.26 H162.46 Z M162.46,133.96 V136.81 H165.31 V133.96 H162.46 Z M162.46,139.66 V142.51 H165.31 V139.66 H162.46 Z M162.46,142.51 V145.36 H165.31 V142.51 H162.46 Z M162.46,151.06 V153.91 H165.31 V151.06 H162.46 Z M162.46,156.76 V159.61 H165.31 V156.76 H162.46 Z M162.46,159.61 V162.46 H165.31 V159.61 H162.46 Z M162.46,162.46 V165.31 H165.31 V162.46 H162.46 Z M162.46,165.31 V168.16 H165.31 V165.31 H162.46 Z M162.46,171.01 V173.86 H165.31 V171.01 H162.46 Z M165.31,0 V2.85 H168.16 V0 H165.31 Z M165.31,5.70 V8.55 H168.16 V5.70 H165.31 Z M165.31,8.55 V11.40 H168.16 V8.55 H165.31 Z M165.31,11.40 V14.25 H168.16 V11.40 H165.31 Z M165.31,17.10 V19.95 H168.16 V17.10 H165.31 Z M165.31,25.65 V28.50 H168.16 V25.65 H165.31 Z M165.31,28.50 V31.35 H168.16 V28.50 H165.31 Z M165.31,31.35 V34.20 H168.16 V31.35 H165.31 Z M165.31,39.90 V42.75 H168.16 V39.90 H165.31 Z M165.31,48.45 V51.30 H168.16 V48.45 H165.31 Z M165.31,51.30 V54.15 H168.16 V51.30 H165.31 Z M165.31,57.00 V59.85 H168.16 V57.00 H165.31 Z M165.31,65.55 V68.40 H168.16 V65.55 H165.31 Z M165.31,68.40 V71.25 H168.16 V68.40 H165.31 Z M165.31,85.50 V88.36 H168.16 V85.50 H165.31 Z M165.31,91.21 V94.06 H168.16 V91.21 H165.31 Z M165.31,96.91 V99.76 H168.16 V96.91 H165.31 Z M165.31,99.76 V102.61 H168.16 V99.76 H165.31 Z M165.31,102.61 V105.46 H168.16 V102.61 H165.31 Z M165.31,108.31 V111.16 H168.16 V108.31 H165.31 Z M165.31,116.86 V119.71 H168.16 V116.86 H165.31 Z M165.31,128.26 V131.11 H168.16 V128.26 H165.31 Z M165.31,131.11 V133.96 H168.16 V131.11 H165.31 Z M165.31,133.96 V136.81 H168.16 V133.96 H165.31 Z M165.31,139.66 V142.51 H168.16 V139.66 H165.31 Z M165.31,159.61 V162.46 H168.16 V159.61 H165.31 Z M165.31,165.31 V168.16 H168.16 V165.31 H165.31 Z M165.31,168.16 V171.01 H168.16 V168.16 H165.31 Z M168.16,0 V2.85 H171.01 V0 H168.16 Z M168.16,17.10 V19.95 H171.01 V17.10 H168.16 Z M168.16,22.80 V25.65 H171.01 V22.80 H168.16 Z M168.16,25.65 V28.50 H171.01 V25.65 H168.16 Z M168.16,39.90 V42.75 H171.01 V39.90 H168.16 Z M168.16,45.60 V48.45 H171.01 V45.60 H168.16 Z M168.16,48.45 V51.30 H171.01 V48.45 H168.16 Z M168.16,51.30 V54.15 H171.01 V51.30 H168.16 Z M168.16,57.00 V59.85 H171.01 V57.00 H168.16 Z M168.16,59.85 V62.70 H171.01 V59.85 H168.16 Z M168.16,71.25 V74.10 H171.01 V71.25 H168.16 Z M168.16,79.80 V82.65 H171.01 V79.80 H168.16 Z M168.16,88.36 V91.21 H171.01 V88.36 H168.16 Z M168.16,91.21 V94.06 H171.01 V91.21 H168.16 Z M168.16,96.91 V99.76 H171.01 V96.91 H168.16 Z M168.16,102.61 V105.46 H171.01 V102.61 H168.16 Z M168.16,105.46 V108.31 H171.01 V105.46 H168.16 Z M168.16,108.31 V111.16 H171.01 V108.31 H168.16 Z M168.16,114.01 V116.86 H171.01 V114.01 H168.16 Z M168.16,122.56 V125.41 H171.01 V122.56 H168.16 Z M168.16,125.41 V128.26 H171.01 V125.41 H168.16 Z M168.16,133.96 V136.81 H171.01 V133.96 H168.16 Z M168.16,139.66 V142.51 H171.01 V139.66 H168.16 Z M168.16,142.51 V145.36 H171.01 V142.51 H168.16 Z M168.16,148.21 V151.06 H171.01 V148.21 H168.16 Z M168.16,153.91 V156.76 H171.01 V153.91 H168.16 Z M168.16,165.31 V168.16 H171.01 V165.31 H168.16 Z M168.16,171.01 V173.86 H171.01 V171.01 H168.16 Z M171.01,0 V2.85 H173.86 V0 H171.01 Z M171.01,2.85 V5.70 H173.86 V2.85 H171.01 Z M171.01,5.70 V8.55 H173.86 V5.70 H171.01 Z M171.01,8.55 V11.40 H173.86 V8.55 H171.01 Z M171.01,11.40 V14.25 H173.86 V11.40 H171.01 Z M171.01,14.25 V17.10 H173.86 V14.25 H171.01 Z M171.01,17.10 V19.95 H173.86 V17.10 H171.01 Z M171.01,22.80 V25.65 H173.86 V22.80 H171.01 Z M171.01,25.65 V28.50 H173.86 V25.65 H171.01 Z M171.01,31.35 V34.20 H173.86 V31.35 H171.01 Z M171.01,45.60 V48.45 H173.86 V45.60 H171.01 Z M171.01,51.30 V54.15 H173.86 V51.30 H171.01 Z M171.01,59.85 V62.70 H173.86 V59.85 H171.01 Z M171.01,68.40 V71.25 H173.86 V68.40 H171.01 Z M171.01,76.95 V79.80 H173.86 V76.95 H171.01 Z M171.01,79.80 V82.65 H173.86 V79.80 H171.01 Z M171.01,85.50 V88.36 H173.86 V85.50 H171.01 Z M171.01,88.36 V91.21 H173.86 V88.36 H171.01 Z M171.01,94.06 V96.91 H173.86 V94.06 H171.01 Z M171.01,99.76 V102.61 H173.86 V99.76 H171.01 Z M171.01,105.46 V108.31 H173.86 V105.46 H171.01 Z M171.01,108.31 V111.16 H173.86 V108.31 H171.01 Z M171.01,111.16 V114.01 H173.86 V111.16 H171.01 Z M171.01,116.86 V119.71 H173.86 V116.86 H171.01 Z M171.01,119.71 V122.56 H173.86 V119.71 H171.01 Z M171.01,122.56 V125.41 H173.86 V122.56 H171.01 Z M171.01,125.41 V128.26 H173.86 V125.41 H171.01 Z M171.01,128.26 V131.11 H173.86 V128.26 H171.01 Z M171.01,133.96 V136.81 H173.86 V133.96 H171.01 Z M171.01,136.81 V139.66 H173.86 V136.81 H171.01 Z M171.01,145.36 V148.21 H173.86 V145.36 H171.01 Z M171.01,148.21 V151.06 H173.86 V148.21 H171.01 Z M171.01,151.06 V153.91 H173.86 V151.06 H171.01 Z M171.01,153.91 V156.76 H173.86 V153.91 H171.01 Z M171.01,159.61 V162.46 H173.86 V159.61 H171.01 Z M171.01,162.46 V165.31 H173.86 V162.46 H171.01 Z M171.01,171.01 V173.86 H173.86 V171.01 H171.01 Z " fill="black" stroke="none"></path> 
      <svg width="7mm" height="7mm" x="20mm" y="20mm" viewBox="0 0 19.8 19.8">
         <polygon points="18.3,0.7 1.6,0.7 0.7,0.7 0.7,1.6 0.7,18.3 0.7,19.1 1.6,19.1 18.3,19.1 19.1,19.1 19.1,18.3 19.1,1.6 19.1,0.7 " fill="black" />
         <rect x="8.3" y="4" width="3.3" height="11" fill="white" />
         <rect x="4.4" y="7.9" width="11" height="3.3" fill="white" />
         <polygon points="0.7,1.6 0.7,18.3 0.7,19.1 1.6,19.1 18.3,19.1 19.1,19.1 19.1,18.3 19.1,1.6 19.1,0.7 18.3,0.7 1.6,0.7 0.7,0.7 " fill="none" stroke="white" stroke-width="1.4357" stroke-miterlimit="10" />
      </svg>
   </svg>
</svg>
