<?xml version="1.0" encoding="UTF-8"?>
<svg xmlns="http://www.w3.org/2000/svg" xmlns:xlink="http://www.w3.org/1999/xlink" data-v-223f4b97="" version="1.2" width="210mm" height="110mm">
   <line y1="5mm" y2="5mm" x1="0mm" x2="210mm" stroke="black" height="0.5mm" stroke-dasharray="5,5" d="M5 20 l215 0" />
   <text x="25mm" y="5mm" text-anchor="middle" style="transform: rotate(45deg) rotate(-41.8deg); transform-origin: 0% 0%;">✂</text>
   <line x1="62mm" x2="62mm" y1="5mm" y2="110mm" stroke="black" height="0.5mm" stroke-dasharray="5,5" d="M5 20 l215 0" />
   <text x="3mm" y="50mm" text-anchor="middle" style="transform: rotate(45deg) rotate(-136.5deg); transform-origin: 21% 28.9%;">✂</text>
   <svg x="5mm" y="10mm" width="52mm" height="63mm">
      <text dy="5mm" class="title-r/p">Empfangsschein</text>
      <text y="9mm" x="0mm">
         <tspan x="0mm" dy="18pt" class="heading-r">Konto / Zahlbar an</tspan>
         <tspan x="0mm" dy="16pt" class="value-r">CH39 0483 5056 3063 3100 0</tspan>
         <tspan x="0mm" dy="11pt" class="value-r">
            <tspan x="0mm" dy="8pt" class="is-value-r">Walter Rothlin</tspan>
         </tspan>
         <tspan x="0mm" dy="11pt" class="value-r">
            <tspan x="0mm" dy="8pt" class="value-r">Peterliwiese 33</tspan>
         </tspan>
         <tspan x="0mm" dy="11pt" class="value-r">
            <tspan x="0mm" dy="8pt" class="value-r">8855 Wangen</tspan>
         </tspan>
         <tspan x="0mm" dy="11pt" class="value-r" />
         <tspan x="0mm" dy="18pt" class="heading-r">Zahlbar durch</tspan>
         <tspan x="0mm" dy="13pt" class="value-r">
            <tspan x="0mm" dy="8pt" class="is-value-r">Claudia Collet Rothlin</tspan>
         </tspan>
         <tspan x="0mm" dy="11pt" class="value-r">
            <tspan x="0mm" dy="8pt" class="value-r">Peterliwiese 33</tspan>
         </tspan>
         <tspan x="0mm" dy="11pt" class="value-r">
            <tspan x="0mm" dy="8pt" class="value-r">8855 Wangen</tspan>
         </tspan>
      </text>
   </svg>
   <svg id="amount-section" x="5mm" y="80mm" width="52mm" height="14mm">
      <text x="0mm" dy="15pt">
         <tspan x="0mm" dy="9pt" class="heading-r">Währung</tspan>
         <tspan x="0mm" dy="9pt" class="value-p">CHF</tspan>
      </text>
      <text x="0mm" y="9pt">
         <tspan x="21.5mm" dy="0pt" class="heading-r">Betrag</tspan>
         <tspan x="21.5mm" dy="9pt" class="value-p">1.00</tspan>
      </text>
   </svg>
   <svg id="acceptance" x="5mm" y="95mm" width="52mm" height="18mm">
      <text y="3mm" x="33mm" class="acceptance-point">Annahmestelle</text>
   </svg>
   <svg x="67mm" y="10mm" width="46mm" height="95mm">
      <text class="title-r/p" dy="5mm">Zahlteil</text>
   </svg>
   <svg x="67mm" y="22mm" width="46mm" height="46mm">
      <path transform="scale(-1,1) translate(-175,0)" d="M0,0 V3.05 H3.05 V0 H0 Z M0,3.05 V6.10 H3.05 V3.05 H0 Z M0,6.10 V9.15 H3.05 V6.10 H0 Z M0,9.15 V12.20 H3.05 V9.15 H0 Z M0,12.20 V15.25 H3.05 V12.20 H0 Z M0,15.25 V18.30 H3.05 V15.25 H0 Z M0,18.30 V21.35 H3.05 V18.30 H0 Z M0,24.40 V27.45 H3.05 V24.40 H0 Z M0,36.60 V39.65 H3.05 V36.60 H0 Z M0,42.70 V45.75 H3.05 V42.70 H0 Z M0,51.85 V54.90 H3.05 V51.85 H0 Z M0,54.90 V57.95 H3.05 V54.90 H0 Z M0,61.00 V64.05 H3.05 V61.00 H0 Z M0,64.05 V67.10 H3.05 V64.05 H0 Z M0,70.15 V73.20 H3.05 V70.15 H0 Z M0,73.20 V76.25 H3.05 V73.20 H0 Z M0,76.25 V79.30 H3.05 V76.25 H0 Z M0,79.30 V82.35 H3.05 V79.30 H0 Z M0,85.40 V88.46 H3.05 V85.40 H0 Z M0,88.46 V91.51 H3.05 V88.46 H0 Z M0,91.51 V94.56 H3.05 V91.51 H0 Z M0,97.61 V100.66 H3.05 V97.61 H0 Z M0,109.81 V112.86 H3.05 V109.81 H0 Z M0,115.91 V118.96 H3.05 V115.91 H0 Z M0,122.01 V125.06 H3.05 V122.01 H0 Z M0,125.06 V128.11 H3.05 V125.06 H0 Z M0,128.11 V131.16 H3.05 V128.11 H0 Z M0,134.21 V137.26 H3.05 V134.21 H0 Z M0,137.26 V140.31 H3.05 V137.26 H0 Z M0,140.31 V143.36 H3.05 V140.31 H0 Z M0,143.36 V146.41 H3.05 V143.36 H0 Z M0,152.51 V155.56 H3.05 V152.51 H0 Z M0,155.56 V158.61 H3.05 V155.56 H0 Z M0,158.61 V161.66 H3.05 V158.61 H0 Z M0,161.66 V164.71 H3.05 V161.66 H0 Z M0,164.71 V167.76 H3.05 V164.71 H0 Z M0,167.76 V170.81 H3.05 V167.76 H0 Z M0,170.81 V173.86 H3.05 V170.81 H0 Z M3.05,0 V3.05 H6.10 V0 H3.05 Z M3.05,18.30 V21.35 H6.10 V18.30 H3.05 Z M3.05,33.55 V36.60 H6.10 V33.55 H3.05 Z M3.05,42.70 V45.75 H6.10 V42.70 H3.05 Z M3.05,48.80 V51.85 H6.10 V48.80 H3.05 Z M3.05,61.00 V64.05 H6.10 V61.00 H3.05 Z M3.05,64.05 V67.10 H6.10 V64.05 H3.05 Z M3.05,67.10 V70.15 H6.10 V67.10 H3.05 Z M3.05,73.20 V76.25 H6.10 V73.20 H3.05 Z M3.05,79.30 V82.35 H6.10 V79.30 H3.05 Z M3.05,85.40 V88.46 H6.10 V85.40 H3.05 Z M3.05,88.46 V91.51 H6.10 V88.46 H3.05 Z M3.05,94.56 V97.61 H6.10 V94.56 H3.05 Z M3.05,100.66 V103.71 H6.10 V100.66 H3.05 Z M3.05,103.71 V106.76 H6.10 V103.71 H3.05 Z M3.05,106.76 V109.81 H6.10 V106.76 H3.05 Z M3.05,109.81 V112.86 H6.10 V109.81 H3.05 Z M3.05,112.86 V115.91 H6.10 V112.86 H3.05 Z M3.05,115.91 V118.96 H6.10 V115.91 H3.05 Z M3.05,122.01 V125.06 H6.10 V122.01 H3.05 Z M3.05,128.11 V131.16 H6.10 V128.11 H3.05 Z M3.05,131.16 V134.21 H6.10 V131.16 H3.05 Z M3.05,143.36 V146.41 H6.10 V143.36 H3.05 Z M3.05,152.51 V155.56 H6.10 V152.51 H3.05 Z M3.05,170.81 V173.86 H6.10 V170.81 H3.05 Z M6.10,0 V3.05 H9.15 V0 H6.10 Z M6.10,6.10 V9.15 H9.15 V6.10 H6.10 Z M6.10,9.15 V12.20 H9.15 V9.15 H6.10 Z M6.10,12.20 V15.25 H9.15 V12.20 H6.10 Z M6.10,18.30 V21.35 H9.15 V18.30 H6.10 Z M6.10,24.40 V27.45 H9.15 V24.40 H6.10 Z M6.10,27.45 V30.50 H9.15 V27.45 H6.10 Z M6.10,33.55 V36.60 H9.15 V33.55 H6.10 Z M6.10,45.75 V48.80 H9.15 V45.75 H6.10 Z M6.10,51.85 V54.90 H9.15 V51.85 H6.10 Z M6.10,54.90 V57.95 H9.15 V54.90 H6.10 Z M6.10,67.10 V70.15 H9.15 V67.10 H6.10 Z M6.10,73.20 V76.25 H9.15 V73.20 H6.10 Z M6.10,79.30 V82.35 H9.15 V79.30 H6.10 Z M6.10,82.35 V85.40 H9.15 V82.35 H6.10 Z M6.10,94.56 V97.61 H9.15 V94.56 H6.10 Z M6.10,97.61 V100.66 H9.15 V97.61 H6.10 Z M6.10,100.66 V103.71 H9.15 V100.66 H6.10 Z M6.10,109.81 V112.86 H9.15 V109.81 H6.10 Z M6.10,112.86 V115.91 H9.15 V112.86 H6.10 Z M6.10,115.91 V118.96 H9.15 V115.91 H6.10 Z M6.10,128.11 V131.16 H9.15 V128.11 H6.10 Z M6.10,134.21 V137.26 H9.15 V134.21 H6.10 Z M6.10,137.26 V140.31 H9.15 V137.26 H6.10 Z M6.10,140.31 V143.36 H9.15 V140.31 H6.10 Z M6.10,143.36 V146.41 H9.15 V143.36 H6.10 Z M6.10,152.51 V155.56 H9.15 V152.51 H6.10 Z M6.10,158.61 V161.66 H9.15 V158.61 H6.10 Z M6.10,161.66 V164.71 H9.15 V161.66 H6.10 Z M6.10,164.71 V167.76 H9.15 V164.71 H6.10 Z M6.10,170.81 V173.86 H9.15 V170.81 H6.10 Z M9.15,0 V3.05 H12.20 V0 H9.15 Z M9.15,6.10 V9.15 H12.20 V6.10 H9.15 Z M9.15,9.15 V12.20 H12.20 V9.15 H9.15 Z M9.15,12.20 V15.25 H12.20 V12.20 H9.15 Z M9.15,18.30 V21.35 H12.20 V18.30 H9.15 Z M9.15,33.55 V36.60 H12.20 V33.55 H9.15 Z M9.15,45.75 V48.80 H12.20 V45.75 H9.15 Z M9.15,54.90 V57.95 H12.20 V54.90 H9.15 Z M9.15,67.10 V70.15 H12.20 V67.10 H9.15 Z M9.15,70.15 V73.20 H12.20 V70.15 H9.15 Z M9.15,76.25 V79.30 H12.20 V76.25 H9.15 Z M9.15,79.30 V82.35 H12.20 V79.30 H9.15 Z M9.15,82.35 V85.40 H12.20 V82.35 H9.15 Z M9.15,85.40 V88.46 H12.20 V85.40 H9.15 Z M9.15,91.51 V94.56 H12.20 V91.51 H9.15 Z M9.15,106.76 V109.81 H12.20 V106.76 H9.15 Z M9.15,109.81 V112.86 H12.20 V109.81 H9.15 Z M9.15,112.86 V115.91 H12.20 V112.86 H9.15 Z M9.15,115.91 V118.96 H12.20 V115.91 H9.15 Z M9.15,125.06 V128.11 H12.20 V125.06 H9.15 Z M9.15,137.26 V140.31 H12.20 V137.26 H9.15 Z M9.15,143.36 V146.41 H12.20 V143.36 H9.15 Z M9.15,152.51 V155.56 H12.20 V152.51 H9.15 Z M9.15,158.61 V161.66 H12.20 V158.61 H9.15 Z M9.15,161.66 V164.71 H12.20 V161.66 H9.15 Z M9.15,164.71 V167.76 H12.20 V164.71 H9.15 Z M9.15,170.81 V173.86 H12.20 V170.81 H9.15 Z M12.20,0 V3.05 H15.25 V0 H12.20 Z M12.20,6.10 V9.15 H15.25 V6.10 H12.20 Z M12.20,9.15 V12.20 H15.25 V9.15 H12.20 Z M12.20,12.20 V15.25 H15.25 V12.20 H12.20 Z M12.20,18.30 V21.35 H15.25 V18.30 H12.20 Z M12.20,24.40 V27.45 H15.25 V24.40 H12.20 Z M12.20,30.50 V33.55 H15.25 V30.50 H12.20 Z M12.20,36.60 V39.65 H15.25 V36.60 H12.20 Z M12.20,39.65 V42.70 H15.25 V39.65 H12.20 Z M12.20,42.70 V45.75 H15.25 V42.70 H12.20 Z M12.20,45.75 V48.80 H15.25 V45.75 H12.20 Z M12.20,48.80 V51.85 H15.25 V48.80 H12.20 Z M12.20,54.90 V57.95 H15.25 V54.90 H12.20 Z M12.20,61.00 V64.05 H15.25 V61.00 H12.20 Z M12.20,76.25 V79.30 H15.25 V76.25 H12.20 Z M12.20,79.30 V82.35 H15.25 V79.30 H12.20 Z M12.20,82.35 V85.40 H15.25 V82.35 H12.20 Z M12.20,85.40 V88.46 H15.25 V85.40 H12.20 Z M12.20,88.46 V91.51 H15.25 V88.46 H12.20 Z M12.20,91.51 V94.56 H15.25 V91.51 H12.20 Z M12.20,94.56 V97.61 H15.25 V94.56 H12.20 Z M12.20,97.61 V100.66 H15.25 V97.61 H12.20 Z M12.20,109.81 V112.86 H15.25 V109.81 H12.20 Z M12.20,112.86 V115.91 H15.25 V112.86 H12.20 Z M12.20,115.91 V118.96 H15.25 V115.91 H12.20 Z M12.20,128.11 V131.16 H15.25 V128.11 H12.20 Z M12.20,134.21 V137.26 H15.25 V134.21 H12.20 Z M12.20,143.36 V146.41 H15.25 V143.36 H12.20 Z M12.20,152.51 V155.56 H15.25 V152.51 H12.20 Z M12.20,158.61 V161.66 H15.25 V158.61 H12.20 Z M12.20,161.66 V164.71 H15.25 V161.66 H12.20 Z M12.20,164.71 V167.76 H15.25 V164.71 H12.20 Z M12.20,170.81 V173.86 H15.25 V170.81 H12.20 Z M15.25,0 V3.05 H18.30 V0 H15.25 Z M15.25,18.30 V21.35 H18.30 V18.30 H15.25 Z M15.25,30.50 V33.55 H18.30 V30.50 H15.25 Z M15.25,45.75 V48.80 H18.30 V45.75 H15.25 Z M15.25,48.80 V51.85 H18.30 V48.80 H15.25 Z M15.25,51.85 V54.90 H18.30 V51.85 H15.25 Z M15.25,54.90 V57.95 H18.30 V54.90 H15.25 Z M15.25,57.95 V61.00 H18.30 V57.95 H15.25 Z M15.25,61.00 V64.05 H18.30 V61.00 H15.25 Z M15.25,64.05 V67.10 H18.30 V64.05 H15.25 Z M15.25,67.10 V70.15 H18.30 V67.10 H15.25 Z M15.25,70.15 V73.20 H18.30 V70.15 H15.25 Z M15.25,73.20 V76.25 H18.30 V73.20 H15.25 Z M15.25,79.30 V82.35 H18.30 V79.30 H15.25 Z M15.25,91.51 V94.56 H18.30 V91.51 H15.25 Z M15.25,94.56 V97.61 H18.30 V94.56 H15.25 Z M15.25,100.66 V103.71 H18.30 V100.66 H15.25 Z M15.25,112.86 V115.91 H18.30 V112.86 H15.25 Z M15.25,118.96 V122.01 H18.30 V118.96 H15.25 Z M15.25,122.01 V125.06 H18.30 V122.01 H15.25 Z M15.25,131.16 V134.21 H18.30 V131.16 H15.25 Z M15.25,140.31 V143.36 H18.30 V140.31 H15.25 Z M15.25,152.51 V155.56 H18.30 V152.51 H15.25 Z M15.25,170.81 V173.86 H18.30 V170.81 H15.25 Z M18.30,0 V3.05 H21.35 V0 H18.30 Z M18.30,3.05 V6.10 H21.35 V3.05 H18.30 Z M18.30,6.10 V9.15 H21.35 V6.10 H18.30 Z M18.30,9.15 V12.20 H21.35 V9.15 H18.30 Z M18.30,12.20 V15.25 H21.35 V12.20 H18.30 Z M18.30,15.25 V18.30 H21.35 V15.25 H18.30 Z M18.30,18.30 V21.35 H21.35 V18.30 H18.30 Z M18.30,24.40 V27.45 H21.35 V24.40 H18.30 Z M18.30,30.50 V33.55 H21.35 V30.50 H18.30 Z M18.30,36.60 V39.65 H21.35 V36.60 H18.30 Z M18.30,42.70 V45.75 H21.35 V42.70 H18.30 Z M18.30,48.80 V51.85 H21.35 V48.80 H18.30 Z M18.30,54.90 V57.95 H21.35 V54.90 H18.30 Z M18.30,61.00 V64.05 H21.35 V61.00 H18.30 Z M18.30,67.10 V70.15 H21.35 V67.10 H18.30 Z M18.30,73.20 V76.25 H21.35 V73.20 H18.30 Z M18.30,79.30 V82.35 H21.35 V79.30 H18.30 Z M18.30,85.40 V88.46 H21.35 V85.40 H18.30 Z M18.30,91.51 V94.56 H21.35 V91.51 H18.30 Z M18.30,97.61 V100.66 H21.35 V97.61 H18.30 Z M18.30,103.71 V106.76 H21.35 V103.71 H18.30 Z M18.30,109.81 V112.86 H21.35 V109.81 H18.30 Z M18.30,115.91 V118.96 H21.35 V115.91 H18.30 Z M18.30,122.01 V125.06 H21.35 V122.01 H18.30 Z M18.30,128.11 V131.16 H21.35 V128.11 H18.30 Z M18.30,134.21 V137.26 H21.35 V134.21 H18.30 Z M18.30,140.31 V143.36 H21.35 V140.31 H18.30 Z M18.30,146.41 V149.46 H21.35 V146.41 H18.30 Z M18.30,152.51 V155.56 H21.35 V152.51 H18.30 Z M18.30,155.56 V158.61 H21.35 V155.56 H18.30 Z M18.30,158.61 V161.66 H21.35 V158.61 H18.30 Z M18.30,161.66 V164.71 H21.35 V161.66 H18.30 Z M18.30,164.71 V167.76 H21.35 V164.71 H18.30 Z M18.30,167.76 V170.81 H21.35 V167.76 H18.30 Z M18.30,170.81 V173.86 H21.35 V170.81 H18.30 Z M21.35,30.50 V33.55 H24.40 V30.50 H21.35 Z M21.35,42.70 V45.75 H24.40 V42.70 H21.35 Z M21.35,48.80 V51.85 H24.40 V48.80 H21.35 Z M21.35,54.90 V57.95 H24.40 V54.90 H21.35 Z M21.35,61.00 V64.05 H24.40 V61.00 H21.35 Z M21.35,73.20 V76.25 H24.40 V73.20 H21.35 Z M21.35,79.30 V82.35 H24.40 V79.30 H21.35 Z M21.35,91.51 V94.56 H24.40 V91.51 H21.35 Z M21.35,106.76 V109.81 H24.40 V106.76 H21.35 Z M21.35,112.86 V115.91 H24.40 V112.86 H21.35 Z M21.35,118.96 V122.01 H24.40 V118.96 H21.35 Z M21.35,125.06 V128.11 H24.40 V125.06 H21.35 Z M21.35,134.21 V137.26 H24.40 V134.21 H21.35 Z M21.35,140.31 V143.36 H24.40 V140.31 H21.35 Z M21.35,146.41 V149.46 H24.40 V146.41 H21.35 Z M24.40,3.05 V6.10 H27.45 V3.05 H24.40 Z M24.40,12.20 V15.25 H27.45 V12.20 H24.40 Z M24.40,18.30 V21.35 H27.45 V18.30 H24.40 Z M24.40,33.55 V36.60 H27.45 V33.55 H24.40 Z M24.40,36.60 V39.65 H27.45 V36.60 H24.40 Z M24.40,39.65 V42.70 H27.45 V39.65 H24.40 Z M24.40,42.70 V45.75 H27.45 V42.70 H24.40 Z M24.40,45.75 V48.80 H27.45 V45.75 H24.40 Z M24.40,57.95 V61.00 H27.45 V57.95 H24.40 Z M24.40,61.00 V64.05 H27.45 V61.00 H24.40 Z M24.40,64.05 V67.10 H27.45 V64.05 H24.40 Z M24.40,79.30 V82.35 H27.45 V79.30 H24.40 Z M24.40,82.35 V85.40 H27.45 V82.35 H24.40 Z M24.40,85.40 V88.46 H27.45 V85.40 H24.40 Z M24.40,88.46 V91.51 H27.45 V88.46 H24.40 Z M24.40,91.51 V94.56 H27.45 V91.51 H24.40 Z M24.40,97.61 V100.66 H27.45 V97.61 H24.40 Z M24.40,100.66 V103.71 H27.45 V100.66 H24.40 Z M24.40,103.71 V106.76 H27.45 V103.71 H24.40 Z M24.40,106.76 V109.81 H27.45 V106.76 H24.40 Z M24.40,112.86 V115.91 H27.45 V112.86 H24.40 Z M24.40,118.96 V122.01 H27.45 V118.96 H24.40 Z M24.40,128.11 V131.16 H27.45 V128.11 H24.40 Z M24.40,134.21 V137.26 H27.45 V134.21 H24.40 Z M24.40,140.31 V143.36 H27.45 V140.31 H24.40 Z M24.40,143.36 V146.41 H27.45 V143.36 H24.40 Z M24.40,149.46 V152.51 H27.45 V149.46 H24.40 Z M24.40,158.61 V161.66 H27.45 V158.61 H24.40 Z M24.40,164.71 V167.76 H27.45 V164.71 H24.40 Z M24.40,170.81 V173.86 H27.45 V170.81 H24.40 Z M27.45,0 V3.05 H30.50 V0 H27.45 Z M27.45,3.05 V6.10 H30.50 V3.05 H27.45 Z M27.45,9.15 V12.20 H30.50 V9.15 H27.45 Z M27.45,12.20 V15.25 H30.50 V12.20 H27.45 Z M27.45,15.25 V18.30 H30.50 V15.25 H27.45 Z M27.45,21.35 V24.40 H30.50 V21.35 H27.45 Z M27.45,24.40 V27.45 H30.50 V24.40 H27.45 Z M27.45,27.45 V30.50 H30.50 V27.45 H27.45 Z M27.45,45.75 V48.80 H30.50 V45.75 H27.45 Z M27.45,51.85 V54.90 H30.50 V51.85 H27.45 Z M27.45,54.90 V57.95 H30.50 V54.90 H27.45 Z M27.45,64.05 V67.10 H30.50 V64.05 H27.45 Z M27.45,73.20 V76.25 H30.50 V73.20 H27.45 Z M27.45,76.25 V79.30 H30.50 V76.25 H27.45 Z M27.45,82.35 V85.40 H30.50 V82.35 H27.45 Z M27.45,91.51 V94.56 H30.50 V91.51 H27.45 Z M27.45,106.76 V109.81 H30.50 V106.76 H27.45 Z M27.45,112.86 V115.91 H30.50 V112.86 H27.45 Z M27.45,122.01 V125.06 H30.50 V122.01 H27.45 Z M27.45,125.06 V128.11 H30.50 V125.06 H27.45 Z M27.45,152.51 V155.56 H30.50 V152.51 H27.45 Z M27.45,167.76 V170.81 H30.50 V167.76 H27.45 Z M30.50,0 V3.05 H33.55 V0 H30.50 Z M30.50,6.10 V9.15 H33.55 V6.10 H30.50 Z M30.50,15.25 V18.30 H33.55 V15.25 H30.50 Z M30.50,18.30 V21.35 H33.55 V18.30 H30.50 Z M30.50,21.35 V24.40 H33.55 V21.35 H30.50 Z M30.50,27.45 V30.50 H33.55 V27.45 H30.50 Z M30.50,33.55 V36.60 H33.55 V33.55 H30.50 Z M30.50,39.65 V42.70 H33.55 V39.65 H30.50 Z M30.50,42.70 V45.75 H33.55 V42.70 H30.50 Z M30.50,48.80 V51.85 H33.55 V48.80 H30.50 Z M30.50,54.90 V57.95 H33.55 V54.90 H30.50 Z M30.50,79.30 V82.35 H33.55 V79.30 H30.50 Z M30.50,85.40 V88.46 H33.55 V85.40 H30.50 Z M30.50,97.61 V100.66 H33.55 V97.61 H30.50 Z M30.50,115.91 V118.96 H33.55 V115.91 H30.50 Z M30.50,118.96 V122.01 H33.55 V118.96 H30.50 Z M30.50,131.16 V134.21 H33.55 V131.16 H30.50 Z M30.50,134.21 V137.26 H33.55 V134.21 H30.50 Z M30.50,137.26 V140.31 H33.55 V137.26 H30.50 Z M30.50,140.31 V143.36 H33.55 V140.31 H30.50 Z M30.50,143.36 V146.41 H33.55 V143.36 H30.50 Z M30.50,155.56 V158.61 H33.55 V155.56 H30.50 Z M30.50,161.66 V164.71 H33.55 V161.66 H30.50 Z M30.50,164.71 V167.76 H33.55 V164.71 H30.50 Z M33.55,0 V3.05 H36.60 V0 H33.55 Z M33.55,3.05 V6.10 H36.60 V3.05 H33.55 Z M33.55,6.10 V9.15 H36.60 V6.10 H33.55 Z M33.55,9.15 V12.20 H36.60 V9.15 H33.55 Z M33.55,12.20 V15.25 H36.60 V12.20 H33.55 Z M33.55,15.25 V18.30 H36.60 V15.25 H33.55 Z M33.55,24.40 V27.45 H36.60 V24.40 H33.55 Z M33.55,27.45 V30.50 H36.60 V27.45 H33.55 Z M33.55,30.50 V33.55 H36.60 V30.50 H33.55 Z M33.55,57.95 V61.00 H36.60 V57.95 H33.55 Z M33.55,64.05 V67.10 H36.60 V64.05 H33.55 Z M33.55,67.10 V70.15 H36.60 V67.10 H33.55 Z M33.55,76.25 V79.30 H36.60 V76.25 H33.55 Z M33.55,79.30 V82.35 H36.60 V79.30 H33.55 Z M33.55,85.40 V88.46 H36.60 V85.40 H33.55 Z M33.55,91.51 V94.56 H36.60 V91.51 H33.55 Z M33.55,103.71 V106.76 H36.60 V103.71 H33.55 Z M33.55,106.76 V109.81 H36.60 V106.76 H33.55 Z M33.55,109.81 V112.86 H36.60 V109.81 H33.55 Z M33.55,112.86 V115.91 H36.60 V112.86 H33.55 Z M33.55,118.96 V122.01 H36.60 V118.96 H33.55 Z M33.55,134.21 V137.26 H36.60 V134.21 H33.55 Z M33.55,137.26 V140.31 H36.60 V137.26 H33.55 Z M33.55,143.36 V146.41 H36.60 V143.36 H33.55 Z M33.55,152.51 V155.56 H36.60 V152.51 H33.55 Z M33.55,158.61 V161.66 H36.60 V158.61 H33.55 Z M33.55,167.76 V170.81 H36.60 V167.76 H33.55 Z M36.60,0 V3.05 H39.65 V0 H36.60 Z M36.60,6.10 V9.15 H39.65 V6.10 H36.60 Z M36.60,9.15 V12.20 H39.65 V9.15 H36.60 Z M36.60,12.20 V15.25 H39.65 V12.20 H36.60 Z M36.60,18.30 V21.35 H39.65 V18.30 H36.60 Z M36.60,21.35 V24.40 H39.65 V21.35 H36.60 Z M36.60,24.40 V27.45 H39.65 V24.40 H36.60 Z M36.60,30.50 V33.55 H39.65 V30.50 H36.60 Z M36.60,33.55 V36.60 H39.65 V33.55 H36.60 Z M36.60,36.60 V39.65 H39.65 V36.60 H36.60 Z M36.60,39.65 V42.70 H39.65 V39.65 H36.60 Z M36.60,54.90 V57.95 H39.65 V54.90 H36.60 Z M36.60,61.00 V64.05 H39.65 V61.00 H36.60 Z M36.60,64.05 V67.10 H39.65 V64.05 H36.60 Z M36.60,76.25 V79.30 H39.65 V76.25 H36.60 Z M36.60,79.30 V82.35 H39.65 V79.30 H36.60 Z M36.60,91.51 V94.56 H39.65 V91.51 H36.60 Z M36.60,100.66 V103.71 H39.65 V100.66 H36.60 Z M36.60,103.71 V106.76 H39.65 V103.71 H36.60 Z M36.60,109.81 V112.86 H39.65 V109.81 H36.60 Z M36.60,115.91 V118.96 H39.65 V115.91 H36.60 Z M36.60,128.11 V131.16 H39.65 V128.11 H36.60 Z M36.60,131.16 V134.21 H39.65 V131.16 H36.60 Z M36.60,134.21 V137.26 H39.65 V134.21 H36.60 Z M36.60,140.31 V143.36 H39.65 V140.31 H36.60 Z M36.60,146.41 V149.46 H39.65 V146.41 H36.60 Z M36.60,149.46 V152.51 H39.65 V149.46 H36.60 Z M36.60,152.51 V155.56 H39.65 V152.51 H36.60 Z M36.60,158.61 V161.66 H39.65 V158.61 H36.60 Z M36.60,161.66 V164.71 H39.65 V161.66 H36.60 Z M36.60,167.76 V170.81 H39.65 V167.76 H36.60 Z M36.60,170.81 V173.86 H39.65 V170.81 H36.60 Z M39.65,0 V3.05 H42.70 V0 H39.65 Z M39.65,12.20 V15.25 H42.70 V12.20 H39.65 Z M39.65,21.35 V24.40 H42.70 V21.35 H39.65 Z M39.65,24.40 V27.45 H42.70 V24.40 H39.65 Z M39.65,27.45 V30.50 H42.70 V27.45 H39.65 Z M39.65,36.60 V39.65 H42.70 V36.60 H39.65 Z M39.65,51.85 V54.90 H42.70 V51.85 H39.65 Z M39.65,54.90 V57.95 H42.70 V54.90 H39.65 Z M39.65,57.95 V61.00 H42.70 V57.95 H39.65 Z M39.65,64.05 V67.10 H42.70 V64.05 H39.65 Z M39.65,79.30 V82.35 H42.70 V79.30 H39.65 Z M39.65,82.35 V85.40 H42.70 V82.35 H39.65 Z M39.65,94.56 V97.61 H42.70 V94.56 H39.65 Z M39.65,100.66 V103.71 H42.70 V100.66 H39.65 Z M39.65,109.81 V112.86 H42.70 V109.81 H39.65 Z M39.65,122.01 V125.06 H42.70 V122.01 H39.65 Z M39.65,128.11 V131.16 H42.70 V128.11 H39.65 Z M39.65,134.21 V137.26 H42.70 V134.21 H39.65 Z M39.65,137.26 V140.31 H42.70 V137.26 H39.65 Z M39.65,146.41 V149.46 H42.70 V146.41 H39.65 Z M39.65,149.46 V152.51 H42.70 V149.46 H39.65 Z M39.65,155.56 V158.61 H42.70 V155.56 H39.65 Z M39.65,158.61 V161.66 H42.70 V158.61 H39.65 Z M39.65,167.76 V170.81 H42.70 V167.76 H39.65 Z M42.70,6.10 V9.15 H45.75 V6.10 H42.70 Z M42.70,18.30 V21.35 H45.75 V18.30 H42.70 Z M42.70,21.35 V24.40 H45.75 V21.35 H42.70 Z M42.70,36.60 V39.65 H45.75 V36.60 H42.70 Z M42.70,39.65 V42.70 H45.75 V39.65 H42.70 Z M42.70,45.75 V48.80 H45.75 V45.75 H42.70 Z M42.70,51.85 V54.90 H45.75 V51.85 H42.70 Z M42.70,57.95 V61.00 H45.75 V57.95 H42.70 Z M42.70,61.00 V64.05 H45.75 V61.00 H42.70 Z M42.70,70.15 V73.20 H45.75 V70.15 H42.70 Z M42.70,73.20 V76.25 H45.75 V73.20 H42.70 Z M42.70,76.25 V79.30 H45.75 V76.25 H42.70 Z M42.70,82.35 V85.40 H45.75 V82.35 H42.70 Z M42.70,85.40 V88.46 H45.75 V85.40 H42.70 Z M42.70,88.46 V91.51 H45.75 V88.46 H42.70 Z M42.70,91.51 V94.56 H45.75 V91.51 H42.70 Z M42.70,97.61 V100.66 H45.75 V97.61 H42.70 Z M42.70,106.76 V109.81 H45.75 V106.76 H42.70 Z M42.70,109.81 V112.86 H45.75 V109.81 H42.70 Z M42.70,112.86 V115.91 H45.75 V112.86 H42.70 Z M42.70,115.91 V118.96 H45.75 V115.91 H42.70 Z M42.70,118.96 V122.01 H45.75 V118.96 H42.70 Z M42.70,122.01 V125.06 H45.75 V122.01 H42.70 Z M42.70,125.06 V128.11 H45.75 V125.06 H42.70 Z M42.70,128.11 V131.16 H45.75 V128.11 H42.70 Z M42.70,134.21 V137.26 H45.75 V134.21 H42.70 Z M42.70,137.26 V140.31 H45.75 V137.26 H42.70 Z M42.70,143.36 V146.41 H45.75 V143.36 H42.70 Z M42.70,155.56 V158.61 H45.75 V155.56 H42.70 Z M42.70,161.66 V164.71 H45.75 V161.66 H42.70 Z M42.70,164.71 V167.76 H45.75 V164.71 H42.70 Z M45.75,3.05 V6.10 H48.80 V3.05 H45.75 Z M45.75,6.10 V9.15 H48.80 V6.10 H45.75 Z M45.75,15.25 V18.30 H48.80 V15.25 H45.75 Z M45.75,27.45 V30.50 H48.80 V27.45 H45.75 Z M45.75,33.55 V36.60 H48.80 V33.55 H45.75 Z M45.75,36.60 V39.65 H48.80 V36.60 H45.75 Z M45.75,45.75 V48.80 H48.80 V45.75 H45.75 Z M45.75,48.80 V51.85 H48.80 V48.80 H45.75 Z M45.75,61.00 V64.05 H48.80 V61.00 H45.75 Z M45.75,64.05 V67.10 H48.80 V64.05 H45.75 Z M45.75,67.10 V70.15 H48.80 V67.10 H45.75 Z M45.75,79.30 V82.35 H48.80 V79.30 H45.75 Z M45.75,88.46 V91.51 H48.80 V88.46 H45.75 Z M45.75,94.56 V97.61 H48.80 V94.56 H45.75 Z M45.75,100.66 V103.71 H48.80 V100.66 H45.75 Z M45.75,106.76 V109.81 H48.80 V106.76 H45.75 Z M45.75,112.86 V115.91 H48.80 V112.86 H45.75 Z M45.75,118.96 V122.01 H48.80 V118.96 H45.75 Z M45.75,122.01 V125.06 H48.80 V122.01 H45.75 Z M45.75,125.06 V128.11 H48.80 V125.06 H45.75 Z M45.75,128.11 V131.16 H48.80 V128.11 H45.75 Z M45.75,131.16 V134.21 H48.80 V131.16 H45.75 Z M45.75,134.21 V137.26 H48.80 V134.21 H45.75 Z M45.75,137.26 V140.31 H48.80 V137.26 H45.75 Z M45.75,140.31 V143.36 H48.80 V140.31 H45.75 Z M45.75,143.36 V146.41 H48.80 V143.36 H45.75 Z M45.75,146.41 V149.46 H48.80 V146.41 H45.75 Z M45.75,152.51 V155.56 H48.80 V152.51 H45.75 Z M45.75,155.56 V158.61 H48.80 V155.56 H45.75 Z M45.75,167.76 V170.81 H48.80 V167.76 H45.75 Z M48.80,6.10 V9.15 H51.85 V6.10 H48.80 Z M48.80,12.20 V15.25 H51.85 V12.20 H48.80 Z M48.80,18.30 V21.35 H51.85 V18.30 H48.80 Z M48.80,24.40 V27.45 H51.85 V24.40 H48.80 Z M48.80,30.50 V33.55 H51.85 V30.50 H48.80 Z M48.80,33.55 V36.60 H51.85 V33.55 H48.80 Z M48.80,36.60 V39.65 H51.85 V36.60 H48.80 Z M48.80,39.65 V42.70 H51.85 V39.65 H48.80 Z M48.80,48.80 V51.85 H51.85 V48.80 H48.80 Z M48.80,51.85 V54.90 H51.85 V51.85 H48.80 Z M48.80,54.90 V57.95 H51.85 V54.90 H48.80 Z M48.80,61.00 V64.05 H51.85 V61.00 H48.80 Z M48.80,70.15 V73.20 H51.85 V70.15 H48.80 Z M48.80,73.20 V76.25 H51.85 V73.20 H48.80 Z M48.80,79.30 V82.35 H51.85 V79.30 H48.80 Z M48.80,85.40 V88.46 H51.85 V85.40 H48.80 Z M48.80,91.51 V94.56 H51.85 V91.51 H48.80 Z M48.80,94.56 V97.61 H51.85 V94.56 H48.80 Z M48.80,97.61 V100.66 H51.85 V97.61 H48.80 Z M48.80,100.66 V103.71 H51.85 V100.66 H48.80 Z M48.80,115.91 V118.96 H51.85 V115.91 H48.80 Z M48.80,118.96 V122.01 H51.85 V118.96 H48.80 Z M48.80,122.01 V125.06 H51.85 V122.01 H48.80 Z M48.80,125.06 V128.11 H51.85 V125.06 H48.80 Z M48.80,131.16 V134.21 H51.85 V131.16 H48.80 Z M48.80,137.26 V140.31 H51.85 V137.26 H48.80 Z M48.80,140.31 V143.36 H51.85 V140.31 H48.80 Z M48.80,146.41 V149.46 H51.85 V146.41 H48.80 Z M48.80,149.46 V152.51 H51.85 V149.46 H48.80 Z M48.80,152.51 V155.56 H51.85 V152.51 H48.80 Z M48.80,158.61 V161.66 H51.85 V158.61 H48.80 Z M48.80,170.81 V173.86 H51.85 V170.81 H48.80 Z M51.85,0 V3.05 H54.90 V0 H51.85 Z M51.85,6.10 V9.15 H54.90 V6.10 H51.85 Z M51.85,12.20 V15.25 H54.90 V12.20 H51.85 Z M51.85,21.35 V24.40 H54.90 V21.35 H51.85 Z M51.85,24.40 V27.45 H54.90 V24.40 H51.85 Z M51.85,27.45 V30.50 H54.90 V27.45 H51.85 Z M51.85,30.50 V33.55 H54.90 V30.50 H51.85 Z M51.85,36.60 V39.65 H54.90 V36.60 H51.85 Z M51.85,42.70 V45.75 H54.90 V42.70 H51.85 Z M51.85,51.85 V54.90 H54.90 V51.85 H51.85 Z M51.85,54.90 V57.95 H54.90 V54.90 H51.85 Z M51.85,70.15 V73.20 H54.90 V70.15 H51.85 Z M51.85,73.20 V76.25 H54.90 V73.20 H51.85 Z M51.85,76.25 V79.30 H54.90 V76.25 H51.85 Z M51.85,79.30 V82.35 H54.90 V79.30 H51.85 Z M51.85,85.40 V88.46 H54.90 V85.40 H51.85 Z M51.85,88.46 V91.51 H54.90 V88.46 H51.85 Z M51.85,91.51 V94.56 H54.90 V91.51 H51.85 Z M51.85,100.66 V103.71 H54.90 V100.66 H51.85 Z M51.85,103.71 V106.76 H54.90 V103.71 H51.85 Z M51.85,112.86 V115.91 H54.90 V112.86 H51.85 Z M51.85,125.06 V128.11 H54.90 V125.06 H51.85 Z M51.85,134.21 V137.26 H54.90 V134.21 H51.85 Z M51.85,137.26 V140.31 H54.90 V137.26 H51.85 Z M51.85,146.41 V149.46 H54.90 V146.41 H51.85 Z M51.85,152.51 V155.56 H54.90 V152.51 H51.85 Z M51.85,155.56 V158.61 H54.90 V155.56 H51.85 Z M51.85,161.66 V164.71 H54.90 V161.66 H51.85 Z M51.85,164.71 V167.76 H54.90 V164.71 H51.85 Z M51.85,167.76 V170.81 H54.90 V167.76 H51.85 Z M51.85,170.81 V173.86 H54.90 V170.81 H51.85 Z M54.90,0 V3.05 H57.95 V0 H54.90 Z M54.90,12.20 V15.25 H57.95 V12.20 H54.90 Z M54.90,18.30 V21.35 H57.95 V18.30 H54.90 Z M54.90,21.35 V24.40 H57.95 V21.35 H54.90 Z M54.90,33.55 V36.60 H57.95 V33.55 H54.90 Z M54.90,36.60 V39.65 H57.95 V36.60 H54.90 Z M54.90,39.65 V42.70 H57.95 V39.65 H54.90 Z M54.90,42.70 V45.75 H57.95 V42.70 H54.90 Z M54.90,45.75 V48.80 H57.95 V45.75 H54.90 Z M54.90,48.80 V51.85 H57.95 V48.80 H54.90 Z M54.90,51.85 V54.90 H57.95 V51.85 H54.90 Z M54.90,57.95 V61.00 H57.95 V57.95 H54.90 Z M54.90,73.20 V76.25 H57.95 V73.20 H54.90 Z M54.90,76.25 V79.30 H57.95 V76.25 H54.90 Z M54.90,91.51 V94.56 H57.95 V91.51 H54.90 Z M54.90,97.61 V100.66 H57.95 V97.61 H54.90 Z M54.90,103.71 V106.76 H57.95 V103.71 H54.90 Z M54.90,109.81 V112.86 H57.95 V109.81 H54.90 Z M54.90,112.86 V115.91 H57.95 V112.86 H54.90 Z M54.90,118.96 V122.01 H57.95 V118.96 H54.90 Z M54.90,122.01 V125.06 H57.95 V122.01 H54.90 Z M54.90,125.06 V128.11 H57.95 V125.06 H54.90 Z M54.90,128.11 V131.16 H57.95 V128.11 H54.90 Z M54.90,131.16 V134.21 H57.95 V131.16 H54.90 Z M54.90,137.26 V140.31 H57.95 V137.26 H54.90 Z M54.90,152.51 V155.56 H57.95 V152.51 H54.90 Z M54.90,155.56 V158.61 H57.95 V155.56 H54.90 Z M54.90,158.61 V161.66 H57.95 V158.61 H54.90 Z M54.90,161.66 V164.71 H57.95 V161.66 H54.90 Z M54.90,167.76 V170.81 H57.95 V167.76 H54.90 Z M54.90,170.81 V173.86 H57.95 V170.81 H54.90 Z M57.95,0 V3.05 H61.00 V0 H57.95 Z M57.95,12.20 V15.25 H61.00 V12.20 H57.95 Z M57.95,21.35 V24.40 H61.00 V21.35 H57.95 Z M57.95,36.60 V39.65 H61.00 V36.60 H57.95 Z M57.95,39.65 V42.70 H61.00 V39.65 H57.95 Z M57.95,48.80 V51.85 H61.00 V48.80 H57.95 Z M57.95,57.95 V61.00 H61.00 V57.95 H57.95 Z M57.95,70.15 V73.20 H61.00 V70.15 H57.95 Z M57.95,73.20 V76.25 H61.00 V73.20 H57.95 Z M57.95,76.25 V79.30 H61.00 V76.25 H57.95 Z M57.95,82.35 V85.40 H61.00 V82.35 H57.95 Z M57.95,88.46 V91.51 H61.00 V88.46 H57.95 Z M57.95,91.51 V94.56 H61.00 V91.51 H57.95 Z M57.95,94.56 V97.61 H61.00 V94.56 H57.95 Z M57.95,103.71 V106.76 H61.00 V103.71 H57.95 Z M57.95,125.06 V128.11 H61.00 V125.06 H57.95 Z M57.95,128.11 V131.16 H61.00 V128.11 H57.95 Z M57.95,137.26 V140.31 H61.00 V137.26 H57.95 Z M57.95,140.31 V143.36 H61.00 V140.31 H57.95 Z M57.95,143.36 V146.41 H61.00 V143.36 H57.95 Z M57.95,146.41 V149.46 H61.00 V146.41 H57.95 Z M57.95,152.51 V155.56 H61.00 V152.51 H57.95 Z M57.95,158.61 V161.66 H61.00 V158.61 H57.95 Z M57.95,164.71 V167.76 H61.00 V164.71 H57.95 Z M61.00,0 V3.05 H64.05 V0 H61.00 Z M61.00,6.10 V9.15 H64.05 V6.10 H61.00 Z M61.00,9.15 V12.20 H64.05 V9.15 H61.00 Z M61.00,12.20 V15.25 H64.05 V12.20 H61.00 Z M61.00,15.25 V18.30 H64.05 V15.25 H61.00 Z M61.00,18.30 V21.35 H64.05 V18.30 H61.00 Z M61.00,27.45 V30.50 H64.05 V27.45 H61.00 Z M61.00,36.60 V39.65 H64.05 V36.60 H61.00 Z M61.00,42.70 V45.75 H64.05 V42.70 H61.00 Z M61.00,48.80 V51.85 H64.05 V48.80 H61.00 Z M61.00,54.90 V57.95 H64.05 V54.90 H61.00 Z M61.00,57.95 V61.00 H64.05 V57.95 H61.00 Z M61.00,67.10 V70.15 H64.05 V67.10 H61.00 Z M61.00,73.20 V76.25 H64.05 V73.20 H61.00 Z M61.00,76.25 V79.30 H64.05 V76.25 H61.00 Z M61.00,79.30 V82.35 H64.05 V79.30 H61.00 Z M61.00,82.35 V85.40 H64.05 V82.35 H61.00 Z M61.00,100.66 V103.71 H64.05 V100.66 H61.00 Z M61.00,103.71 V106.76 H64.05 V103.71 H61.00 Z M61.00,109.81 V112.86 H64.05 V109.81 H61.00 Z M61.00,115.91 V118.96 H64.05 V115.91 H61.00 Z M61.00,128.11 V131.16 H64.05 V128.11 H61.00 Z M61.00,131.16 V134.21 H64.05 V131.16 H61.00 Z M61.00,134.21 V137.26 H64.05 V134.21 H61.00 Z M61.00,137.26 V140.31 H64.05 V137.26 H61.00 Z M61.00,143.36 V146.41 H64.05 V143.36 H61.00 Z M61.00,149.46 V152.51 H64.05 V149.46 H61.00 Z M61.00,152.51 V155.56 H64.05 V152.51 H61.00 Z M61.00,167.76 V170.81 H64.05 V167.76 H61.00 Z M64.05,0 V3.05 H67.10 V0 H64.05 Z M64.05,3.05 V6.10 H67.10 V3.05 H64.05 Z M64.05,6.10 V9.15 H67.10 V6.10 H64.05 Z M64.05,21.35 V24.40 H67.10 V21.35 H64.05 Z M64.05,24.40 V27.45 H67.10 V24.40 H64.05 Z M64.05,27.45 V30.50 H67.10 V27.45 H64.05 Z M64.05,48.80 V51.85 H67.10 V48.80 H64.05 Z M64.05,51.85 V54.90 H67.10 V51.85 H64.05 Z M64.05,54.90 V57.95 H67.10 V54.90 H64.05 Z M64.05,79.30 V82.35 H67.10 V79.30 H64.05 Z M64.05,85.40 V88.46 H67.10 V85.40 H64.05 Z M64.05,88.46 V91.51 H67.10 V88.46 H64.05 Z M64.05,94.56 V97.61 H67.10 V94.56 H64.05 Z M64.05,97.61 V100.66 H67.10 V97.61 H64.05 Z M64.05,109.81 V112.86 H67.10 V109.81 H64.05 Z M64.05,125.06 V128.11 H67.10 V125.06 H64.05 Z M64.05,134.21 V137.26 H67.10 V134.21 H64.05 Z M64.05,137.26 V140.31 H67.10 V137.26 H64.05 Z M64.05,143.36 V146.41 H67.10 V143.36 H64.05 Z M64.05,152.51 V155.56 H67.10 V152.51 H64.05 Z M64.05,161.66 V164.71 H67.10 V161.66 H64.05 Z M64.05,164.71 V167.76 H67.10 V164.71 H64.05 Z M67.10,15.25 V18.30 H70.15 V15.25 H67.10 Z M67.10,18.30 V21.35 H70.15 V18.30 H67.10 Z M67.10,21.35 V24.40 H70.15 V21.35 H67.10 Z M67.10,30.50 V33.55 H70.15 V30.50 H67.10 Z M67.10,36.60 V39.65 H70.15 V36.60 H67.10 Z M67.10,42.70 V45.75 H70.15 V42.70 H67.10 Z M67.10,45.75 V48.80 H70.15 V45.75 H67.10 Z M67.10,51.85 V54.90 H70.15 V51.85 H67.10 Z M67.10,57.95 V61.00 H70.15 V57.95 H67.10 Z M67.10,61.00 V64.05 H70.15 V61.00 H67.10 Z M67.10,64.05 V67.10 H70.15 V64.05 H67.10 Z M67.10,91.51 V94.56 H70.15 V91.51 H67.10 Z M67.10,97.61 V100.66 H70.15 V97.61 H67.10 Z M67.10,100.66 V103.71 H70.15 V100.66 H67.10 Z M67.10,109.81 V112.86 H70.15 V109.81 H67.10 Z M67.10,112.86 V115.91 H70.15 V112.86 H67.10 Z M67.10,115.91 V118.96 H70.15 V115.91 H67.10 Z M67.10,118.96 V122.01 H70.15 V118.96 H67.10 Z M67.10,128.11 V131.16 H70.15 V128.11 H67.10 Z M67.10,137.26 V140.31 H70.15 V137.26 H67.10 Z M67.10,143.36 V146.41 H70.15 V143.36 H67.10 Z M67.10,146.41 V149.46 H70.15 V146.41 H67.10 Z M67.10,152.51 V155.56 H70.15 V152.51 H67.10 Z M67.10,155.56 V158.61 H70.15 V155.56 H67.10 Z M67.10,158.61 V161.66 H70.15 V158.61 H67.10 Z M67.10,161.66 V164.71 H70.15 V161.66 H67.10 Z M67.10,164.71 V167.76 H70.15 V164.71 H67.10 Z M70.15,0 V3.05 H73.20 V0 H70.15 Z M70.15,6.10 V9.15 H73.20 V6.10 H70.15 Z M70.15,9.15 V12.20 H73.20 V9.15 H70.15 Z M70.15,15.25 V18.30 H73.20 V15.25 H70.15 Z M70.15,21.35 V24.40 H73.20 V21.35 H70.15 Z M70.15,24.40 V27.45 H73.20 V24.40 H70.15 Z M70.15,30.50 V33.55 H73.20 V30.50 H70.15 Z M70.15,36.60 V39.65 H73.20 V36.60 H70.15 Z M70.15,39.65 V42.70 H73.20 V39.65 H70.15 Z M70.15,42.70 V45.75 H73.20 V42.70 H70.15 Z M70.15,45.75 V48.80 H73.20 V45.75 H70.15 Z M70.15,57.95 V61.00 H73.20 V57.95 H70.15 Z M70.15,76.25 V79.30 H73.20 V76.25 H70.15 Z M70.15,82.35 V85.40 H73.20 V82.35 H70.15 Z M70.15,112.86 V115.91 H73.20 V112.86 H70.15 Z M70.15,122.01 V125.06 H73.20 V122.01 H70.15 Z M70.15,128.11 V131.16 H73.20 V128.11 H70.15 Z M70.15,137.26 V140.31 H73.20 V137.26 H70.15 Z M70.15,143.36 V146.41 H73.20 V143.36 H70.15 Z M70.15,146.41 V149.46 H73.20 V146.41 H70.15 Z M70.15,158.61 V161.66 H73.20 V158.61 H70.15 Z M70.15,161.66 V164.71 H73.20 V161.66 H70.15 Z M70.15,164.71 V167.76 H73.20 V164.71 H70.15 Z M70.15,167.76 V170.81 H73.20 V167.76 H70.15 Z M73.20,0 V3.05 H76.25 V0 H73.20 Z M73.20,6.10 V9.15 H76.25 V6.10 H73.20 Z M73.20,12.20 V15.25 H76.25 V12.20 H73.20 Z M73.20,15.25 V18.30 H76.25 V15.25 H73.20 Z M73.20,18.30 V21.35 H76.25 V18.30 H73.20 Z M73.20,21.35 V24.40 H76.25 V21.35 H73.20 Z M73.20,30.50 V33.55 H76.25 V30.50 H73.20 Z M73.20,36.60 V39.65 H76.25 V36.60 H73.20 Z M73.20,42.70 V45.75 H76.25 V42.70 H73.20 Z M73.20,48.80 V51.85 H76.25 V48.80 H73.20 Z M73.20,54.90 V57.95 H76.25 V54.90 H73.20 Z M73.20,67.10 V70.15 H76.25 V67.10 H73.20 Z M73.20,73.20 V76.25 H76.25 V73.20 H73.20 Z M73.20,82.35 V85.40 H76.25 V82.35 H73.20 Z M73.20,91.51 V94.56 H76.25 V91.51 H73.20 Z M73.20,97.61 V100.66 H76.25 V97.61 H73.20 Z M73.20,100.66 V103.71 H76.25 V100.66 H73.20 Z M73.20,106.76 V109.81 H76.25 V106.76 H73.20 Z M73.20,118.96 V122.01 H76.25 V118.96 H73.20 Z M73.20,128.11 V131.16 H76.25 V128.11 H73.20 Z M73.20,134.21 V137.26 H76.25 V134.21 H73.20 Z M73.20,143.36 V146.41 H76.25 V143.36 H73.20 Z M73.20,152.51 V155.56 H76.25 V152.51 H73.20 Z M73.20,155.56 V158.61 H76.25 V155.56 H73.20 Z M73.20,158.61 V161.66 H76.25 V158.61 H73.20 Z M73.20,164.71 V167.76 H76.25 V164.71 H73.20 Z M76.25,0 V3.05 H79.30 V0 H76.25 Z M76.25,3.05 V6.10 H79.30 V3.05 H76.25 Z M76.25,6.10 V9.15 H79.30 V6.10 H76.25 Z M76.25,9.15 V12.20 H79.30 V9.15 H76.25 Z M76.25,15.25 V18.30 H79.30 V15.25 H76.25 Z M76.25,21.35 V24.40 H79.30 V21.35 H76.25 Z M76.25,27.45 V30.50 H79.30 V27.45 H76.25 Z M76.25,36.60 V39.65 H79.30 V36.60 H76.25 Z M76.25,39.65 V42.70 H79.30 V39.65 H76.25 Z M76.25,42.70 V45.75 H79.30 V42.70 H76.25 Z M76.25,45.75 V48.80 H79.30 V45.75 H76.25 Z M76.25,48.80 V51.85 H79.30 V48.80 H76.25 Z M76.25,54.90 V57.95 H79.30 V54.90 H76.25 Z M76.25,64.05 V67.10 H79.30 V64.05 H76.25 Z M76.25,67.10 V70.15 H79.30 V67.10 H76.25 Z M76.25,76.25 V79.30 H79.30 V76.25 H76.25 Z M76.25,79.30 V82.35 H79.30 V79.30 H76.25 Z M76.25,82.35 V85.40 H79.30 V82.35 H76.25 Z M76.25,94.56 V97.61 H79.30 V94.56 H76.25 Z M76.25,97.61 V100.66 H79.30 V97.61 H76.25 Z M76.25,100.66 V103.71 H79.30 V100.66 H76.25 Z M76.25,103.71 V106.76 H79.30 V103.71 H76.25 Z M76.25,109.81 V112.86 H79.30 V109.81 H76.25 Z M76.25,118.96 V122.01 H79.30 V118.96 H76.25 Z M76.25,125.06 V128.11 H79.30 V125.06 H76.25 Z M76.25,128.11 V131.16 H79.30 V128.11 H76.25 Z M76.25,137.26 V140.31 H79.30 V137.26 H76.25 Z M76.25,143.36 V146.41 H79.30 V143.36 H76.25 Z M76.25,149.46 V152.51 H79.30 V149.46 H76.25 Z M76.25,155.56 V158.61 H79.30 V155.56 H76.25 Z M76.25,158.61 V161.66 H79.30 V158.61 H76.25 Z M76.25,161.66 V164.71 H79.30 V161.66 H76.25 Z M76.25,164.71 V167.76 H79.30 V164.71 H76.25 Z M76.25,170.81 V173.86 H79.30 V170.81 H76.25 Z M79.30,0 V3.05 H82.35 V0 H79.30 Z M79.30,9.15 V12.20 H82.35 V9.15 H79.30 Z M79.30,12.20 V15.25 H82.35 V12.20 H79.30 Z M79.30,15.25 V18.30 H82.35 V15.25 H79.30 Z M79.30,18.30 V21.35 H82.35 V18.30 H79.30 Z M79.30,21.35 V24.40 H82.35 V21.35 H79.30 Z M79.30,24.40 V27.45 H82.35 V24.40 H79.30 Z M79.30,30.50 V33.55 H82.35 V30.50 H79.30 Z M79.30,42.70 V45.75 H82.35 V42.70 H79.30 Z M79.30,48.80 V51.85 H82.35 V48.80 H79.30 Z M79.30,73.20 V76.25 H82.35 V73.20 H79.30 Z M79.30,76.25 V79.30 H82.35 V76.25 H79.30 Z M79.30,79.30 V82.35 H82.35 V79.30 H79.30 Z M79.30,82.35 V85.40 H82.35 V82.35 H79.30 Z M79.30,85.40 V88.46 H82.35 V85.40 H79.30 Z M79.30,88.46 V91.51 H82.35 V88.46 H79.30 Z M79.30,91.51 V94.56 H82.35 V91.51 H79.30 Z M79.30,94.56 V97.61 H82.35 V94.56 H79.30 Z M79.30,122.01 V125.06 H82.35 V122.01 H79.30 Z M79.30,125.06 V128.11 H82.35 V125.06 H79.30 Z M79.30,134.21 V137.26 H82.35 V134.21 H79.30 Z M79.30,140.31 V143.36 H82.35 V140.31 H79.30 Z M79.30,146.41 V149.46 H82.35 V146.41 H79.30 Z M79.30,149.46 V152.51 H82.35 V149.46 H79.30 Z M79.30,152.51 V155.56 H82.35 V152.51 H79.30 Z M79.30,155.56 V158.61 H82.35 V155.56 H79.30 Z M79.30,158.61 V161.66 H82.35 V158.61 H79.30 Z M79.30,161.66 V164.71 H82.35 V161.66 H79.30 Z M79.30,167.76 V170.81 H82.35 V167.76 H79.30 Z M79.30,170.81 V173.86 H82.35 V170.81 H79.30 Z M82.35,3.05 V6.10 H85.40 V3.05 H82.35 Z M82.35,6.10 V9.15 H85.40 V6.10 H82.35 Z M82.35,12.20 V15.25 H85.40 V12.20 H82.35 Z M82.35,24.40 V27.45 H85.40 V24.40 H82.35 Z M82.35,27.45 V30.50 H85.40 V27.45 H82.35 Z M82.35,33.55 V36.60 H85.40 V33.55 H82.35 Z M82.35,36.60 V39.65 H85.40 V36.60 H82.35 Z M82.35,39.65 V42.70 H85.40 V39.65 H82.35 Z M82.35,42.70 V45.75 H85.40 V42.70 H82.35 Z M82.35,45.75 V48.80 H85.40 V45.75 H82.35 Z M82.35,57.95 V61.00 H85.40 V57.95 H82.35 Z M82.35,61.00 V64.05 H85.40 V61.00 H82.35 Z M82.35,70.15 V73.20 H85.40 V70.15 H82.35 Z M82.35,76.25 V79.30 H85.40 V76.25 H82.35 Z M82.35,79.30 V82.35 H85.40 V79.30 H82.35 Z M82.35,91.51 V94.56 H85.40 V91.51 H82.35 Z M82.35,100.66 V103.71 H85.40 V100.66 H82.35 Z M82.35,103.71 V106.76 H85.40 V103.71 H82.35 Z M82.35,106.76 V109.81 H85.40 V106.76 H82.35 Z M82.35,109.81 V112.86 H85.40 V109.81 H82.35 Z M82.35,112.86 V115.91 H85.40 V112.86 H82.35 Z M82.35,115.91 V118.96 H85.40 V115.91 H82.35 Z M82.35,118.96 V122.01 H85.40 V118.96 H82.35 Z M82.35,122.01 V125.06 H85.40 V122.01 H82.35 Z M82.35,128.11 V131.16 H85.40 V128.11 H82.35 Z M82.35,131.16 V134.21 H85.40 V131.16 H82.35 Z M82.35,146.41 V149.46 H85.40 V146.41 H82.35 Z M82.35,158.61 V161.66 H85.40 V158.61 H82.35 Z M82.35,161.66 V164.71 H85.40 V161.66 H82.35 Z M82.35,164.71 V167.76 H85.40 V164.71 H82.35 Z M82.35,170.81 V173.86 H85.40 V170.81 H82.35 Z M85.40,3.05 V6.10 H88.46 V3.05 H85.40 Z M85.40,6.10 V9.15 H88.46 V6.10 H85.40 Z M85.40,12.20 V15.25 H88.46 V12.20 H85.40 Z M85.40,18.30 V21.35 H88.46 V18.30 H85.40 Z M85.40,24.40 V27.45 H88.46 V24.40 H85.40 Z M85.40,27.45 V30.50 H88.46 V27.45 H85.40 Z M85.40,39.65 V42.70 H88.46 V39.65 H85.40 Z M85.40,45.75 V48.80 H88.46 V45.75 H85.40 Z M85.40,48.80 V51.85 H88.46 V48.80 H85.40 Z M85.40,51.85 V54.90 H88.46 V51.85 H85.40 Z M85.40,54.90 V57.95 H88.46 V54.90 H85.40 Z M85.40,57.95 V61.00 H88.46 V57.95 H85.40 Z M85.40,61.00 V64.05 H88.46 V61.00 H85.40 Z M85.40,73.20 V76.25 H88.46 V73.20 H85.40 Z M85.40,76.25 V79.30 H88.46 V76.25 H85.40 Z M85.40,79.30 V82.35 H88.46 V79.30 H85.40 Z M85.40,85.40 V88.46 H88.46 V85.40 H85.40 Z M85.40,91.51 V94.56 H88.46 V91.51 H85.40 Z M85.40,94.56 V97.61 H88.46 V94.56 H85.40 Z M85.40,97.61 V100.66 H88.46 V97.61 H85.40 Z M85.40,109.81 V112.86 H88.46 V109.81 H85.40 Z M85.40,115.91 V118.96 H88.46 V115.91 H85.40 Z M85.40,140.31 V143.36 H88.46 V140.31 H85.40 Z M85.40,143.36 V146.41 H88.46 V143.36 H85.40 Z M85.40,146.41 V149.46 H88.46 V146.41 H85.40 Z M85.40,152.51 V155.56 H88.46 V152.51 H85.40 Z M85.40,158.61 V161.66 H88.46 V158.61 H85.40 Z M85.40,161.66 V164.71 H88.46 V161.66 H85.40 Z M85.40,164.71 V167.76 H88.46 V164.71 H85.40 Z M85.40,170.81 V173.86 H88.46 V170.81 H85.40 Z M88.46,6.10 V9.15 H91.51 V6.10 H88.46 Z M88.46,9.15 V12.20 H91.51 V9.15 H88.46 Z M88.46,12.20 V15.25 H91.51 V12.20 H88.46 Z M88.46,24.40 V27.45 H91.51 V24.40 H88.46 Z M88.46,45.75 V48.80 H91.51 V45.75 H88.46 Z M88.46,54.90 V57.95 H91.51 V54.90 H88.46 Z M88.46,57.95 V61.00 H91.51 V57.95 H88.46 Z M88.46,61.00 V64.05 H91.51 V61.00 H88.46 Z M88.46,64.05 V67.10 H91.51 V64.05 H88.46 Z M88.46,67.10 V70.15 H91.51 V67.10 H88.46 Z M88.46,70.15 V73.20 H91.51 V70.15 H88.46 Z M88.46,76.25 V79.30 H91.51 V76.25 H88.46 Z M88.46,79.30 V82.35 H91.51 V79.30 H88.46 Z M88.46,91.51 V94.56 H91.51 V91.51 H88.46 Z M88.46,94.56 V97.61 H91.51 V94.56 H88.46 Z M88.46,97.61 V100.66 H91.51 V97.61 H88.46 Z M88.46,103.71 V106.76 H91.51 V103.71 H88.46 Z M88.46,106.76 V109.81 H91.51 V106.76 H88.46 Z M88.46,112.86 V115.91 H91.51 V112.86 H88.46 Z M88.46,115.91 V118.96 H91.51 V115.91 H88.46 Z M88.46,118.96 V122.01 H91.51 V118.96 H88.46 Z M88.46,122.01 V125.06 H91.51 V122.01 H88.46 Z M88.46,128.11 V131.16 H91.51 V128.11 H88.46 Z M88.46,134.21 V137.26 H91.51 V134.21 H88.46 Z M88.46,137.26 V140.31 H91.51 V137.26 H88.46 Z M88.46,140.31 V143.36 H91.51 V140.31 H88.46 Z M88.46,143.36 V146.41 H91.51 V143.36 H88.46 Z M88.46,146.41 V149.46 H91.51 V146.41 H88.46 Z M88.46,158.61 V161.66 H91.51 V158.61 H88.46 Z M88.46,161.66 V164.71 H91.51 V161.66 H88.46 Z M88.46,170.81 V173.86 H91.51 V170.81 H88.46 Z M91.51,0 V3.05 H94.56 V0 H91.51 Z M91.51,3.05 V6.10 H94.56 V3.05 H91.51 Z M91.51,9.15 V12.20 H94.56 V9.15 H91.51 Z M91.51,12.20 V15.25 H94.56 V12.20 H91.51 Z M91.51,15.25 V18.30 H94.56 V15.25 H91.51 Z M91.51,18.30 V21.35 H94.56 V18.30 H91.51 Z M91.51,21.35 V24.40 H94.56 V21.35 H91.51 Z M91.51,24.40 V27.45 H94.56 V24.40 H91.51 Z M91.51,36.60 V39.65 H94.56 V36.60 H91.51 Z M91.51,61.00 V64.05 H94.56 V61.00 H91.51 Z M91.51,67.10 V70.15 H94.56 V67.10 H91.51 Z M91.51,73.20 V76.25 H94.56 V73.20 H91.51 Z M91.51,79.30 V82.35 H94.56 V79.30 H91.51 Z M91.51,82.35 V85.40 H94.56 V82.35 H91.51 Z M91.51,85.40 V88.46 H94.56 V85.40 H91.51 Z M91.51,88.46 V91.51 H94.56 V88.46 H91.51 Z M91.51,91.51 V94.56 H94.56 V91.51 H91.51 Z M91.51,97.61 V100.66 H94.56 V97.61 H91.51 Z M91.51,100.66 V103.71 H94.56 V100.66 H91.51 Z M91.51,103.71 V106.76 H94.56 V103.71 H91.51 Z M91.51,106.76 V109.81 H94.56 V106.76 H91.51 Z M91.51,115.91 V118.96 H94.56 V115.91 H91.51 Z M91.51,118.96 V122.01 H94.56 V118.96 H91.51 Z M91.51,122.01 V125.06 H94.56 V122.01 H91.51 Z M91.51,128.11 V131.16 H94.56 V128.11 H91.51 Z M91.51,131.16 V134.21 H94.56 V131.16 H91.51 Z M91.51,137.26 V140.31 H94.56 V137.26 H91.51 Z M91.51,146.41 V149.46 H94.56 V146.41 H91.51 Z M91.51,149.46 V152.51 H94.56 V149.46 H91.51 Z M91.51,152.51 V155.56 H94.56 V152.51 H91.51 Z M91.51,155.56 V158.61 H94.56 V155.56 H91.51 Z M91.51,158.61 V161.66 H94.56 V158.61 H91.51 Z M91.51,161.66 V164.71 H94.56 V161.66 H91.51 Z M91.51,170.81 V173.86 H94.56 V170.81 H91.51 Z M94.56,3.05 V6.10 H97.61 V3.05 H94.56 Z M94.56,24.40 V27.45 H97.61 V24.40 H94.56 Z M94.56,30.50 V33.55 H97.61 V30.50 H94.56 Z M94.56,36.60 V39.65 H97.61 V36.60 H94.56 Z M94.56,42.70 V45.75 H97.61 V42.70 H94.56 Z M94.56,45.75 V48.80 H97.61 V45.75 H94.56 Z M94.56,48.80 V51.85 H97.61 V48.80 H94.56 Z M94.56,64.05 V67.10 H97.61 V64.05 H94.56 Z M94.56,82.35 V85.40 H97.61 V82.35 H94.56 Z M94.56,85.40 V88.46 H97.61 V85.40 H94.56 Z M94.56,88.46 V91.51 H97.61 V88.46 H94.56 Z M94.56,94.56 V97.61 H97.61 V94.56 H94.56 Z M94.56,97.61 V100.66 H97.61 V97.61 H94.56 Z M94.56,100.66 V103.71 H97.61 V100.66 H94.56 Z M94.56,106.76 V109.81 H97.61 V106.76 H94.56 Z M94.56,109.81 V112.86 H97.61 V109.81 H94.56 Z M94.56,115.91 V118.96 H97.61 V115.91 H94.56 Z M94.56,131.16 V134.21 H97.61 V131.16 H94.56 Z M94.56,134.21 V137.26 H97.61 V134.21 H94.56 Z M94.56,137.26 V140.31 H97.61 V137.26 H94.56 Z M94.56,140.31 V143.36 H97.61 V140.31 H94.56 Z M94.56,143.36 V146.41 H97.61 V143.36 H94.56 Z M94.56,149.46 V152.51 H97.61 V149.46 H94.56 Z M94.56,158.61 V161.66 H97.61 V158.61 H94.56 Z M94.56,161.66 V164.71 H97.61 V161.66 H94.56 Z M94.56,170.81 V173.86 H97.61 V170.81 H94.56 Z M97.61,0 V3.05 H100.66 V0 H97.61 Z M97.61,6.10 V9.15 H100.66 V6.10 H97.61 Z M97.61,9.15 V12.20 H100.66 V9.15 H97.61 Z M97.61,15.25 V18.30 H100.66 V15.25 H97.61 Z M97.61,18.30 V21.35 H100.66 V18.30 H97.61 Z M97.61,21.35 V24.40 H100.66 V21.35 H97.61 Z M97.61,24.40 V27.45 H100.66 V24.40 H97.61 Z M97.61,27.45 V30.50 H100.66 V27.45 H97.61 Z M97.61,30.50 V33.55 H100.66 V30.50 H97.61 Z M97.61,33.55 V36.60 H100.66 V33.55 H97.61 Z M97.61,36.60 V39.65 H100.66 V36.60 H97.61 Z M97.61,39.65 V42.70 H100.66 V39.65 H97.61 Z M97.61,45.75 V48.80 H100.66 V45.75 H97.61 Z M97.61,48.80 V51.85 H100.66 V48.80 H97.61 Z M97.61,54.90 V57.95 H100.66 V54.90 H97.61 Z M97.61,57.95 V61.00 H100.66 V57.95 H97.61 Z M97.61,61.00 V64.05 H100.66 V61.00 H97.61 Z M97.61,67.10 V70.15 H100.66 V67.10 H97.61 Z M97.61,73.20 V76.25 H100.66 V73.20 H97.61 Z M97.61,79.30 V82.35 H100.66 V79.30 H97.61 Z M97.61,85.40 V88.46 H100.66 V85.40 H97.61 Z M97.61,88.46 V91.51 H100.66 V88.46 H97.61 Z M97.61,94.56 V97.61 H100.66 V94.56 H97.61 Z M97.61,97.61 V100.66 H100.66 V97.61 H97.61 Z M97.61,100.66 V103.71 H100.66 V100.66 H97.61 Z M97.61,103.71 V106.76 H100.66 V103.71 H97.61 Z M97.61,106.76 V109.81 H100.66 V106.76 H97.61 Z M97.61,109.81 V112.86 H100.66 V109.81 H97.61 Z M97.61,112.86 V115.91 H100.66 V112.86 H97.61 Z M97.61,115.91 V118.96 H100.66 V115.91 H97.61 Z M97.61,118.96 V122.01 H100.66 V118.96 H97.61 Z M97.61,122.01 V125.06 H100.66 V122.01 H97.61 Z M97.61,128.11 V131.16 H100.66 V128.11 H97.61 Z M97.61,137.26 V140.31 H100.66 V137.26 H97.61 Z M97.61,146.41 V149.46 H100.66 V146.41 H97.61 Z M97.61,149.46 V152.51 H100.66 V149.46 H97.61 Z M97.61,158.61 V161.66 H100.66 V158.61 H97.61 Z M97.61,164.71 V167.76 H100.66 V164.71 H97.61 Z M97.61,170.81 V173.86 H100.66 V170.81 H97.61 Z M100.66,0 V3.05 H103.71 V0 H100.66 Z M100.66,3.05 V6.10 H103.71 V3.05 H100.66 Z M100.66,6.10 V9.15 H103.71 V6.10 H100.66 Z M100.66,9.15 V12.20 H103.71 V9.15 H100.66 Z M100.66,12.20 V15.25 H103.71 V12.20 H100.66 Z M100.66,15.25 V18.30 H103.71 V15.25 H100.66 Z M100.66,21.35 V24.40 H103.71 V21.35 H100.66 Z M100.66,24.40 V27.45 H103.71 V24.40 H100.66 Z M100.66,27.45 V30.50 H103.71 V27.45 H100.66 Z M100.66,30.50 V33.55 H103.71 V30.50 H100.66 Z M100.66,39.65 V42.70 H103.71 V39.65 H100.66 Z M100.66,42.70 V45.75 H103.71 V42.70 H100.66 Z M100.66,48.80 V51.85 H103.71 V48.80 H100.66 Z M100.66,51.85 V54.90 H103.71 V51.85 H100.66 Z M100.66,54.90 V57.95 H103.71 V54.90 H100.66 Z M100.66,61.00 V64.05 H103.71 V61.00 H100.66 Z M100.66,67.10 V70.15 H103.71 V67.10 H100.66 Z M100.66,73.20 V76.25 H103.71 V73.20 H100.66 Z M100.66,94.56 V97.61 H103.71 V94.56 H100.66 Z M100.66,97.61 V100.66 H103.71 V97.61 H100.66 Z M100.66,100.66 V103.71 H103.71 V100.66 H100.66 Z M100.66,103.71 V106.76 H103.71 V103.71 H100.66 Z M100.66,109.81 V112.86 H103.71 V109.81 H100.66 Z M100.66,112.86 V115.91 H103.71 V112.86 H100.66 Z M100.66,125.06 V128.11 H103.71 V125.06 H100.66 Z M100.66,137.26 V140.31 H103.71 V137.26 H100.66 Z M100.66,143.36 V146.41 H103.71 V143.36 H100.66 Z M100.66,146.41 V149.46 H103.71 V146.41 H100.66 Z M100.66,149.46 V152.51 H103.71 V149.46 H100.66 Z M100.66,152.51 V155.56 H103.71 V152.51 H100.66 Z M100.66,155.56 V158.61 H103.71 V155.56 H100.66 Z M100.66,158.61 V161.66 H103.71 V158.61 H100.66 Z M100.66,161.66 V164.71 H103.71 V161.66 H100.66 Z M100.66,164.71 V167.76 H103.71 V164.71 H100.66 Z M100.66,167.76 V170.81 H103.71 V167.76 H100.66 Z M103.71,0 V3.05 H106.76 V0 H103.71 Z M103.71,3.05 V6.10 H106.76 V3.05 H103.71 Z M103.71,9.15 V12.20 H106.76 V9.15 H103.71 Z M103.71,12.20 V15.25 H106.76 V12.20 H103.71 Z M103.71,18.30 V21.35 H106.76 V18.30 H103.71 Z M103.71,24.40 V27.45 H106.76 V24.40 H103.71 Z M103.71,30.50 V33.55 H106.76 V30.50 H103.71 Z M103.71,48.80 V51.85 H106.76 V48.80 H103.71 Z M103.71,61.00 V64.05 H106.76 V61.00 H103.71 Z M103.71,70.15 V73.20 H106.76 V70.15 H103.71 Z M103.71,79.30 V82.35 H106.76 V79.30 H103.71 Z M103.71,82.35 V85.40 H106.76 V82.35 H103.71 Z M103.71,88.46 V91.51 H106.76 V88.46 H103.71 Z M103.71,91.51 V94.56 H106.76 V91.51 H103.71 Z M103.71,109.81 V112.86 H106.76 V109.81 H103.71 Z M103.71,115.91 V118.96 H106.76 V115.91 H103.71 Z M103.71,122.01 V125.06 H106.76 V122.01 H103.71 Z M103.71,131.16 V134.21 H106.76 V131.16 H103.71 Z M103.71,140.31 V143.36 H106.76 V140.31 H103.71 Z M103.71,146.41 V149.46 H106.76 V146.41 H103.71 Z M103.71,152.51 V155.56 H106.76 V152.51 H103.71 Z M103.71,167.76 V170.81 H106.76 V167.76 H103.71 Z M106.76,6.10 V9.15 H109.81 V6.10 H106.76 Z M106.76,9.15 V12.20 H109.81 V9.15 H106.76 Z M106.76,15.25 V18.30 H109.81 V15.25 H106.76 Z M106.76,27.45 V30.50 H109.81 V27.45 H106.76 Z M106.76,33.55 V36.60 H109.81 V33.55 H106.76 Z M106.76,36.60 V39.65 H109.81 V36.60 H106.76 Z M106.76,39.65 V42.70 H109.81 V39.65 H106.76 Z M106.76,42.70 V45.75 H109.81 V42.70 H106.76 Z M106.76,45.75 V48.80 H109.81 V45.75 H106.76 Z M106.76,48.80 V51.85 H109.81 V48.80 H106.76 Z M106.76,51.85 V54.90 H109.81 V51.85 H106.76 Z M106.76,57.95 V61.00 H109.81 V57.95 H106.76 Z M106.76,61.00 V64.05 H109.81 V61.00 H106.76 Z M106.76,64.05 V67.10 H109.81 V64.05 H106.76 Z M106.76,67.10 V70.15 H109.81 V67.10 H106.76 Z M106.76,76.25 V79.30 H109.81 V76.25 H106.76 Z M106.76,106.76 V109.81 H109.81 V106.76 H106.76 Z M106.76,112.86 V115.91 H109.81 V112.86 H106.76 Z M106.76,118.96 V122.01 H109.81 V118.96 H106.76 Z M106.76,122.01 V125.06 H109.81 V122.01 H106.76 Z M106.76,128.11 V131.16 H109.81 V128.11 H106.76 Z M106.76,137.26 V140.31 H109.81 V137.26 H106.76 Z M106.76,149.46 V152.51 H109.81 V149.46 H106.76 Z M106.76,152.51 V155.56 H109.81 V152.51 H106.76 Z M106.76,155.56 V158.61 H109.81 V155.56 H106.76 Z M106.76,158.61 V161.66 H109.81 V158.61 H106.76 Z M106.76,161.66 V164.71 H109.81 V161.66 H106.76 Z M106.76,164.71 V167.76 H109.81 V164.71 H106.76 Z M106.76,167.76 V170.81 H109.81 V167.76 H106.76 Z M106.76,170.81 V173.86 H109.81 V170.81 H106.76 Z M109.81,0 V3.05 H112.86 V0 H109.81 Z M109.81,3.05 V6.10 H112.86 V3.05 H109.81 Z M109.81,12.20 V15.25 H112.86 V12.20 H109.81 Z M109.81,15.25 V18.30 H112.86 V15.25 H109.81 Z M109.81,18.30 V21.35 H112.86 V18.30 H109.81 Z M109.81,21.35 V24.40 H112.86 V21.35 H109.81 Z M109.81,24.40 V27.45 H112.86 V24.40 H109.81 Z M109.81,30.50 V33.55 H112.86 V30.50 H109.81 Z M109.81,39.65 V42.70 H112.86 V39.65 H109.81 Z M109.81,48.80 V51.85 H112.86 V48.80 H109.81 Z M109.81,51.85 V54.90 H112.86 V51.85 H109.81 Z M109.81,57.95 V61.00 H112.86 V57.95 H109.81 Z M109.81,61.00 V64.05 H112.86 V61.00 H109.81 Z M109.81,70.15 V73.20 H112.86 V70.15 H109.81 Z M109.81,73.20 V76.25 H112.86 V73.20 H109.81 Z M109.81,82.35 V85.40 H112.86 V82.35 H109.81 Z M109.81,85.40 V88.46 H112.86 V85.40 H109.81 Z M109.81,88.46 V91.51 H112.86 V88.46 H109.81 Z M109.81,91.51 V94.56 H112.86 V91.51 H109.81 Z M109.81,97.61 V100.66 H112.86 V97.61 H109.81 Z M109.81,103.71 V106.76 H112.86 V103.71 H109.81 Z M109.81,109.81 V112.86 H112.86 V109.81 H109.81 Z M109.81,118.96 V122.01 H112.86 V118.96 H109.81 Z M109.81,122.01 V125.06 H112.86 V122.01 H109.81 Z M109.81,125.06 V128.11 H112.86 V125.06 H109.81 Z M109.81,131.16 V134.21 H112.86 V131.16 H109.81 Z M109.81,134.21 V137.26 H112.86 V134.21 H109.81 Z M109.81,137.26 V140.31 H112.86 V137.26 H109.81 Z M109.81,143.36 V146.41 H112.86 V143.36 H109.81 Z M109.81,146.41 V149.46 H112.86 V146.41 H109.81 Z M109.81,149.46 V152.51 H112.86 V149.46 H109.81 Z M109.81,152.51 V155.56 H112.86 V152.51 H109.81 Z M109.81,161.66 V164.71 H112.86 V161.66 H109.81 Z M109.81,170.81 V173.86 H112.86 V170.81 H109.81 Z M112.86,6.10 V9.15 H115.91 V6.10 H112.86 Z M112.86,21.35 V24.40 H115.91 V21.35 H112.86 Z M112.86,27.45 V30.50 H115.91 V27.45 H112.86 Z M112.86,30.50 V33.55 H115.91 V30.50 H112.86 Z M112.86,33.55 V36.60 H115.91 V33.55 H112.86 Z M112.86,36.60 V39.65 H115.91 V36.60 H112.86 Z M112.86,39.65 V42.70 H115.91 V39.65 H112.86 Z M112.86,51.85 V54.90 H115.91 V51.85 H112.86 Z M112.86,70.15 V73.20 H115.91 V70.15 H112.86 Z M112.86,76.25 V79.30 H115.91 V76.25 H112.86 Z M112.86,79.30 V82.35 H115.91 V79.30 H112.86 Z M112.86,82.35 V85.40 H115.91 V82.35 H112.86 Z M112.86,85.40 V88.46 H115.91 V85.40 H112.86 Z M112.86,88.46 V91.51 H115.91 V88.46 H112.86 Z M112.86,91.51 V94.56 H115.91 V91.51 H112.86 Z M112.86,94.56 V97.61 H115.91 V94.56 H112.86 Z M112.86,106.76 V109.81 H115.91 V106.76 H112.86 Z M112.86,118.96 V122.01 H115.91 V118.96 H112.86 Z M112.86,122.01 V125.06 H115.91 V122.01 H112.86 Z M112.86,125.06 V128.11 H115.91 V125.06 H112.86 Z M112.86,128.11 V131.16 H115.91 V128.11 H112.86 Z M112.86,134.21 V137.26 H115.91 V134.21 H112.86 Z M112.86,137.26 V140.31 H115.91 V137.26 H112.86 Z M112.86,140.31 V143.36 H115.91 V140.31 H112.86 Z M112.86,143.36 V146.41 H115.91 V143.36 H112.86 Z M112.86,146.41 V149.46 H115.91 V146.41 H112.86 Z M112.86,149.46 V152.51 H115.91 V149.46 H112.86 Z M112.86,155.56 V158.61 H115.91 V155.56 H112.86 Z M112.86,158.61 V161.66 H115.91 V158.61 H112.86 Z M112.86,167.76 V170.81 H115.91 V167.76 H112.86 Z M112.86,170.81 V173.86 H115.91 V170.81 H112.86 Z M115.91,0 V3.05 H118.96 V0 H115.91 Z M115.91,6.10 V9.15 H118.96 V6.10 H115.91 Z M115.91,12.20 V15.25 H118.96 V12.20 H115.91 Z M115.91,15.25 V18.30 H118.96 V15.25 H115.91 Z M115.91,18.30 V21.35 H118.96 V18.30 H115.91 Z M115.91,21.35 V24.40 H118.96 V21.35 H115.91 Z M115.91,36.60 V39.65 H118.96 V36.60 H115.91 Z M115.91,45.75 V48.80 H118.96 V45.75 H115.91 Z M115.91,54.90 V57.95 H118.96 V54.90 H115.91 Z M115.91,57.95 V61.00 H118.96 V57.95 H115.91 Z M115.91,64.05 V67.10 H118.96 V64.05 H115.91 Z M115.91,67.10 V70.15 H118.96 V67.10 H115.91 Z M115.91,73.20 V76.25 H118.96 V73.20 H115.91 Z M115.91,97.61 V100.66 H118.96 V97.61 H115.91 Z M115.91,103.71 V106.76 H118.96 V103.71 H115.91 Z M115.91,106.76 V109.81 H118.96 V106.76 H115.91 Z M115.91,115.91 V118.96 H118.96 V115.91 H115.91 Z M115.91,122.01 V125.06 H118.96 V122.01 H115.91 Z M115.91,128.11 V131.16 H118.96 V128.11 H115.91 Z M115.91,134.21 V137.26 H118.96 V134.21 H115.91 Z M115.91,152.51 V155.56 H118.96 V152.51 H115.91 Z M118.96,0 V3.05 H122.01 V0 H118.96 Z M118.96,3.05 V6.10 H122.01 V3.05 H118.96 Z M118.96,12.20 V15.25 H122.01 V12.20 H118.96 Z M118.96,21.35 V24.40 H122.01 V21.35 H118.96 Z M118.96,24.40 V27.45 H122.01 V24.40 H118.96 Z M118.96,33.55 V36.60 H122.01 V33.55 H118.96 Z M118.96,42.70 V45.75 H122.01 V42.70 H118.96 Z M118.96,57.95 V61.00 H122.01 V57.95 H118.96 Z M118.96,61.00 V64.05 H122.01 V61.00 H118.96 Z M118.96,64.05 V67.10 H122.01 V64.05 H118.96 Z M118.96,67.10 V70.15 H122.01 V67.10 H118.96 Z M118.96,70.15 V73.20 H122.01 V70.15 H118.96 Z M118.96,73.20 V76.25 H122.01 V73.20 H118.96 Z M118.96,79.30 V82.35 H122.01 V79.30 H118.96 Z M118.96,82.35 V85.40 H122.01 V82.35 H118.96 Z M118.96,85.40 V88.46 H122.01 V85.40 H118.96 Z M118.96,88.46 V91.51 H122.01 V88.46 H118.96 Z M118.96,91.51 V94.56 H122.01 V91.51 H118.96 Z M118.96,94.56 V97.61 H122.01 V94.56 H118.96 Z M118.96,97.61 V100.66 H122.01 V97.61 H118.96 Z M118.96,112.86 V115.91 H122.01 V112.86 H118.96 Z M118.96,131.16 V134.21 H122.01 V131.16 H118.96 Z M118.96,134.21 V137.26 H122.01 V134.21 H118.96 Z M118.96,137.26 V140.31 H122.01 V137.26 H118.96 Z M118.96,140.31 V143.36 H122.01 V140.31 H118.96 Z M118.96,143.36 V146.41 H122.01 V143.36 H118.96 Z M118.96,146.41 V149.46 H122.01 V146.41 H118.96 Z M118.96,152.51 V155.56 H122.01 V152.51 H118.96 Z M118.96,158.61 V161.66 H122.01 V158.61 H118.96 Z M118.96,164.71 V167.76 H122.01 V164.71 H118.96 Z M122.01,0 V3.05 H125.06 V0 H122.01 Z M122.01,12.20 V15.25 H125.06 V12.20 H122.01 Z M122.01,18.30 V21.35 H125.06 V18.30 H122.01 Z M122.01,21.35 V24.40 H125.06 V21.35 H122.01 Z M122.01,24.40 V27.45 H125.06 V24.40 H122.01 Z M122.01,36.60 V39.65 H125.06 V36.60 H122.01 Z M122.01,42.70 V45.75 H125.06 V42.70 H122.01 Z M122.01,45.75 V48.80 H125.06 V45.75 H122.01 Z M122.01,48.80 V51.85 H125.06 V48.80 H122.01 Z M122.01,51.85 V54.90 H125.06 V51.85 H122.01 Z M122.01,54.90 V57.95 H125.06 V54.90 H122.01 Z M122.01,64.05 V67.10 H125.06 V64.05 H122.01 Z M122.01,70.15 V73.20 H125.06 V70.15 H122.01 Z M122.01,73.20 V76.25 H125.06 V73.20 H122.01 Z M122.01,76.25 V79.30 H125.06 V76.25 H122.01 Z M122.01,79.30 V82.35 H125.06 V79.30 H122.01 Z M122.01,82.35 V85.40 H125.06 V82.35 H122.01 Z M122.01,85.40 V88.46 H125.06 V85.40 H122.01 Z M122.01,91.51 V94.56 H125.06 V91.51 H122.01 Z M122.01,94.56 V97.61 H125.06 V94.56 H122.01 Z M122.01,97.61 V100.66 H125.06 V97.61 H122.01 Z M122.01,100.66 V103.71 H125.06 V100.66 H122.01 Z M122.01,103.71 V106.76 H125.06 V103.71 H122.01 Z M122.01,106.76 V109.81 H125.06 V106.76 H122.01 Z M122.01,109.81 V112.86 H125.06 V109.81 H122.01 Z M122.01,122.01 V125.06 H125.06 V122.01 H122.01 Z M122.01,128.11 V131.16 H125.06 V128.11 H122.01 Z M122.01,131.16 V134.21 H125.06 V131.16 H122.01 Z M122.01,134.21 V137.26 H125.06 V134.21 H122.01 Z M122.01,137.26 V140.31 H125.06 V137.26 H122.01 Z M122.01,143.36 V146.41 H125.06 V143.36 H122.01 Z M122.01,146.41 V149.46 H125.06 V146.41 H122.01 Z M122.01,152.51 V155.56 H125.06 V152.51 H122.01 Z M122.01,155.56 V158.61 H125.06 V155.56 H122.01 Z M122.01,158.61 V161.66 H125.06 V158.61 H122.01 Z M122.01,164.71 V167.76 H125.06 V164.71 H122.01 Z M122.01,167.76 V170.81 H125.06 V167.76 H122.01 Z M122.01,170.81 V173.86 H125.06 V170.81 H122.01 Z M125.06,0 V3.05 H128.11 V0 H125.06 Z M125.06,12.20 V15.25 H128.11 V12.20 H125.06 Z M125.06,15.25 V18.30 H128.11 V15.25 H125.06 Z M125.06,21.35 V24.40 H128.11 V21.35 H125.06 Z M125.06,30.50 V33.55 H128.11 V30.50 H125.06 Z M125.06,45.75 V48.80 H128.11 V45.75 H125.06 Z M125.06,48.80 V51.85 H128.11 V48.80 H125.06 Z M125.06,51.85 V54.90 H128.11 V51.85 H125.06 Z M125.06,54.90 V57.95 H128.11 V54.90 H125.06 Z M125.06,61.00 V64.05 H128.11 V61.00 H125.06 Z M125.06,85.40 V88.46 H128.11 V85.40 H125.06 Z M125.06,94.56 V97.61 H128.11 V94.56 H125.06 Z M125.06,97.61 V100.66 H128.11 V97.61 H125.06 Z M125.06,100.66 V103.71 H128.11 V100.66 H125.06 Z M125.06,103.71 V106.76 H128.11 V103.71 H125.06 Z M125.06,106.76 V109.81 H128.11 V106.76 H125.06 Z M125.06,112.86 V115.91 H128.11 V112.86 H125.06 Z M125.06,115.91 V118.96 H128.11 V115.91 H125.06 Z M125.06,118.96 V122.01 H128.11 V118.96 H125.06 Z M125.06,122.01 V125.06 H128.11 V122.01 H125.06 Z M125.06,131.16 V134.21 H128.11 V131.16 H125.06 Z M125.06,134.21 V137.26 H128.11 V134.21 H125.06 Z M125.06,140.31 V143.36 H128.11 V140.31 H125.06 Z M125.06,143.36 V146.41 H128.11 V143.36 H125.06 Z M125.06,146.41 V149.46 H128.11 V146.41 H125.06 Z M128.11,0 V3.05 H131.16 V0 H128.11 Z M128.11,3.05 V6.10 H131.16 V3.05 H128.11 Z M128.11,6.10 V9.15 H131.16 V6.10 H128.11 Z M128.11,9.15 V12.20 H131.16 V9.15 H128.11 Z M128.11,12.20 V15.25 H131.16 V12.20 H128.11 Z M128.11,15.25 V18.30 H131.16 V15.25 H128.11 Z M128.11,18.30 V21.35 H131.16 V18.30 H128.11 Z M128.11,21.35 V24.40 H131.16 V21.35 H128.11 Z M128.11,30.50 V33.55 H131.16 V30.50 H128.11 Z M128.11,33.55 V36.60 H131.16 V33.55 H128.11 Z M128.11,39.65 V42.70 H131.16 V39.65 H128.11 Z M128.11,42.70 V45.75 H131.16 V42.70 H128.11 Z M128.11,45.75 V48.80 H131.16 V45.75 H128.11 Z M128.11,48.80 V51.85 H131.16 V48.80 H128.11 Z M128.11,70.15 V73.20 H131.16 V70.15 H128.11 Z M128.11,73.20 V76.25 H131.16 V73.20 H128.11 Z M128.11,97.61 V100.66 H131.16 V97.61 H128.11 Z M128.11,103.71 V106.76 H131.16 V103.71 H128.11 Z M128.11,109.81 V112.86 H131.16 V109.81 H128.11 Z M128.11,118.96 V122.01 H131.16 V118.96 H128.11 Z M128.11,122.01 V125.06 H131.16 V122.01 H128.11 Z M128.11,134.21 V137.26 H131.16 V134.21 H128.11 Z M128.11,146.41 V149.46 H131.16 V146.41 H128.11 Z M128.11,155.56 V158.61 H131.16 V155.56 H128.11 Z M128.11,161.66 V164.71 H131.16 V161.66 H128.11 Z M128.11,164.71 V167.76 H131.16 V164.71 H128.11 Z M128.11,170.81 V173.86 H131.16 V170.81 H128.11 Z M131.16,0 V3.05 H134.21 V0 H131.16 Z M131.16,3.05 V6.10 H134.21 V3.05 H131.16 Z M131.16,6.10 V9.15 H134.21 V6.10 H131.16 Z M131.16,9.15 V12.20 H134.21 V9.15 H131.16 Z M131.16,12.20 V15.25 H134.21 V12.20 H131.16 Z M131.16,15.25 V18.30 H134.21 V15.25 H131.16 Z M131.16,33.55 V36.60 H134.21 V33.55 H131.16 Z M131.16,42.70 V45.75 H134.21 V42.70 H131.16 Z M131.16,45.75 V48.80 H134.21 V45.75 H131.16 Z M131.16,48.80 V51.85 H134.21 V48.80 H131.16 Z M131.16,51.85 V54.90 H134.21 V51.85 H131.16 Z M131.16,57.95 V61.00 H134.21 V57.95 H131.16 Z M131.16,61.00 V64.05 H134.21 V61.00 H131.16 Z M131.16,64.05 V67.10 H134.21 V64.05 H131.16 Z M131.16,67.10 V70.15 H134.21 V67.10 H131.16 Z M131.16,76.25 V79.30 H134.21 V76.25 H131.16 Z M131.16,82.35 V85.40 H134.21 V82.35 H131.16 Z M131.16,85.40 V88.46 H134.21 V85.40 H131.16 Z M131.16,88.46 V91.51 H134.21 V88.46 H131.16 Z M131.16,91.51 V94.56 H134.21 V91.51 H131.16 Z M131.16,103.71 V106.76 H134.21 V103.71 H131.16 Z M131.16,106.76 V109.81 H134.21 V106.76 H131.16 Z M131.16,118.96 V122.01 H134.21 V118.96 H131.16 Z M131.16,122.01 V125.06 H134.21 V122.01 H131.16 Z M131.16,125.06 V128.11 H134.21 V125.06 H131.16 Z M131.16,131.16 V134.21 H134.21 V131.16 H131.16 Z M131.16,134.21 V137.26 H134.21 V134.21 H131.16 Z M131.16,161.66 V164.71 H134.21 V161.66 H131.16 Z M131.16,170.81 V173.86 H134.21 V170.81 H131.16 Z M134.21,0 V3.05 H137.26 V0 H134.21 Z M134.21,3.05 V6.10 H137.26 V3.05 H134.21 Z M134.21,18.30 V21.35 H137.26 V18.30 H134.21 Z M134.21,24.40 V27.45 H137.26 V24.40 H134.21 Z M134.21,30.50 V33.55 H137.26 V30.50 H134.21 Z M134.21,36.60 V39.65 H137.26 V36.60 H134.21 Z M134.21,42.70 V45.75 H137.26 V42.70 H134.21 Z M134.21,48.80 V51.85 H137.26 V48.80 H134.21 Z M134.21,51.85 V54.90 H137.26 V51.85 H134.21 Z M134.21,57.95 V61.00 H137.26 V57.95 H134.21 Z M134.21,61.00 V64.05 H137.26 V61.00 H134.21 Z M134.21,70.15 V73.20 H137.26 V70.15 H134.21 Z M134.21,73.20 V76.25 H137.26 V73.20 H134.21 Z M134.21,88.46 V91.51 H137.26 V88.46 H134.21 Z M134.21,94.56 V97.61 H137.26 V94.56 H134.21 Z M134.21,97.61 V100.66 H137.26 V97.61 H134.21 Z M134.21,103.71 V106.76 H137.26 V103.71 H134.21 Z M134.21,109.81 V112.86 H137.26 V109.81 H134.21 Z M134.21,112.86 V115.91 H137.26 V112.86 H134.21 Z M134.21,115.91 V118.96 H137.26 V115.91 H134.21 Z M134.21,118.96 V122.01 H137.26 V118.96 H134.21 Z M134.21,122.01 V125.06 H137.26 V122.01 H134.21 Z M134.21,125.06 V128.11 H137.26 V125.06 H134.21 Z M134.21,128.11 V131.16 H137.26 V128.11 H134.21 Z M134.21,134.21 V137.26 H137.26 V134.21 H134.21 Z M134.21,137.26 V140.31 H137.26 V137.26 H134.21 Z M134.21,140.31 V143.36 H137.26 V140.31 H134.21 Z M134.21,146.41 V149.46 H137.26 V146.41 H134.21 Z M134.21,152.51 V155.56 H137.26 V152.51 H134.21 Z M134.21,155.56 V158.61 H137.26 V155.56 H134.21 Z M134.21,158.61 V161.66 H137.26 V158.61 H134.21 Z M134.21,170.81 V173.86 H137.26 V170.81 H134.21 Z M137.26,0 V3.05 H140.31 V0 H137.26 Z M137.26,3.05 V6.10 H140.31 V3.05 H137.26 Z M137.26,6.10 V9.15 H140.31 V6.10 H137.26 Z M137.26,15.25 V18.30 H140.31 V15.25 H137.26 Z M137.26,21.35 V24.40 H140.31 V21.35 H137.26 Z M137.26,27.45 V30.50 H140.31 V27.45 H137.26 Z M137.26,30.50 V33.55 H140.31 V30.50 H137.26 Z M137.26,36.60 V39.65 H140.31 V36.60 H137.26 Z M137.26,42.70 V45.75 H140.31 V42.70 H137.26 Z M137.26,45.75 V48.80 H140.31 V45.75 H137.26 Z M137.26,57.95 V61.00 H140.31 V57.95 H137.26 Z M137.26,64.05 V67.10 H140.31 V64.05 H137.26 Z M137.26,67.10 V70.15 H140.31 V67.10 H137.26 Z M137.26,70.15 V73.20 H140.31 V70.15 H137.26 Z M137.26,73.20 V76.25 H140.31 V73.20 H137.26 Z M137.26,76.25 V79.30 H140.31 V76.25 H137.26 Z M137.26,79.30 V82.35 H140.31 V79.30 H137.26 Z M137.26,82.35 V85.40 H140.31 V82.35 H137.26 Z M137.26,85.40 V88.46 H140.31 V85.40 H137.26 Z M137.26,88.46 V91.51 H140.31 V88.46 H137.26 Z M137.26,112.86 V115.91 H140.31 V112.86 H137.26 Z M137.26,118.96 V122.01 H140.31 V118.96 H137.26 Z M137.26,125.06 V128.11 H140.31 V125.06 H137.26 Z M137.26,128.11 V131.16 H140.31 V128.11 H137.26 Z M137.26,143.36 V146.41 H140.31 V143.36 H137.26 Z M137.26,158.61 V161.66 H140.31 V158.61 H137.26 Z M137.26,164.71 V167.76 H140.31 V164.71 H137.26 Z M137.26,167.76 V170.81 H140.31 V167.76 H137.26 Z M140.31,0 V3.05 H143.36 V0 H140.31 Z M140.31,6.10 V9.15 H143.36 V6.10 H140.31 Z M140.31,15.25 V18.30 H143.36 V15.25 H140.31 Z M140.31,18.30 V21.35 H143.36 V18.30 H140.31 Z M140.31,21.35 V24.40 H143.36 V21.35 H140.31 Z M140.31,36.60 V39.65 H143.36 V36.60 H140.31 Z M140.31,45.75 V48.80 H143.36 V45.75 H140.31 Z M140.31,48.80 V51.85 H143.36 V48.80 H140.31 Z M140.31,54.90 V57.95 H143.36 V54.90 H140.31 Z M140.31,57.95 V61.00 H143.36 V57.95 H140.31 Z M140.31,73.20 V76.25 H143.36 V73.20 H140.31 Z M140.31,79.30 V82.35 H143.36 V79.30 H140.31 Z M140.31,85.40 V88.46 H143.36 V85.40 H140.31 Z M140.31,91.51 V94.56 H143.36 V91.51 H140.31 Z M140.31,97.61 V100.66 H143.36 V97.61 H140.31 Z M140.31,115.91 V118.96 H143.36 V115.91 H140.31 Z M140.31,118.96 V122.01 H143.36 V118.96 H140.31 Z M140.31,122.01 V125.06 H143.36 V122.01 H140.31 Z M140.31,131.16 V134.21 H143.36 V131.16 H140.31 Z M140.31,137.26 V140.31 H143.36 V137.26 H140.31 Z M140.31,140.31 V143.36 H143.36 V140.31 H140.31 Z M140.31,143.36 V146.41 H143.36 V143.36 H140.31 Z M140.31,152.51 V155.56 H143.36 V152.51 H140.31 Z M140.31,158.61 V161.66 H143.36 V158.61 H140.31 Z M140.31,167.76 V170.81 H143.36 V167.76 H140.31 Z M143.36,0 V3.05 H146.41 V0 H143.36 Z M143.36,3.05 V6.10 H146.41 V3.05 H143.36 Z M143.36,6.10 V9.15 H146.41 V6.10 H143.36 Z M143.36,9.15 V12.20 H146.41 V9.15 H143.36 Z M143.36,12.20 V15.25 H146.41 V12.20 H143.36 Z M143.36,27.45 V30.50 H146.41 V27.45 H143.36 Z M143.36,30.50 V33.55 H146.41 V30.50 H143.36 Z M143.36,33.55 V36.60 H146.41 V33.55 H143.36 Z M143.36,42.70 V45.75 H146.41 V42.70 H143.36 Z M143.36,45.75 V48.80 H146.41 V45.75 H143.36 Z M143.36,57.95 V61.00 H146.41 V57.95 H143.36 Z M143.36,64.05 V67.10 H146.41 V64.05 H143.36 Z M143.36,70.15 V73.20 H146.41 V70.15 H143.36 Z M143.36,76.25 V79.30 H146.41 V76.25 H143.36 Z M143.36,82.35 V85.40 H146.41 V82.35 H143.36 Z M143.36,85.40 V88.46 H146.41 V85.40 H143.36 Z M143.36,88.46 V91.51 H146.41 V88.46 H143.36 Z M143.36,91.51 V94.56 H146.41 V91.51 H143.36 Z M143.36,106.76 V109.81 H146.41 V106.76 H143.36 Z M143.36,115.91 V118.96 H146.41 V115.91 H143.36 Z M143.36,118.96 V122.01 H146.41 V118.96 H143.36 Z M143.36,128.11 V131.16 H146.41 V128.11 H143.36 Z M143.36,137.26 V140.31 H146.41 V137.26 H143.36 Z M143.36,143.36 V146.41 H146.41 V143.36 H143.36 Z M143.36,149.46 V152.51 H146.41 V149.46 H143.36 Z M143.36,155.56 V158.61 H146.41 V155.56 H143.36 Z M143.36,167.76 V170.81 H146.41 V167.76 H143.36 Z M146.41,18.30 V21.35 H149.46 V18.30 H146.41 Z M146.41,21.35 V24.40 H149.46 V21.35 H146.41 Z M146.41,24.40 V27.45 H149.46 V24.40 H146.41 Z M146.41,36.60 V39.65 H149.46 V36.60 H146.41 Z M146.41,54.90 V57.95 H149.46 V54.90 H146.41 Z M146.41,61.00 V64.05 H149.46 V61.00 H146.41 Z M146.41,67.10 V70.15 H149.46 V67.10 H146.41 Z M146.41,73.20 V76.25 H149.46 V73.20 H146.41 Z M146.41,79.30 V82.35 H149.46 V79.30 H146.41 Z M146.41,82.35 V85.40 H149.46 V82.35 H146.41 Z M146.41,85.40 V88.46 H149.46 V85.40 H146.41 Z M146.41,88.46 V91.51 H149.46 V88.46 H146.41 Z M146.41,91.51 V94.56 H149.46 V91.51 H146.41 Z M146.41,103.71 V106.76 H149.46 V103.71 H146.41 Z M146.41,106.76 V109.81 H149.46 V106.76 H146.41 Z M146.41,109.81 V112.86 H149.46 V109.81 H146.41 Z M146.41,118.96 V122.01 H149.46 V118.96 H146.41 Z M146.41,122.01 V125.06 H149.46 V122.01 H146.41 Z M146.41,134.21 V137.26 H149.46 V134.21 H146.41 Z M146.41,140.31 V143.36 H149.46 V140.31 H146.41 Z M146.41,143.36 V146.41 H149.46 V143.36 H146.41 Z M146.41,146.41 V149.46 H149.46 V146.41 H146.41 Z M146.41,149.46 V152.51 H149.46 V149.46 H146.41 Z M146.41,152.51 V155.56 H149.46 V152.51 H146.41 Z M146.41,155.56 V158.61 H149.46 V155.56 H146.41 Z M146.41,158.61 V161.66 H149.46 V158.61 H146.41 Z M146.41,161.66 V164.71 H149.46 V161.66 H146.41 Z M146.41,164.71 V167.76 H149.46 V164.71 H146.41 Z M146.41,167.76 V170.81 H149.46 V167.76 H146.41 Z M149.46,33.55 V36.60 H152.51 V33.55 H149.46 Z M149.46,45.75 V48.80 H152.51 V45.75 H149.46 Z M149.46,51.85 V54.90 H152.51 V51.85 H149.46 Z M149.46,54.90 V57.95 H152.51 V54.90 H149.46 Z M149.46,57.95 V61.00 H152.51 V57.95 H149.46 Z M149.46,61.00 V64.05 H152.51 V61.00 H149.46 Z M149.46,70.15 V73.20 H152.51 V70.15 H149.46 Z M149.46,76.25 V79.30 H152.51 V76.25 H149.46 Z M149.46,79.30 V82.35 H152.51 V79.30 H149.46 Z M149.46,91.51 V94.56 H152.51 V91.51 H149.46 Z M149.46,97.61 V100.66 H152.51 V97.61 H149.46 Z M149.46,106.76 V109.81 H152.51 V106.76 H149.46 Z M149.46,109.81 V112.86 H152.51 V109.81 H149.46 Z M149.46,115.91 V118.96 H152.51 V115.91 H149.46 Z M149.46,125.06 V128.11 H152.51 V125.06 H149.46 Z M149.46,134.21 V137.26 H152.51 V134.21 H149.46 Z M149.46,137.26 V140.31 H152.51 V137.26 H149.46 Z M149.46,143.36 V146.41 H152.51 V143.36 H149.46 Z M149.46,146.41 V149.46 H152.51 V146.41 H149.46 Z M149.46,158.61 V161.66 H152.51 V158.61 H149.46 Z M149.46,161.66 V164.71 H152.51 V161.66 H149.46 Z M149.46,167.76 V170.81 H152.51 V167.76 H149.46 Z M152.51,0 V3.05 H155.56 V0 H152.51 Z M152.51,3.05 V6.10 H155.56 V3.05 H152.51 Z M152.51,6.10 V9.15 H155.56 V6.10 H152.51 Z M152.51,9.15 V12.20 H155.56 V9.15 H152.51 Z M152.51,12.20 V15.25 H155.56 V12.20 H152.51 Z M152.51,15.25 V18.30 H155.56 V15.25 H152.51 Z M152.51,18.30 V21.35 H155.56 V18.30 H152.51 Z M152.51,33.55 V36.60 H155.56 V33.55 H152.51 Z M152.51,42.70 V45.75 H155.56 V42.70 H152.51 Z M152.51,48.80 V51.85 H155.56 V48.80 H152.51 Z M152.51,57.95 V61.00 H155.56 V57.95 H152.51 Z M152.51,61.00 V64.05 H155.56 V61.00 H152.51 Z M152.51,73.20 V76.25 H155.56 V73.20 H152.51 Z M152.51,79.30 V82.35 H155.56 V79.30 H152.51 Z M152.51,85.40 V88.46 H155.56 V85.40 H152.51 Z M152.51,91.51 V94.56 H155.56 V91.51 H152.51 Z M152.51,94.56 V97.61 H155.56 V94.56 H152.51 Z M152.51,97.61 V100.66 H155.56 V97.61 H152.51 Z M152.51,103.71 V106.76 H155.56 V103.71 H152.51 Z M152.51,109.81 V112.86 H155.56 V109.81 H152.51 Z M152.51,115.91 V118.96 H155.56 V115.91 H152.51 Z M152.51,122.01 V125.06 H155.56 V122.01 H152.51 Z M152.51,125.06 V128.11 H155.56 V125.06 H152.51 Z M152.51,128.11 V131.16 H155.56 V128.11 H152.51 Z M152.51,131.16 V134.21 H155.56 V131.16 H152.51 Z M152.51,137.26 V140.31 H155.56 V137.26 H152.51 Z M152.51,140.31 V143.36 H155.56 V140.31 H152.51 Z M152.51,146.41 V149.46 H155.56 V146.41 H152.51 Z M152.51,152.51 V155.56 H155.56 V152.51 H152.51 Z M152.51,158.61 V161.66 H155.56 V158.61 H152.51 Z M152.51,164.71 V167.76 H155.56 V164.71 H152.51 Z M152.51,170.81 V173.86 H155.56 V170.81 H152.51 Z M155.56,0 V3.05 H158.61 V0 H155.56 Z M155.56,18.30 V21.35 H158.61 V18.30 H155.56 Z M155.56,39.65 V42.70 H158.61 V39.65 H155.56 Z M155.56,42.70 V45.75 H158.61 V42.70 H155.56 Z M155.56,45.75 V48.80 H158.61 V45.75 H155.56 Z M155.56,48.80 V51.85 H158.61 V48.80 H155.56 Z M155.56,51.85 V54.90 H158.61 V51.85 H155.56 Z M155.56,54.90 V57.95 H158.61 V54.90 H155.56 Z M155.56,64.05 V67.10 H158.61 V64.05 H155.56 Z M155.56,70.15 V73.20 H158.61 V70.15 H155.56 Z M155.56,79.30 V82.35 H158.61 V79.30 H155.56 Z M155.56,91.51 V94.56 H158.61 V91.51 H155.56 Z M155.56,94.56 V97.61 H158.61 V94.56 H155.56 Z M155.56,97.61 V100.66 H158.61 V97.61 H155.56 Z M155.56,103.71 V106.76 H158.61 V103.71 H155.56 Z M155.56,112.86 V115.91 H158.61 V112.86 H155.56 Z M155.56,115.91 V118.96 H158.61 V115.91 H155.56 Z M155.56,118.96 V122.01 H158.61 V118.96 H155.56 Z M155.56,131.16 V134.21 H158.61 V131.16 H155.56 Z M155.56,137.26 V140.31 H158.61 V137.26 H155.56 Z M155.56,140.31 V143.36 H158.61 V140.31 H155.56 Z M155.56,143.36 V146.41 H158.61 V143.36 H155.56 Z M155.56,146.41 V149.46 H158.61 V146.41 H155.56 Z M155.56,158.61 V161.66 H158.61 V158.61 H155.56 Z M155.56,161.66 V164.71 H158.61 V161.66 H155.56 Z M155.56,164.71 V167.76 H158.61 V164.71 H155.56 Z M158.61,0 V3.05 H161.66 V0 H158.61 Z M158.61,6.10 V9.15 H161.66 V6.10 H158.61 Z M158.61,9.15 V12.20 H161.66 V9.15 H158.61 Z M158.61,12.20 V15.25 H161.66 V12.20 H158.61 Z M158.61,18.30 V21.35 H161.66 V18.30 H158.61 Z M158.61,24.40 V27.45 H161.66 V24.40 H158.61 Z M158.61,27.45 V30.50 H161.66 V27.45 H158.61 Z M158.61,30.50 V33.55 H161.66 V30.50 H158.61 Z M158.61,33.55 V36.60 H161.66 V33.55 H158.61 Z M158.61,36.60 V39.65 H161.66 V36.60 H158.61 Z M158.61,39.65 V42.70 H161.66 V39.65 H158.61 Z M158.61,45.75 V48.80 H161.66 V45.75 H158.61 Z M158.61,48.80 V51.85 H161.66 V48.80 H158.61 Z M158.61,57.95 V61.00 H161.66 V57.95 H158.61 Z M158.61,61.00 V64.05 H161.66 V61.00 H158.61 Z M158.61,64.05 V67.10 H161.66 V64.05 H158.61 Z M158.61,73.20 V76.25 H161.66 V73.20 H158.61 Z M158.61,79.30 V82.35 H161.66 V79.30 H158.61 Z M158.61,82.35 V85.40 H161.66 V82.35 H158.61 Z M158.61,85.40 V88.46 H161.66 V85.40 H158.61 Z M158.61,88.46 V91.51 H161.66 V88.46 H158.61 Z M158.61,91.51 V94.56 H161.66 V91.51 H158.61 Z M158.61,103.71 V106.76 H161.66 V103.71 H158.61 Z M158.61,115.91 V118.96 H161.66 V115.91 H158.61 Z M158.61,128.11 V131.16 H161.66 V128.11 H158.61 Z M158.61,131.16 V134.21 H161.66 V131.16 H158.61 Z M158.61,134.21 V137.26 H161.66 V134.21 H158.61 Z M158.61,146.41 V149.46 H161.66 V146.41 H158.61 Z M158.61,149.46 V152.51 H161.66 V149.46 H158.61 Z M158.61,152.51 V155.56 H161.66 V152.51 H158.61 Z M158.61,155.56 V158.61 H161.66 V155.56 H158.61 Z M158.61,158.61 V161.66 H161.66 V158.61 H158.61 Z M158.61,161.66 V164.71 H161.66 V161.66 H158.61 Z M158.61,164.71 V167.76 H161.66 V164.71 H158.61 Z M161.66,0 V3.05 H164.71 V0 H161.66 Z M161.66,6.10 V9.15 H164.71 V6.10 H161.66 Z M161.66,9.15 V12.20 H164.71 V9.15 H161.66 Z M161.66,12.20 V15.25 H164.71 V12.20 H161.66 Z M161.66,18.30 V21.35 H164.71 V18.30 H161.66 Z M161.66,27.45 V30.50 H164.71 V27.45 H161.66 Z M161.66,33.55 V36.60 H164.71 V33.55 H161.66 Z M161.66,39.65 V42.70 H164.71 V39.65 H161.66 Z M161.66,42.70 V45.75 H164.71 V42.70 H161.66 Z M161.66,48.80 V51.85 H164.71 V48.80 H161.66 Z M161.66,54.90 V57.95 H164.71 V54.90 H161.66 Z M161.66,64.05 V67.10 H164.71 V64.05 H161.66 Z M161.66,67.10 V70.15 H164.71 V67.10 H161.66 Z M161.66,73.20 V76.25 H164.71 V73.20 H161.66 Z M161.66,79.30 V82.35 H164.71 V79.30 H161.66 Z M161.66,85.40 V88.46 H164.71 V85.40 H161.66 Z M161.66,88.46 V91.51 H164.71 V88.46 H161.66 Z M161.66,94.56 V97.61 H164.71 V94.56 H161.66 Z M161.66,103.71 V106.76 H164.71 V103.71 H161.66 Z M161.66,125.06 V128.11 H164.71 V125.06 H161.66 Z M161.66,149.46 V152.51 H164.71 V149.46 H161.66 Z M161.66,155.56 V158.61 H164.71 V155.56 H161.66 Z M161.66,158.61 V161.66 H164.71 V158.61 H161.66 Z M161.66,161.66 V164.71 H164.71 V161.66 H161.66 Z M161.66,164.71 V167.76 H164.71 V164.71 H161.66 Z M164.71,0 V3.05 H167.76 V0 H164.71 Z M164.71,6.10 V9.15 H167.76 V6.10 H164.71 Z M164.71,9.15 V12.20 H167.76 V9.15 H164.71 Z M164.71,12.20 V15.25 H167.76 V12.20 H164.71 Z M164.71,18.30 V21.35 H167.76 V18.30 H164.71 Z M164.71,27.45 V30.50 H167.76 V27.45 H164.71 Z M164.71,36.60 V39.65 H167.76 V36.60 H164.71 Z M164.71,39.65 V42.70 H167.76 V39.65 H164.71 Z M164.71,42.70 V45.75 H167.76 V42.70 H164.71 Z M164.71,54.90 V57.95 H167.76 V54.90 H164.71 Z M164.71,73.20 V76.25 H167.76 V73.20 H164.71 Z M164.71,76.25 V79.30 H167.76 V76.25 H164.71 Z M164.71,88.46 V91.51 H167.76 V88.46 H164.71 Z M164.71,97.61 V100.66 H167.76 V97.61 H164.71 Z M164.71,115.91 V118.96 H167.76 V115.91 H164.71 Z M164.71,128.11 V131.16 H167.76 V128.11 H164.71 Z M164.71,134.21 V137.26 H167.76 V134.21 H164.71 Z M164.71,140.31 V143.36 H167.76 V140.31 H164.71 Z M164.71,149.46 V152.51 H167.76 V149.46 H164.71 Z M164.71,161.66 V164.71 H167.76 V161.66 H164.71 Z M164.71,164.71 V167.76 H167.76 V164.71 H164.71 Z M167.76,0 V3.05 H170.81 V0 H167.76 Z M167.76,18.30 V21.35 H170.81 V18.30 H167.76 Z M167.76,24.40 V27.45 H170.81 V24.40 H167.76 Z M167.76,27.45 V30.50 H170.81 V27.45 H167.76 Z M167.76,30.50 V33.55 H170.81 V30.50 H167.76 Z M167.76,33.55 V36.60 H170.81 V33.55 H167.76 Z M167.76,42.70 V45.75 H170.81 V42.70 H167.76 Z M167.76,54.90 V57.95 H170.81 V54.90 H167.76 Z M167.76,64.05 V67.10 H170.81 V64.05 H167.76 Z M167.76,67.10 V70.15 H170.81 V67.10 H167.76 Z M167.76,70.15 V73.20 H170.81 V70.15 H167.76 Z M167.76,73.20 V76.25 H170.81 V73.20 H167.76 Z M167.76,76.25 V79.30 H170.81 V76.25 H167.76 Z M167.76,82.35 V85.40 H170.81 V82.35 H167.76 Z M167.76,91.51 V94.56 H170.81 V91.51 H167.76 Z M167.76,94.56 V97.61 H170.81 V94.56 H167.76 Z M167.76,106.76 V109.81 H170.81 V106.76 H167.76 Z M167.76,112.86 V115.91 H170.81 V112.86 H167.76 Z M167.76,115.91 V118.96 H170.81 V115.91 H167.76 Z M167.76,118.96 V122.01 H170.81 V118.96 H167.76 Z M167.76,122.01 V125.06 H170.81 V122.01 H167.76 Z M167.76,125.06 V128.11 H170.81 V125.06 H167.76 Z M167.76,128.11 V131.16 H170.81 V128.11 H167.76 Z M167.76,131.16 V134.21 H170.81 V131.16 H167.76 Z M167.76,137.26 V140.31 H170.81 V137.26 H167.76 Z M167.76,143.36 V146.41 H170.81 V143.36 H167.76 Z M167.76,149.46 V152.51 H170.81 V149.46 H167.76 Z M167.76,155.56 V158.61 H170.81 V155.56 H167.76 Z M167.76,161.66 V164.71 H170.81 V161.66 H167.76 Z M167.76,167.76 V170.81 H170.81 V167.76 H167.76 Z M167.76,170.81 V173.86 H170.81 V170.81 H167.76 Z M170.81,0 V3.05 H173.86 V0 H170.81 Z M170.81,3.05 V6.10 H173.86 V3.05 H170.81 Z M170.81,6.10 V9.15 H173.86 V6.10 H170.81 Z M170.81,9.15 V12.20 H173.86 V9.15 H170.81 Z M170.81,12.20 V15.25 H173.86 V12.20 H170.81 Z M170.81,15.25 V18.30 H173.86 V15.25 H170.81 Z M170.81,18.30 V21.35 H173.86 V18.30 H170.81 Z M170.81,27.45 V30.50 H173.86 V27.45 H170.81 Z M170.81,30.50 V33.55 H173.86 V30.50 H170.81 Z M170.81,33.55 V36.60 H173.86 V33.55 H170.81 Z M170.81,36.60 V39.65 H173.86 V36.60 H170.81 Z M170.81,42.70 V45.75 H173.86 V42.70 H170.81 Z M170.81,45.75 V48.80 H173.86 V45.75 H170.81 Z M170.81,48.80 V51.85 H173.86 V48.80 H170.81 Z M170.81,51.85 V54.90 H173.86 V51.85 H170.81 Z M170.81,54.90 V57.95 H173.86 V54.90 H170.81 Z M170.81,61.00 V64.05 H173.86 V61.00 H170.81 Z M170.81,64.05 V67.10 H173.86 V64.05 H170.81 Z M170.81,67.10 V70.15 H173.86 V67.10 H170.81 Z M170.81,79.30 V82.35 H173.86 V79.30 H170.81 Z M170.81,82.35 V85.40 H173.86 V82.35 H170.81 Z M170.81,91.51 V94.56 H173.86 V91.51 H170.81 Z M170.81,97.61 V100.66 H173.86 V97.61 H170.81 Z M170.81,100.66 V103.71 H173.86 V100.66 H170.81 Z M170.81,109.81 V112.86 H173.86 V109.81 H170.81 Z M170.81,112.86 V115.91 H173.86 V112.86 H170.81 Z M170.81,115.91 V118.96 H173.86 V115.91 H170.81 Z M170.81,125.06 V128.11 H173.86 V125.06 H170.81 Z M170.81,128.11 V131.16 H173.86 V128.11 H170.81 Z M170.81,131.16 V134.21 H173.86 V131.16 H170.81 Z M170.81,134.21 V137.26 H173.86 V134.21 H170.81 Z M170.81,140.31 V143.36 H173.86 V140.31 H170.81 Z M170.81,143.36 V146.41 H173.86 V143.36 H170.81 Z M170.81,149.46 V152.51 H173.86 V149.46 H170.81 Z M170.81,152.51 V155.56 H173.86 V152.51 H170.81 Z M170.81,155.56 V158.61 H173.86 V155.56 H170.81 Z M170.81,158.61 V161.66 H173.86 V158.61 H170.81 Z M170.81,164.71 V167.76 H173.86 V164.71 H170.81 Z M170.81,170.81 V173.86 H173.86 V170.81 H170.81 Z " fill="black" stroke="none" />
      <svg width="7mm" height="7mm" x="20mm" y="20mm" viewBox="0 0 19.8 19.8">
         <polygon points="18.3,0.7 1.6,0.7 0.7,0.7 0.7,1.6 0.7,18.3 0.7,19.1 1.6,19.1 18.3,19.1 19.1,19.1 19.1,18.3 19.1,1.6 19.1,0.7 " fill="black" />
         <rect x="8.3" y="4" width="3.3" height="11" fill="white" />
         <rect x="4.4" y="7.9" width="11" height="3.3" fill="white" />
         <polygon points="0.7,1.6 0.7,18.3 0.7,19.1 1.6,19.1 18.3,19.1 19.1,19.1 19.1,18.3 19.1,1.6 19.1,0.7 18.3,0.7 1.6,0.7 0.7,0.7 " fill="none" stroke="white" stroke-width="1.4357" stroke-miterlimit="10" />
      </svg>
   </svg>
   <svg y="73mm" x="67mm" width="46mm" height="22mm">
      <text>
         <tspan x="0mm" dy="9pt" class="heading-p">Währung</tspan>
         <tspan x="0mm" dy="13pt" class="amount-p">CHF</tspan>
      </text>
      <text>
         <tspan x="20mm" dy="9pt" class="heading-p">Betrag</tspan>
         <tspan x="20mm" dy="13pt" class="amount-p">1.00</tspan>
      </text>
   </svg>
   <svg y="10mm" x="118mm" width="87mm" height="85mm">
      <text y="5mm" x="0mm" class="information-section">
         <tspan x="0mm" dy="0pt" class="is-heading-p">Konto / Zahlbar an</tspan>
         <tspan x="0mm" dy="16pt" class="is-value-p">CH39 0483 5056 3063 3100 0</tspan>
         <tspan x="0mm" dy="11pt" class="is-value-p">
            <tspan x="0mm" dy="11pt" class="is-value-p">Walter Rothlin</tspan>
         </tspan>
         <tspan x="0mm" dy="11pt" class="is-value-p">
            <tspan x="0mm" dy="11pt" class="is-value-p">Peterliwiese 33</tspan>
         </tspan>
         <tspan x="0mm" dy="11pt" class="is-value-p">
            <tspan x="0mm" dy="11pt" class="is-value-p">8855 Wangen</tspan>
         </tspan>
         <textarea x="0mm" dy="11pt">asdfoasifjoasjdfjoasidjfoajsdof</textarea>
         <tspan x="0mm" dy="11pt" class="is-value-p" />
         <tspan x="0mm" dy="18pt" class="is-subtitle-p">Zusätzliche Informationen</tspan>
         <tspan x="0mm" dy="11pt" class="is-value-p">
            <tspan x="0mm" dy="9pt" class="is-value-p">Gruss von Claudia</tspan>
         </tspan>
         <tspan x="0mm" dy="11pt" class="is-value-p" />
         <tspan x="0mm" dy="18pt" class="is-subtitle-p">Zahlbar durch</tspan>
         <tspan x="0mm" dy="16pt" class="is-value-p">
            <tspan x="0mm" dy="11pt" class="is-value-p">Claudia Collet Rothlin</tspan>
         </tspan>
         <tspan x="0mm" dy="11pt" class="is-value-p">
            <tspan x="0mm" dy="11pt" class="is-value-p">Peterliwiese 33</tspan>
         </tspan>
         <tspan x="0mm" dy="11pt" class="is-value-p">
            <tspan x="0mm" dy="11pt" class="is-value-p">8855 Wangen</tspan>
         </tspan>
      </text>
   </svg>
</svg>
